<svg width="2500" height="1583" viewBox="0 0 2500 1583" fill="none" xmlns="http://www.w3.org/2000/svg">
<g clip-path="url(#clip0_424_10)">
<path d="M1008.99 707.709C1008.99 707.709 1245.53 690.149 1245.53 412.77C1245.53 135.371 1052.01 -0.00488281 806.879 -0.00488281H0.234863V1550.14H806.879C806.879 1550.14 1299.31 1565.69 1299.31 1092.61C1299.31 1092.61 1320.77 707.709 1008.99 707.709ZM748.817 275.516H806.879C806.879 275.516 916.526 275.516 916.526 436.801C916.526 598.068 852.042 621.449 778.9 621.449H355.652V275.516H748.817ZM784.085 1274.63H355.652V860.372H806.879C806.879 860.372 970.302 858.229 970.302 1073.26C970.302 1254.57 848.241 1273.26 784.085 1274.63ZM1956.04 394.398C1359.91 394.398 1360.43 990.01 1360.43 990.01C1360.43 990.01 1319.53 1582.56 1956.04 1582.56C1956.04 1582.56 2486.46 1612.87 2486.46 1170.36H2213.67C2213.67 1170.36 2222.77 1337 1965.14 1337C1965.14 1337 1692.31 1355.28 1692.31 1067.31H2495.56C2495.56 1067.3 2583.45 394.398 1956.04 394.398ZM1689.31 860.372C1689.31 860.372 1722.62 621.444 1962.1 621.444C2201.53 621.444 2198.54 860.372 2198.54 860.372H1689.31ZM2262.08 282.207H1622.53V91.3185H2262.08V282.207Z" fill="white"/>
</g>
<defs>
<clipPath id="clip0_424_10">
<rect width="2500" height="1583" fill="white"/>
</clipPath>
</defs>
</svg>
