<svg width="68" height="67" viewBox="0 0 68 67" fill="none" xmlns="http://www.w3.org/2000/svg">
<mask id="mask0_1_4725" style="mask-type:alpha" maskUnits="userSpaceOnUse" x="0" y="0" width="68" height="67">
<rect x="0.698975" y="0.405029" width="66.8724" height="66.5947" fill="#D9D9D9"/>
</mask>
<g mask="url(#mask0_1_4725)">
<path d="M34.2053 12.8232C39.1279 12.8232 43.7718 13.8753 48.1371 15.9796C52.5024 18.0838 56.1479 21.1246 59.0735 25.1018C59.3986 25.518 59.5031 25.888 59.387 26.2117C59.2709 26.5355 59.0735 26.813 58.7949 27.0442C58.5163 27.2754 58.1912 27.3795 57.8197 27.3564C57.4482 27.3332 57.1231 27.1367 56.8444 26.7667C54.2903 23.1594 51.0047 20.3962 46.9877 18.4769C42.9707 16.5577 38.7099 15.598 34.2053 15.598C29.7007 15.598 25.4748 16.5577 21.5274 18.4769C17.5801 20.3962 14.3061 23.1594 11.7055 26.7667C11.4269 27.1829 11.1018 27.4142 10.7303 27.4604C10.3588 27.5067 10.0337 27.4142 9.75509 27.1829C9.43001 26.9517 9.23265 26.6627 9.16299 26.3158C9.09333 25.9689 9.19782 25.6105 9.47645 25.2406C12.3557 21.3096 15.9663 18.2573 20.3084 16.0836C24.6505 13.91 29.2828 12.8232 34.2053 12.8232ZM34.2053 19.3441C40.4746 19.3441 45.8616 21.4252 50.3662 25.5874C54.8708 29.7496 57.1231 34.9062 57.1231 41.0571C57.1231 43.3694 56.2988 45.3002 54.6502 46.8495C53.0016 48.3988 50.9931 49.1734 48.6247 49.1734C46.2563 49.1734 44.2246 48.3988 42.5296 46.8495C40.8345 45.3002 39.987 43.3694 39.987 41.0571C39.987 39.5309 39.4181 38.2475 38.2804 37.207C37.1426 36.1664 35.7843 35.6461 34.2053 35.6461C32.6264 35.6461 31.268 36.1664 30.1303 37.207C28.9925 38.2475 28.4236 39.5309 28.4236 41.0571C28.4236 45.543 29.7588 49.289 32.429 52.2951C35.0993 55.3012 38.5474 57.4054 42.7734 58.6078C43.1913 58.7466 43.47 58.9778 43.6093 59.3015C43.7486 59.6253 43.7718 59.9721 43.6789 60.3421C43.586 60.6658 43.4003 60.9433 43.1217 61.1745C42.843 61.4058 42.4947 61.4751 42.0768 61.3826C37.2471 60.1802 33.2998 57.7869 30.2348 54.2028C27.1698 50.6186 25.6373 46.2367 25.6373 41.0571C25.6373 38.7447 26.4732 36.8023 28.145 35.2299C29.8168 33.6575 31.8369 32.8713 34.2053 32.8713C36.5737 32.8713 38.5938 33.6575 40.2656 35.2299C41.9375 36.8023 42.7734 38.7447 42.7734 41.0571C42.7734 42.5832 43.3539 43.8666 44.5148 44.9071C45.6758 45.9477 47.0458 46.468 48.6247 46.468C50.2036 46.468 51.5504 45.9477 52.6649 44.9071C53.7795 43.8666 54.3367 42.5832 54.3367 41.0571C54.3367 35.6924 52.3631 31.1833 48.4157 27.5298C44.4684 23.8763 39.7548 22.0495 34.275 22.0495C28.7952 22.0495 24.0816 23.8763 20.1343 27.5298C16.1869 31.1833 14.2133 35.6693 14.2133 40.9877C14.2133 42.0976 14.3177 43.485 14.5267 45.1499C14.7357 46.8148 15.2349 48.7572 16.0244 50.9771C16.1637 51.3933 16.1521 51.7633 15.9896 52.087C15.827 52.4107 15.56 52.6419 15.1885 52.7807C14.817 52.9194 14.4571 52.9079 14.1088 52.746C13.7605 52.5841 13.5167 52.3182 13.3773 51.9482C12.6808 50.1446 12.1815 48.3525 11.8797 46.572C11.5778 44.7915 11.4269 42.9532 11.4269 41.0571C11.4269 34.9062 13.6676 29.7496 18.149 25.5874C22.6304 21.4252 27.9825 19.3441 34.2053 19.3441ZM34.2053 6.0249C37.1774 6.0249 40.0799 6.38332 42.9127 7.10015C45.7455 7.81698 48.4854 8.84597 51.1324 10.1871C51.5504 10.4184 51.7942 10.6959 51.8638 11.0196C51.9335 11.3433 51.8987 11.667 51.7593 11.9908C51.62 12.3145 51.3878 12.5689 51.0628 12.7538C50.7377 12.9388 50.343 12.9157 49.8786 12.6845C47.4173 11.4358 44.8747 10.4762 42.2509 9.8056C39.6271 9.13502 36.9452 8.79973 34.2053 8.79973C31.5119 8.79973 28.8648 9.11189 26.2642 9.73623C23.6636 10.3606 21.1791 11.3433 18.8107 12.6845C18.4392 12.9157 18.0677 12.9735 17.6962 12.8579C17.3247 12.7423 17.046 12.4995 16.8603 12.1295C16.6745 11.7595 16.6281 11.4242 16.721 11.1236C16.8138 10.823 17.046 10.5571 17.4176 10.3259C20.0182 8.93847 22.7348 7.87478 25.5676 7.13483C28.4004 6.39488 31.2797 6.0249 34.2053 6.0249ZM34.2053 26.073C38.5242 26.073 42.2393 27.5182 45.3507 30.4087C48.4622 33.2991 50.0179 36.8486 50.0179 41.0571C50.0179 41.4733 49.8902 41.8086 49.6348 42.0629C49.3793 42.3173 49.0427 42.4445 48.6247 42.4445C48.2532 42.4445 47.9281 42.3173 47.6495 42.0629C47.3708 41.8086 47.2315 41.4733 47.2315 41.0571C47.2315 37.5885 45.9428 34.6865 43.3655 32.351C40.7881 30.0156 37.7347 28.8478 34.2053 28.8478C30.676 28.8478 27.6458 30.0156 25.1149 32.351C22.5839 34.6865 21.3184 37.5885 21.3184 41.0571C21.3184 44.8031 21.9686 47.9826 23.2689 50.5955C24.5692 53.2085 26.4732 55.833 28.9809 58.4691C29.2596 58.7466 29.3989 59.0703 29.3989 59.4403C29.3989 59.8102 29.2596 60.134 28.9809 60.4115C28.7023 60.6889 28.3772 60.8277 28.0057 60.8277C27.6342 60.8277 27.3091 60.6889 27.0305 60.4115C24.2906 57.5441 22.1892 54.619 20.7263 51.6361C19.2635 48.6531 18.5321 45.1268 18.5321 41.0571C18.5321 36.8486 20.0646 33.2991 23.1296 30.4087C26.1946 27.5182 29.8865 26.073 34.2053 26.073ZM34.1357 39.6696C34.5536 39.6696 34.8903 39.8084 35.1457 40.0859C35.4011 40.3633 35.5288 40.6871 35.5288 41.0571C35.5288 44.5256 36.7827 47.3698 39.2904 49.5896C41.7981 51.8095 44.7238 52.9194 48.0674 52.9194C48.3461 52.9194 48.7408 52.8963 49.2516 52.8501C49.7625 52.8038 50.2965 52.7344 50.8538 52.6419C51.2717 52.5495 51.6316 52.6073 51.9335 52.8154C52.2354 53.0235 52.4327 53.3357 52.5256 53.7519C52.6185 54.1219 52.5488 54.4456 52.3166 54.7231C52.0844 55.0005 51.7826 55.1855 51.4111 55.278C50.5751 55.5093 49.8437 55.6364 49.2168 55.6596C48.5899 55.6827 48.2067 55.6942 48.0674 55.6942C43.9343 55.6942 40.3469 54.3068 37.3051 51.532C34.2634 48.7572 32.7425 45.2655 32.7425 41.0571C32.7425 40.6871 32.8702 40.3633 33.1256 40.0859C33.381 39.8084 33.7177 39.6696 34.1357 39.6696Z" fill="#09181B"/>
</g>
</svg>
