<svg width="162" height="189" viewBox="0 0 162 189" fill="none" xmlns="http://www.w3.org/2000/svg">
<path d="M27.4994 67.9995C10.4995 67.9995 6.49951 74.4995 2.99925 84.4995C1.41299 97.4274 0.400048 108.926 1.7028 124.501C2.99919 140 9.12399 157.5 10.7028 163.001C12.2816 168.502 14.5596 175.151 20.2028 180.501C24.4562 184.533 27.3628 188.498 33.2028 188.001C60.8419 185.65 82.9605 187.408 110.5 187.306C115.478 187.288 122.885 186.116 126.5 179.806C130.797 172.305 134.467 170.511 135 163.323C136.297 145.822 132.797 134.822 136.203 116.001C138.336 104.213 141.793 98.1391 146.203 87.0008C148.94 80.0876 150.821 76.355 153.703 69.5008C156.078 63.8516 158.395 60.9878 159.703 55.0008C161.287 47.7519 162.126 43.0139 159.703 36.0008C156.769 27.5093 152.59 22.2222 144.203 19.0008C134.372 15.2246 126.233 17.8246 117.703 24.0008C112.762 27.5783 109 34.9995 109 34.9995C109 34.9995 108.671 28.5859 107.703 24.0008C104.84 10.4486 92.8504 0.416923 78.9997 0.544912C65.2971 0.671533 55.6219 10.3288 53.4997 23.5449C51.4997 36 53.4997 54.5 53.4997 54.5C53.4997 54.5 35.4995 51.9995 27.4994 67.9995Z" fill="black"/>
<path d="M35.0902 88.6247C32.8263 83.5474 26.875 81.2667 21.7977 83.5306C16.7204 85.7946 14.4397 91.7459 16.7036 96.8232L32.9016 133.15C35.1655 138.227 41.1168 140.508 46.1941 138.244C51.2714 135.98 53.5521 130.029 51.2882 124.952L35.0902 88.6247Z" fill="#FFFBF2"/>
<path d="M39.0784 83.2835C36.8123 77.9069 39.2623 71.7052 44.5912 69.329C49.9662 66.9324 56.2683 69.3169 58.7105 74.6713L72.9999 106C64.9999 105 56.4999 107.5 53.4998 117.5L39.0784 83.2835Z" fill="#FFFBF2"/>
<path d="M77.4999 106.508C77.4999 106.508 67.9999 83.008 68.4999 82.508V29.4061C68.4999 27.8043 68.5913 26.1901 69.1323 24.6824C69.7007 23.0984 70.7274 21.0189 72.4999 19.4998C75.9999 16.5 80.4999 16.4998 80.4999 16.4998C80.4999 16.4998 84.9999 16.4998 88.4999 19.4998C91.9999 22.4998 92.5 26.9998 92.5 26.9998V94.508H97.4999C97.4999 94.508 108 57.5 122 39.008C124.954 35.1067 130.126 32.5748 135 33.008C139.208 33.382 142.5 34.9998 144.5 39.008C146.991 43.9998 144 53.008 144 53.008L131.5 83.508C131.5 83.508 123.5 102.508 119 113.008C117.692 116.059 119 121.508 119 121.508C119 121.508 114 115.508 110 111.008L109.962 110.965C107.711 108.433 106 106.508 102.5 106.508H77.4999Z" fill="#FFFBF2"/>
<path d="M57.4997 133.736C59.2575 139.242 70.4997 138 90.4997 138V133H65.4997C60.3446 133 57.3249 127.152 57.4997 122C57.6559 117.394 59.5723 111.412 64.4997 111.5C98.8846 112.112 104.421 109.664 107.829 116.599C109.5 120.001 120.329 129.501 120.329 129.501V164C120.329 174 107 174 107 174H37.4997C37.4997 174 28.9997 173.5 26.4997 167.5C13.3931 136.044 14.9997 108 14.9997 108L25.2497 130C25.2497 130 29.1975 137.132 32.4997 140.381C34.5267 142.375 35.7601 143.744 38.4997 144.506C40.7572 145.134 43.9284 143.872 46.2419 143.5C53.3777 142.354 57.4997 133.736 57.4997 133.736Z" fill="#FFFBF2"/>
<path d="M27.4994 67.9995C10.4995 67.9995 6.49951 74.4995 2.99925 84.4995C1.41299 97.4274 0.400048 108.926 1.7028 124.501C2.99919 140 9.12399 157.5 10.7028 163.001C12.2816 168.502 14.5596 175.151 20.2028 180.501C24.4562 184.533 27.3628 188.498 33.2028 188.001C60.8419 185.65 82.9605 187.408 110.5 187.306C115.478 187.288 122.885 186.116 126.5 179.806C130.797 172.305 134.467 170.511 135 163.323C136.297 145.822 132.797 134.822 136.203 116.001C138.336 104.213 141.793 98.1391 146.203 87.0008C148.94 80.0876 150.821 76.355 153.703 69.5008C156.078 63.8516 158.395 60.9878 159.703 55.0008C161.287 47.7519 162.126 43.0139 159.703 36.0008C156.769 27.5093 152.59 22.2222 144.203 19.0008C134.372 15.2246 126.233 17.8246 117.703 24.0008C112.762 27.5783 109 34.9995 109 34.9995C109 34.9995 108.671 28.5859 107.703 24.0008C104.84 10.4486 92.8504 0.416923 78.9997 0.544912C65.2971 0.671533 55.6219 10.3288 53.4997 23.5449C51.4997 36 53.4997 54.5 53.4997 54.5C53.4997 54.5 35.4995 51.9995 27.4994 67.9995Z" stroke="black"/>
<path d="M35.0902 88.6247C32.8263 83.5474 26.875 81.2667 21.7977 83.5306C16.7204 85.7946 14.4397 91.7459 16.7036 96.8232L32.9016 133.15C35.1655 138.227 41.1168 140.508 46.1941 138.244C51.2714 135.98 53.5521 130.029 51.2882 124.952L35.0902 88.6247Z" stroke="black"/>
<path d="M39.0784 83.2835C36.8123 77.9069 39.2623 71.7052 44.5912 69.329C49.9662 66.9324 56.2683 69.3169 58.7105 74.6713L72.9999 106C64.9999 105 56.4999 107.5 53.4998 117.5L39.0784 83.2835Z" stroke="black"/>
<path d="M77.4999 106.508C77.4999 106.508 67.9999 83.008 68.4999 82.508V29.4061C68.4999 27.8043 68.5913 26.1901 69.1323 24.6824C69.7007 23.0984 70.7274 21.0189 72.4999 19.4998C75.9999 16.5 80.4999 16.4998 80.4999 16.4998C80.4999 16.4998 84.9999 16.4998 88.4999 19.4998C91.9999 22.4998 92.5 26.9998 92.5 26.9998V94.508H97.4999C97.4999 94.508 108 57.5 122 39.008C124.954 35.1067 130.126 32.5748 135 33.008C139.208 33.382 142.5 34.9998 144.5 39.008C146.991 43.9998 144 53.008 144 53.008L131.5 83.508C131.5 83.508 123.5 102.508 119 113.008C117.692 116.059 119 121.508 119 121.508C119 121.508 114 115.508 110 111.008L109.962 110.965C107.711 108.433 106 106.508 102.5 106.508H77.4999Z" stroke="black"/>
<path d="M57.4997 133.736C59.2575 139.242 70.4997 138 90.4997 138V133H65.4997C60.3446 133 57.3249 127.152 57.4997 122C57.6559 117.394 59.5723 111.412 64.4997 111.5C98.8846 112.112 104.421 109.664 107.829 116.599C109.5 120.001 120.329 129.501 120.329 129.501V164C120.329 174 107 174 107 174H37.4997C37.4997 174 28.9997 173.5 26.4997 167.5C13.3931 136.044 14.9997 108 14.9997 108L25.2497 130C25.2497 130 29.1975 137.132 32.4997 140.381C34.5267 142.375 35.7601 143.744 38.4997 144.506C40.7572 145.134 43.9284 143.872 46.2419 143.5C53.3777 142.354 57.4997 133.736 57.4997 133.736Z" stroke="black"/>
</svg>
