<svg width="77" height="76" viewBox="0 0 77 76" fill="none" xmlns="http://www.w3.org/2000/svg">
<g filter="url(#filter0_d_21_224)">
<path d="M16.2023 21.2141C15.4868 19.5319 17.0462 17.7734 18.8045 18.2796L57.6799 29.4702C59.7327 30.0611 59.7886 32.9458 57.7603 33.6163L41.3374 39.0452C40.6036 39.2878 40.0539 39.9015 39.8939 40.6568L36.1951 58.1171C35.7552 60.1939 32.8999 60.4707 32.0689 58.5171L16.2023 21.2141Z" fill="#FB5424"/>
<path d="M16.7023 21.0024C16.1657 19.7408 17.3358 18.4213 18.6545 18.801L57.5294 29.9916C59.0689 30.4348 59.1109 32.5982 57.5899 33.1012L41.1671 38.53C40.2498 38.8332 39.5621 39.6007 39.3621 40.5448L35.6636 58.005C35.3336 59.5623 33.1923 59.7701 32.5689 58.3053L16.7023 21.0024Z" stroke="#FF7D57" stroke-width="1.0859"/>
</g>
<defs>
<filter id="filter0_d_21_224" x="0.821791" y="0.816736" width="75.8036" height="74.225" filterUnits="userSpaceOnUse" color-interpolation-filters="sRGB">
<feFlood flood-opacity="0" result="BackgroundImageFix"/>
<feColorMatrix in="SourceAlpha" type="matrix" values="0 0 0 0 0 0 0 0 0 0 0 0 0 0 0 0 0 0 127 0" result="hardAlpha"/>
<feOffset dx="1.0859" dy="-1.0859"/>
<feGaussianBlur stdDeviation="8.14426"/>
<feComposite in2="hardAlpha" operator="out"/>
<feColorMatrix type="matrix" values="0 0 0 0 0.984314 0 0 0 0 0.329412 0 0 0 0 0.141176 0 0 0 0.5 0"/>
<feBlend mode="normal" in2="BackgroundImageFix" result="effect1_dropShadow_21_224"/>
<feBlend mode="normal" in="SourceGraphic" in2="effect1_dropShadow_21_224" result="shape"/>
</filter>
</defs>
</svg>
