<svg width="1464" height="271" viewBox="0 0 1464 271" fill="none" xmlns="http://www.w3.org/2000/svg">
<rect width="192.934" height="74.3571" rx="37.1786" transform="matrix(0.819557 -0.572998 0.574155 0.818747 0 167.123)" stroke="white" stroke-width="3.12339"/>
<path d="M49.1114 192.147L34.8289 171.779L48.5665 162.174L51.0562 165.724L41.629 172.316L45.0323 177.169L53.7526 171.072L56.2423 174.622L47.5219 180.72L50.9321 185.583L60.3991 178.964L62.8888 182.514L49.1114 192.147ZM66.1962 180.201L55.4844 164.925L59.526 162.1L61.416 164.795L61.5951 164.669C61.286 163.552 61.3218 162.474 61.7025 161.437C62.0831 160.401 62.7911 159.52 63.8264 158.796C64.875 158.063 65.9512 157.701 67.0552 157.71C68.1544 157.712 69.1384 158.071 70.0069 158.788L70.1662 158.677C69.8644 157.583 69.938 156.489 70.387 155.395C70.838 154.289 71.6243 153.344 72.7459 152.56C74.1727 151.562 75.6492 151.207 77.1755 151.493C78.7037 151.769 80.049 152.735 81.2113 154.393L88.4153 164.666L84.1845 167.624L77.5663 158.186C76.9712 157.337 76.2992 156.859 75.5504 156.75C74.8016 156.641 74.0887 156.823 73.4118 157.297C72.6419 157.835 72.2134 158.5 72.126 159.292C72.034 160.078 72.267 160.869 72.8249 161.664L79.3664 170.993L75.2551 173.868L68.5741 164.34C68.0488 163.591 67.4146 163.145 66.6718 163.002C65.9355 162.855 65.219 163.025 64.5222 163.512C64.051 163.842 63.7099 164.258 63.499 164.761C63.2901 165.253 63.2249 165.788 63.3035 166.365C63.3774 166.936 63.6119 167.503 64.0071 168.067L70.437 177.236L66.1962 180.201ZM95.782 168.052L81.0532 147.048L85.2342 144.125L87.0335 146.69L87.2226 146.558C87.1202 146.017 87.096 145.412 87.1502 144.741C87.2064 144.06 87.4199 143.377 87.7907 142.693C88.1635 141.997 88.778 141.35 89.6341 140.752C90.749 139.972 91.9823 139.545 93.3338 139.469C94.6806 139.387 96.0453 139.732 97.4276 140.505C98.8053 141.271 100.108 142.529 101.335 144.279C102.53 145.983 103.264 147.614 103.536 149.173C103.81 150.721 103.687 152.125 103.168 153.388C102.651 154.639 101.811 155.67 100.65 156.482C99.8269 157.058 99.0314 157.411 98.2634 157.543C97.5021 157.67 96.7947 157.656 96.1415 157.5C95.4836 157.338 94.9096 157.111 94.4196 156.822L94.2902 156.912L100.023 165.087L95.782 168.052ZM90.5603 151.783C91.1972 152.692 91.8789 153.396 92.6053 153.896C93.3317 154.396 94.0663 154.668 94.8091 154.712C95.5473 154.749 96.2582 154.528 96.9418 154.05C97.632 153.568 98.0835 152.97 98.2963 152.258C98.5045 151.54 98.4942 150.757 98.2655 149.909C98.0389 149.049 97.614 148.175 96.991 147.287C96.3727 146.405 95.7059 145.715 94.9908 145.217C94.2757 144.719 93.5467 144.448 92.8039 144.405C92.0611 144.361 91.3412 144.583 90.6444 145.07C89.9542 145.552 89.498 146.143 89.2759 146.842C89.0604 147.536 89.0614 148.306 89.2788 149.152C89.4961 149.998 89.9233 150.875 90.5603 151.783ZM114.067 147.16C113.091 147.842 112.103 148.281 111.103 148.477C110.098 148.666 109.138 148.581 108.224 148.222C107.312 147.852 106.503 147.163 105.796 146.155C105.201 145.306 104.857 144.485 104.764 143.69C104.672 142.895 104.771 142.134 105.062 141.406C105.353 140.679 105.778 139.987 106.336 139.33C106.901 138.669 107.536 138.037 108.241 137.435C109.065 136.72 109.722 136.133 110.21 135.673C110.694 135.206 111 134.804 111.13 134.467C111.259 134.129 111.21 133.798 110.982 133.473L110.94 133.414C110.498 132.784 109.958 132.436 109.318 132.369C108.684 132.298 108.006 132.516 107.283 133.021C106.519 133.555 106.031 134.149 105.817 134.802C105.598 135.449 105.592 136.076 105.799 136.682L101.654 139.106C101.202 138.039 101.031 136.963 101.141 135.878C101.246 134.787 101.632 133.736 102.299 132.727C102.968 131.706 103.913 130.768 105.134 129.914C105.983 129.321 106.866 128.852 107.782 128.508C108.704 128.159 109.614 127.982 110.511 127.978C111.414 127.969 112.272 128.169 113.084 128.58C113.891 128.983 114.614 129.64 115.251 130.548L122.475 140.851L118.454 143.663L116.968 141.545L116.849 141.628C116.938 142.277 116.905 142.928 116.749 143.58C116.589 144.226 116.292 144.854 115.859 145.463C115.421 146.066 114.823 146.631 114.067 147.16ZM113.231 143.387C113.855 142.951 114.32 142.443 114.625 141.864C114.927 141.278 115.064 140.677 115.039 140.063C115.014 139.448 114.813 138.873 114.436 138.335L113.299 136.714C113.227 136.893 113.1 137.101 112.919 137.336C112.74 137.56 112.529 137.802 112.285 138.061C112.037 138.313 111.786 138.563 111.534 138.809C111.276 139.048 111.043 139.265 110.834 139.461C110.387 139.882 110.034 140.302 109.774 140.721C109.514 141.14 109.376 141.557 109.361 141.973C109.341 142.382 109.471 142.785 109.75 143.183C110.154 143.76 110.673 144.055 111.305 144.067C111.938 144.069 112.581 143.842 113.231 143.387ZM123.187 117.588L125.418 120.771L116.21 127.209L113.979 124.027L123.187 117.588ZM113.503 118.905L117.743 115.94L127.73 130.182C128.004 130.573 128.278 130.836 128.551 130.971C128.819 131.1 129.09 131.133 129.362 131.071C129.642 131.004 129.924 130.871 130.21 130.671C130.409 130.532 130.596 130.376 130.772 130.204C130.943 130.025 131.075 129.888 131.167 129.794L134.045 132.48C133.879 132.695 133.634 132.98 133.309 133.336C132.989 133.697 132.561 134.081 132.024 134.486C131.03 135.24 130.039 135.731 129.05 135.958C128.069 136.18 127.135 136.111 126.25 135.751C125.365 135.392 124.575 134.709 123.88 133.704L113.503 118.905ZM135.037 118.906L141.23 127.738L136.99 130.703L122.707 110.335L126.828 107.453L132.289 115.241L132.468 115.115C132.181 113.972 132.243 112.876 132.655 111.828C133.062 110.772 133.847 109.839 135.008 109.026C136.07 108.284 137.158 107.869 138.273 107.781C139.391 107.681 140.47 107.91 141.513 108.465C142.557 109.01 143.495 109.881 144.325 111.079L151.145 120.805L146.904 123.771L140.614 114.8C139.96 113.854 139.208 113.288 138.356 113.103C137.511 112.913 136.657 113.12 135.794 113.723C135.217 114.127 134.792 114.607 134.519 115.163C134.253 115.715 134.159 116.314 134.237 116.961C134.317 117.597 134.584 118.245 135.037 118.906ZM160.57 122.753C160.032 123.129 159.498 123.438 158.966 123.681C158.446 123.927 157.989 124.093 157.595 124.181L156.333 120.35C156.938 120.154 157.444 119.924 157.852 119.659C158.266 119.389 158.549 119.052 158.702 118.649C158.861 118.242 158.866 117.734 158.717 117.127L158.512 116.306L142.009 104.428L146.468 101.31L157.501 110.315L157.66 110.203L152.989 96.7507L157.478 93.6116L163.405 114.694C163.696 115.716 163.81 116.703 163.747 117.656C163.694 118.612 163.413 119.515 162.902 120.366C162.396 121.224 161.619 122.02 160.57 122.753Z" fill="white"/>
<rect width="250.716" height="68.4921" rx="34.2461" transform="matrix(0.906556 0.422085 -0.423152 0.906059 1236.71 -0.000244141)" stroke="white" stroke-width="2.86261"/>
<path d="M1263.64 45.4771L1259.22 43.4188C1259.41 42.8096 1259.48 42.2252 1259.44 41.6654C1259.4 41.099 1259.26 40.5669 1259.02 40.0691C1258.77 39.5714 1258.44 39.1194 1258 38.7132C1257.58 38.3101 1257.07 37.9707 1256.48 37.695C1255.41 37.1969 1254.35 37.0286 1253.31 37.1902C1252.27 37.345 1251.3 37.825 1250.39 38.63C1249.48 39.4284 1248.7 40.5437 1248.03 41.9761C1247.34 43.4487 1246.98 44.7879 1246.95 45.9935C1246.93 47.2022 1247.19 48.247 1247.75 49.1277C1248.3 50.0084 1249.1 50.6916 1250.14 51.1772C1250.73 51.4498 1251.31 51.6246 1251.88 51.7018C1252.45 51.7821 1253.01 51.7651 1253.53 51.651C1254.07 51.5301 1254.56 51.3139 1255.02 51.0026C1255.48 50.6944 1255.89 50.2881 1256.25 49.7837L1260.66 51.8621C1260.1 52.757 1259.39 53.5384 1258.52 54.2063C1257.66 54.8706 1256.69 55.3705 1255.6 55.706C1254.52 56.0379 1253.35 56.1597 1252.11 56.0713C1250.87 55.9793 1249.59 55.6248 1248.27 55.0076C1246.43 54.1492 1244.97 52.9647 1243.91 51.4542C1242.85 49.9468 1242.27 48.2071 1242.17 46.2352C1242.07 44.2665 1242.55 42.1591 1243.6 39.9131C1244.65 37.6603 1245.97 35.9412 1247.55 34.7556C1249.14 33.5701 1250.85 32.9021 1252.69 32.7517C1254.53 32.5945 1256.36 32.9389 1258.18 33.7847C1259.38 34.3424 1260.41 35.0274 1261.27 35.8398C1262.15 36.6554 1262.83 37.5708 1263.32 38.586C1263.82 39.5945 1264.1 40.6787 1264.16 41.8385C1264.23 43.0015 1264.06 44.2143 1263.64 45.4771ZM1267.29 63.8882C1265.72 63.1582 1264.52 62.1941 1263.69 60.9958C1262.86 59.7939 1262.42 58.4503 1262.36 56.9651C1262.31 55.4732 1262.65 53.9337 1263.39 52.3467C1264.14 50.7463 1265.1 49.4917 1266.28 48.5829C1267.46 47.6674 1268.77 47.1415 1270.22 47.0052C1271.68 46.8654 1273.19 47.1604 1274.76 47.8903C1276.33 48.6203 1277.52 49.5862 1278.34 50.7881C1279.18 51.9864 1279.62 53.3316 1279.68 54.8235C1279.74 56.3087 1279.4 57.8515 1278.65 59.452C1277.91 61.039 1276.95 62.2902 1275.76 63.2057C1274.59 64.1145 1273.27 64.6388 1271.81 64.7787C1270.36 64.915 1268.86 64.6181 1267.29 63.8882ZM1268.86 60.5689C1269.58 60.901 1270.27 60.9765 1270.93 60.7955C1271.6 60.6077 1272.22 60.2172 1272.79 59.6238C1273.37 59.0337 1273.87 58.288 1274.29 57.3869C1274.71 56.4858 1274.96 55.6243 1275.04 54.8023C1275.13 53.9834 1275.03 53.2577 1274.75 52.6251C1274.46 51.9924 1273.96 51.5101 1273.25 51.178C1272.53 50.8428 1271.83 50.7659 1271.14 50.9474C1270.47 51.1321 1269.84 51.5195 1269.26 52.1096C1268.69 52.7029 1268.19 53.4501 1267.77 54.3512C1267.35 55.2523 1267.1 56.1123 1267.01 56.9312C1266.93 57.7532 1267.04 58.4821 1267.33 59.1178C1267.63 59.75 1268.14 60.2337 1268.86 60.5689ZM1291.8 49.7838L1282.15 70.4418L1277.85 68.4399L1287.5 47.7819L1291.8 49.7838ZM1299.54 53.3893L1289.9 74.0473L1285.6 72.0454L1295.24 51.3874L1299.54 53.3893ZM1297.62 78.0017C1296.64 77.5411 1295.83 76.9593 1295.22 76.256C1294.61 75.5461 1294.24 74.7466 1294.1 73.8575C1293.98 72.9648 1294.16 72.0074 1294.63 70.9853C1295.04 70.1245 1295.53 69.4752 1296.12 69.0374C1296.71 68.5996 1297.36 68.3294 1298.07 68.2268C1298.78 68.1241 1299.53 68.1434 1300.31 68.2845C1301.09 68.4287 1301.88 68.6424 1302.69 68.9256C1303.63 69.2513 1304.4 69.5022 1304.99 69.6784C1305.58 69.8479 1306.04 69.9065 1306.37 69.8543C1306.7 69.8021 1306.94 69.6112 1307.09 69.2817L1307.12 69.2212C1307.42 68.5824 1307.45 67.9941 1307.21 67.4565C1306.97 66.922 1306.49 66.484 1305.76 66.1425C1304.98 65.7822 1304.29 65.667 1303.67 65.797C1303.05 65.9202 1302.55 66.2028 1302.17 66.645L1298.34 64.4707C1298.98 63.6232 1299.76 62.9944 1300.67 62.5842C1301.59 62.1672 1302.6 61.9916 1303.71 62.0572C1304.82 62.1192 1306 62.4384 1307.24 63.0149C1308.1 63.4159 1308.88 63.9005 1309.57 64.4688C1310.27 65.0402 1310.83 65.6803 1311.24 66.389C1311.66 67.1009 1311.9 67.8727 1311.94 68.7045C1311.99 69.5295 1311.8 70.4027 1311.37 71.324L1306.49 81.774L1302.41 79.8755L1303.42 77.727L1303.3 77.6706C1302.82 78.0389 1302.29 78.3108 1301.7 78.4864C1301.11 78.6553 1300.48 78.7077 1299.79 78.6436C1299.11 78.5728 1298.39 78.3588 1297.62 78.0017ZM1300.24 75.6094C1300.87 75.9039 1301.49 76.0395 1302.09 76.0163C1302.69 75.9863 1303.23 75.8204 1303.71 75.5184C1304.19 75.2165 1304.55 74.7932 1304.81 74.2485L1305.58 72.6043C1305.4 72.6291 1305.18 72.6236 1304.91 72.588C1304.65 72.5487 1304.36 72.492 1304.04 72.4178C1303.73 72.3369 1303.41 72.2526 1303.1 72.1649C1302.79 72.0706 1302.51 71.9854 1302.26 71.9094C1301.72 71.7484 1301.23 71.6608 1300.78 71.6468C1300.32 71.6327 1299.93 71.715 1299.59 71.8936C1299.26 72.0655 1299 72.3532 1298.81 72.7566C1298.54 73.3417 1298.54 73.8875 1298.82 74.3942C1299.11 74.8973 1299.58 75.3024 1300.24 75.6094ZM1309.91 83.3647L1319.55 62.7067L1323.85 64.7086L1320.23 72.4755L1320.36 72.5366C1320.74 72.2074 1321.21 71.9106 1321.77 71.6463C1322.34 71.3783 1322.98 71.2345 1323.69 71.2148C1324.41 71.1914 1325.21 71.3818 1326.08 71.786C1327.21 72.3123 1328.11 73.0938 1328.79 74.1304C1329.47 75.1603 1329.82 76.4002 1329.84 77.85C1329.87 79.2931 1329.46 80.9023 1328.63 82.6776C1327.83 84.4058 1326.87 85.735 1325.75 86.6653C1324.65 87.5919 1323.47 88.1388 1322.23 88.3058C1321 88.4693 1319.8 88.2769 1318.62 87.7287C1317.79 87.3402 1317.14 86.8719 1316.68 86.3236C1316.23 85.7785 1315.92 85.2113 1315.75 84.622C1315.57 84.0261 1315.49 83.4675 1315.5 82.9463L1315.3 82.857L1314.15 85.3384L1309.91 83.3647ZM1317.73 77.5775C1317.3 78.4988 1317.06 79.3619 1316.99 80.1669C1316.93 80.9718 1317.05 81.6787 1317.35 82.2876C1317.66 82.8897 1318.16 83.3522 1318.85 83.6748C1319.55 84.0007 1320.24 84.0847 1320.9 83.9269C1321.57 83.7625 1322.18 83.3953 1322.75 82.8253C1323.33 82.2517 1323.83 81.5143 1324.25 80.6132C1324.67 79.7189 1324.91 78.8741 1324.98 78.079C1325.05 77.2839 1324.93 76.5819 1324.63 75.9731C1324.32 75.3642 1323.81 74.8953 1323.11 74.5664C1322.41 74.2405 1321.73 74.1498 1321.07 74.2941C1320.42 74.4415 1319.81 74.7953 1319.24 75.3554C1318.66 75.9155 1318.16 76.6562 1317.73 77.5775ZM1334.76 95.3038C1333.19 94.5738 1331.99 93.6097 1331.16 92.4114C1330.33 91.2095 1329.89 89.8659 1329.83 88.3807C1329.77 86.8888 1330.12 85.3493 1330.86 83.7623C1331.6 82.1619 1332.57 80.9073 1333.75 79.9985C1334.93 79.083 1336.24 78.5571 1337.69 78.4208C1339.15 78.281 1340.66 78.576 1342.23 79.3059C1343.79 80.0359 1344.99 81.0018 1345.81 82.2037C1346.65 83.402 1347.09 84.7472 1347.15 86.2391C1347.21 87.7243 1346.86 89.2671 1346.12 90.8676C1345.38 92.4546 1344.41 93.7058 1343.23 94.6213C1342.06 95.5301 1340.74 96.0544 1339.28 96.1943C1337.83 96.3306 1336.32 96.0337 1334.76 95.3038ZM1336.33 91.9845C1337.04 92.3166 1337.73 92.3921 1338.4 92.2111C1339.07 92.0233 1339.69 91.6328 1340.26 91.0395C1340.84 90.4493 1341.34 89.7036 1341.76 88.8026C1342.18 87.9015 1342.43 87.0399 1342.51 86.2179C1342.6 85.399 1342.5 84.6733 1342.22 84.0407C1341.93 83.408 1341.43 82.9257 1340.72 82.5936C1340 82.2584 1339.3 82.1815 1338.61 82.363C1337.94 82.5477 1337.31 82.9351 1336.73 83.5252C1336.16 84.1185 1335.66 84.8657 1335.24 85.7668C1334.82 86.6679 1334.57 87.5279 1334.48 88.3468C1334.4 89.1688 1334.5 89.8977 1334.8 90.5334C1335.1 91.1656 1335.61 91.6493 1336.33 91.9845ZM1345.32 99.8555L1352.56 84.362L1356.73 86.3028L1355.46 89.0061L1355.63 89.0813C1356.36 88.2512 1357.17 87.7458 1358.07 87.5651C1358.96 87.3776 1359.85 87.4859 1360.72 87.8901C1360.93 87.9903 1361.16 88.1119 1361.39 88.2547C1361.63 88.3975 1361.83 88.5363 1362 88.6711L1360.22 92.4839C1360.04 92.3294 1359.79 92.1456 1359.45 91.9325C1359.12 91.7194 1358.8 91.5439 1358.51 91.4061C1357.88 91.1116 1357.25 90.9863 1356.62 91.0302C1356 91.0705 1355.44 91.2653 1354.92 91.6148C1354.41 91.9674 1354.01 92.4597 1353.72 93.0918L1349.62 101.857L1345.32 99.8555ZM1360.79 107.414C1359.8 106.954 1359 106.372 1358.39 105.669C1357.78 104.959 1357.4 104.159 1357.27 103.27C1357.15 102.377 1357.32 101.42 1357.8 100.398C1358.2 99.5371 1358.7 98.8878 1359.29 98.45C1359.88 98.0122 1360.53 97.742 1361.24 97.6393C1361.95 97.5367 1362.7 97.5559 1363.47 97.697C1364.26 97.8413 1365.05 98.055 1365.85 98.3382C1366.8 98.6638 1367.57 98.9147 1368.16 99.0909C1368.75 99.2604 1369.21 99.319 1369.53 99.2668C1369.86 99.2146 1370.1 99.0238 1370.26 98.6943L1370.29 98.6338C1370.58 97.9949 1370.61 97.4067 1370.37 96.869C1370.14 96.3345 1369.65 95.8965 1368.92 95.555C1368.15 95.1948 1367.45 95.0796 1366.83 95.2095C1366.22 95.3327 1365.72 95.6154 1365.33 96.0575L1361.51 93.8832C1362.15 93.0358 1362.93 92.4069 1363.84 91.9967C1364.75 91.5798 1365.77 91.4041 1366.87 91.4697C1367.99 91.5317 1369.17 91.851 1370.41 92.4274C1371.27 92.8284 1372.04 93.313 1372.74 93.8813C1373.44 94.4527 1373.99 95.0928 1374.41 95.8015C1374.83 96.5134 1375.06 97.2852 1375.11 98.117C1375.16 98.9421 1374.97 99.8152 1374.54 100.737L1369.66 111.187L1365.58 109.288L1366.58 107.14L1366.46 107.083C1365.99 107.451 1365.45 107.723 1364.87 107.899C1364.28 108.068 1363.64 108.12 1362.96 108.056C1362.28 107.985 1361.56 107.771 1360.79 107.414ZM1363.41 105.022C1364.04 105.316 1364.66 105.452 1365.26 105.429C1365.86 105.399 1366.4 105.233 1366.88 104.931C1367.35 104.629 1367.72 104.206 1367.97 103.661L1368.74 102.017C1368.57 102.042 1368.34 102.036 1368.07 102.001C1367.81 101.961 1367.53 101.905 1367.21 101.83C1366.89 101.749 1366.58 101.665 1366.27 101.577C1365.96 101.483 1365.68 101.398 1365.43 101.322C1364.89 101.161 1364.4 101.073 1363.94 101.059C1363.49 101.045 1363.1 101.128 1362.76 101.306C1362.42 101.478 1362.16 101.766 1361.97 102.169C1361.7 102.754 1361.7 103.3 1361.98 103.807C1362.27 104.31 1362.75 104.715 1363.41 105.022ZM1388.47 101.085L1386.97 104.313L1377.63 99.9664L1379.14 96.7386L1388.47 101.085ZM1382.99 94.0135L1387.29 96.0154L1380.54 110.46C1380.36 110.857 1380.28 111.194 1380.29 111.472C1380.31 111.744 1380.41 111.974 1380.59 112.161C1380.77 112.352 1381 112.515 1381.29 112.65C1381.49 112.744 1381.7 112.821 1381.92 112.881C1382.14 112.935 1382.31 112.977 1382.43 113.006L1381.61 116.519C1381.36 116.486 1381.02 116.422 1380.59 116.328C1380.16 116.24 1379.66 116.077 1379.09 115.837C1378.04 115.395 1377.19 114.834 1376.56 114.154C1375.93 113.478 1375.56 112.707 1375.44 111.841C1375.32 110.974 1375.5 110.035 1375.98 109.023L1382.99 94.0135ZM1384.04 117.883L1391.27 102.389L1395.57 104.391L1388.34 119.885L1384.04 117.883ZM1394.37 101.398C1393.73 101.1 1393.28 100.633 1393.02 99.9964C1392.77 99.3562 1392.78 98.7368 1393.06 98.1383C1393.34 97.5465 1393.8 97.1438 1394.45 96.93C1395.11 96.7127 1395.76 96.7528 1396.4 97.0504C1397.04 97.348 1397.48 97.817 1397.73 98.4573C1397.99 99.094 1397.98 99.7082 1397.7 100.3C1397.43 100.898 1396.96 101.306 1396.3 101.524C1395.65 101.737 1395.01 101.696 1394.37 101.398ZM1398.64 125.052C1397.08 124.322 1395.88 123.358 1395.04 122.16C1394.22 120.958 1393.78 119.614 1393.72 118.129C1393.66 116.637 1394 115.098 1394.75 113.511C1395.49 111.91 1396.46 110.656 1397.63 109.747C1398.81 108.832 1400.13 108.306 1401.58 108.169C1403.03 108.03 1404.55 108.325 1406.12 109.054C1407.68 109.784 1408.88 110.75 1409.7 111.952C1410.53 113.151 1410.98 114.496 1411.04 115.988C1411.1 117.473 1410.75 119.016 1410 120.616C1409.26 122.203 1408.3 123.454 1407.12 124.37C1405.94 125.279 1404.63 125.803 1403.17 125.943C1401.72 126.079 1400.21 125.782 1398.64 125.052ZM1400.22 121.733C1400.93 122.065 1401.62 122.141 1402.29 121.96C1402.96 121.772 1403.58 121.381 1404.15 120.788C1404.73 120.198 1405.23 119.452 1405.65 118.551C1406.07 117.65 1406.32 116.788 1406.4 115.966C1406.49 115.148 1406.39 114.422 1406.1 113.789C1405.82 113.157 1405.32 112.674 1404.6 112.342C1403.88 112.007 1403.18 111.93 1402.5 112.112C1401.82 112.296 1401.2 112.684 1400.62 113.274C1400.05 113.867 1399.55 114.614 1399.13 115.515C1398.71 116.416 1398.45 117.276 1398.37 118.095C1398.29 118.917 1398.39 119.646 1398.69 120.282C1398.99 120.914 1399.5 121.398 1400.22 121.733ZM1417.69 122.649L1413.51 131.606L1409.21 129.604L1416.45 114.111L1420.54 116.018L1419.27 118.752L1419.45 118.837C1420.21 118.095 1421.12 117.65 1422.17 117.502C1423.23 117.346 1424.33 117.537 1425.48 118.072C1426.56 118.574 1427.39 119.246 1427.97 120.09C1428.55 120.933 1428.86 121.895 1428.89 122.976C1428.93 124.05 1428.67 125.189 1428.11 126.393L1423.5 136.258L1419.2 134.256L1423.45 125.158C1423.9 124.213 1424 123.36 1423.76 122.6C1423.52 121.834 1422.97 121.25 1422.11 120.849C1421.53 120.58 1420.96 120.466 1420.4 120.508C1419.85 120.553 1419.33 120.756 1418.86 121.118C1418.4 121.476 1418.01 121.986 1417.69 122.649Z" fill="white"/>
<rect x="213.77" y="168.635" width="318.518" height="76.8463" rx="38.4231" stroke="white" stroke-width="3.12339"/>
<path d="M239.679 194.11V193.768H245.768V194.11H244.092V217.37H245.768V217.712H239.679V217.37H241.253V194.11H239.679ZM262.702 217.712C261.767 217.712 261.049 217.506 260.547 217.096C260.069 216.686 259.818 216.275 259.795 215.865L259.761 215.283V204.543C259.761 202.741 259.293 201.59 258.358 201.088C257.879 200.86 257.287 200.746 256.58 200.746C255.12 200.746 253.809 201.327 252.646 202.49C251.483 203.631 250.902 204.657 250.902 205.569V217.712H248.507V200.609H250.902V204.508C251.289 203.528 252.008 202.616 253.056 201.772C254.105 200.905 255.257 200.472 256.511 200.472C257.765 200.472 258.78 200.598 259.555 200.848C260.354 201.077 260.935 201.407 261.3 201.84C261.87 202.547 262.155 203.459 262.155 204.577V215.283C262.155 215.944 262.28 216.457 262.531 216.822C262.805 217.164 263.079 217.347 263.352 217.37L263.729 217.438H264.789V217.712H262.702ZM269.453 199.001V200.609H272.156V200.883H269.453V217.712H267.059V200.883H266.341V200.609H267.059V199.001C267.059 196.516 267.595 194.749 268.667 193.7C269.738 192.628 271.471 192.081 273.866 192.058V192.331C272.292 192.354 271.164 192.89 270.48 193.939C269.795 194.965 269.453 196.653 269.453 199.001ZM282.301 217.848C279.907 217.848 277.957 217.164 276.452 215.796C274.947 214.428 274.195 212.319 274.195 209.468C274.195 206.618 274.97 204.406 276.52 202.832C278.094 201.259 280.078 200.472 282.472 200.472C284.889 200.472 286.85 201.156 288.355 202.525C289.861 203.893 290.613 206.002 290.613 208.853C290.613 211.703 289.826 213.915 288.253 215.488C286.702 217.062 284.718 217.848 282.301 217.848ZM282.541 200.746C280.808 200.746 279.371 201.521 278.231 203.072C277.091 204.6 276.52 206.743 276.52 209.502C276.52 212.239 277.045 214.268 278.094 215.591C279.143 216.914 280.534 217.575 282.267 217.575C284 217.575 285.437 216.811 286.577 215.283C287.717 213.732 288.287 211.589 288.287 208.853C288.287 206.093 287.763 204.052 286.714 202.73C285.665 201.407 284.274 200.746 282.541 200.746ZM299.2 202.08V201.362C298.174 201.772 297.239 202.604 296.395 203.859C295.551 205.09 295.107 206.253 295.061 207.347V217.712H292.667V200.609H295.061V206.048C295.426 204.725 296.121 203.482 297.148 202.319C298.174 201.134 299.337 200.518 300.637 200.472H300.773C301.229 200.472 301.606 200.632 301.902 200.951C302.221 201.248 302.381 201.624 302.381 202.08C302.381 202.536 302.221 202.912 301.902 203.209C301.606 203.505 301.229 203.653 300.773 203.653C300.317 203.653 299.941 203.505 299.645 203.209C299.348 202.912 299.2 202.536 299.2 202.08ZM325.585 204.543C325.585 203.152 325.403 202.171 325.038 201.601C324.673 201.031 323.977 200.746 322.951 200.746C321.583 200.746 320.363 201.316 319.291 202.456C318.242 203.596 317.718 204.622 317.718 205.535V217.712H315.323V204.543C315.323 203.152 315.141 202.171 314.776 201.601C314.411 201.031 313.636 200.746 312.45 200.746C311.264 200.746 310.136 201.293 309.064 202.388C308.015 203.482 307.445 204.497 307.354 205.432V217.712H304.959V200.609H307.354V204.474C307.718 203.494 308.391 202.582 309.372 201.738C310.352 200.894 311.447 200.472 312.655 200.472C313.864 200.472 314.822 200.586 315.529 200.814C316.258 201.02 316.771 201.35 317.068 201.806C317.364 202.262 317.547 202.661 317.615 203.003C317.684 203.345 317.718 203.824 317.718 204.44C318.083 203.459 318.744 202.559 319.702 201.738C320.659 200.894 321.686 200.472 322.78 200.472C323.875 200.472 324.753 200.563 325.414 200.746C326.075 200.928 326.566 201.134 326.885 201.362C327.227 201.59 327.478 201.92 327.637 202.354C327.82 202.787 327.922 203.14 327.945 203.414C327.968 203.688 327.979 204.075 327.979 204.577V215.283C327.979 215.944 328.105 216.457 328.356 216.822C328.629 217.164 328.903 217.347 329.177 217.37L329.553 217.438H330.613V217.712H328.527C327.592 217.712 326.873 217.506 326.372 217.096C325.893 216.686 325.642 216.275 325.619 215.865L325.585 215.283V204.543ZM345.775 217.712C344.225 217.712 343.164 217.415 342.594 216.822C342.07 216.321 341.808 215.887 341.808 215.523V214.804C340.69 216.834 338.9 217.848 336.437 217.848C333.564 217.848 331.934 216.549 331.546 213.949C331.5 213.675 331.478 213.402 331.478 213.128C331.478 212.832 331.523 212.512 331.614 212.17C331.706 211.828 331.968 211.452 332.401 211.042C333.268 210.221 335.172 209.719 338.113 209.537C338.843 209.468 339.516 209.434 340.132 209.434C340.747 209.434 341.306 209.457 341.808 209.502V203.824C341.762 203.802 341.762 203.699 341.808 203.516C341.853 203.311 341.808 203.06 341.671 202.764C341.557 202.445 341.397 202.137 341.192 201.84C340.987 201.544 340.622 201.293 340.097 201.088C339.573 200.86 338.889 200.746 338.045 200.746C337.201 200.746 336.209 200.905 335.069 201.225C333.952 201.521 333.131 201.818 332.606 202.114L332.47 201.875C334.499 200.94 336.563 200.472 338.661 200.472C341.009 200.472 342.56 200.894 343.313 201.738C343.906 202.399 344.202 203.095 344.202 203.824V215.283C344.202 215.944 344.327 216.457 344.578 216.822C344.852 217.164 345.126 217.347 345.399 217.37L345.775 217.438H346.836V217.712H345.775ZM336.985 217.575C338.193 217.575 339.276 217.164 340.234 216.343C341.215 215.5 341.739 214.69 341.808 213.915V209.776C341.192 209.73 340.565 209.708 339.926 209.708C339.311 209.708 338.695 209.742 338.079 209.81C336.346 210.015 335.217 210.403 334.693 210.973C334.168 211.543 333.906 212.33 333.906 213.333C333.906 213.516 333.918 213.721 333.94 213.949C334.146 216.366 335.16 217.575 336.985 217.575ZM349.215 200.883V200.609H349.933V197.189H352.328V200.609H357.561V200.883H352.328V213.333C352.328 214.816 352.487 215.887 352.806 216.549C353.149 217.21 353.844 217.541 354.893 217.541C355.965 217.541 357.048 217.324 358.142 216.891L358.245 217.164C357.105 217.598 355.794 217.814 354.312 217.814C352.852 217.814 351.758 217.518 351.028 216.925C350.298 216.309 349.933 215.101 349.933 213.299V200.883H349.215ZM363.263 217.712C362.328 217.712 361.61 217.506 361.108 217.096C360.63 216.686 360.379 216.275 360.356 215.865L360.322 215.283V200.609H362.716V215.283C362.716 215.944 362.842 216.457 363.092 216.822C363.366 217.164 363.628 217.347 363.879 217.37L364.29 217.438H365.35V217.712H363.263ZM360.527 196.778C360.253 196.504 360.117 196.162 360.117 195.752C360.117 195.341 360.253 194.999 360.527 194.726C360.801 194.429 361.143 194.281 361.553 194.281C361.964 194.281 362.306 194.429 362.579 194.726C362.876 194.999 363.024 195.341 363.024 195.752C363.024 196.162 362.876 196.504 362.579 196.778C362.306 197.052 361.964 197.189 361.553 197.189C361.143 197.189 360.801 197.052 360.527 196.778ZM374.495 217.848C372.101 217.848 370.151 217.164 368.646 215.796C367.141 214.428 366.388 212.319 366.388 209.468C366.388 206.618 367.164 204.406 368.714 202.832C370.288 201.259 372.272 200.472 374.666 200.472C377.083 200.472 379.044 201.156 380.549 202.525C382.054 203.893 382.807 206.002 382.807 208.853C382.807 211.703 382.02 213.915 380.447 215.488C378.896 217.062 376.912 217.848 374.495 217.848ZM374.734 200.746C373.001 200.746 371.565 201.521 370.425 203.072C369.284 204.6 368.714 206.743 368.714 209.502C368.714 212.239 369.239 214.268 370.288 215.591C371.337 216.914 372.728 217.575 374.461 217.575C376.194 217.575 377.63 216.811 378.771 215.283C379.911 213.732 380.481 211.589 380.481 208.853C380.481 206.093 379.956 204.052 378.907 202.73C377.859 201.407 376.468 200.746 374.734 200.746ZM399.056 217.712C398.121 217.712 397.402 217.506 396.901 217.096C396.422 216.686 396.171 216.275 396.148 215.865L396.114 215.283V204.543C396.114 202.741 395.647 201.59 394.712 201.088C394.233 200.86 393.64 200.746 392.933 200.746C391.474 200.746 390.162 201.327 388.999 202.49C387.836 203.631 387.255 204.657 387.255 205.569V217.712H384.861V200.609H387.255V204.508C387.643 203.528 388.361 202.616 389.41 201.772C390.459 200.905 391.61 200.472 392.865 200.472C394.119 200.472 395.134 200.598 395.909 200.848C396.707 201.077 397.288 201.407 397.653 201.84C398.223 202.547 398.508 203.459 398.508 204.577V215.283C398.508 215.944 398.634 216.457 398.885 216.822C399.158 217.164 399.432 217.347 399.706 217.37L400.082 217.438H401.142V217.712H399.056ZM416.849 193.802C417.852 193.757 418.833 193.734 419.791 193.734C420.771 193.734 421.797 193.836 422.869 194.042C423.964 194.247 425.036 194.635 426.085 195.205C427.156 195.752 428.057 196.47 428.787 197.36C429.539 198.226 430.144 199.378 430.6 200.814C431.056 202.251 431.284 203.995 431.284 206.048C431.284 208.1 430.942 209.947 430.258 211.589C429.596 213.208 428.684 214.451 427.521 215.317C425.264 217.005 422.539 217.848 419.346 217.848C418.229 217.848 417.054 217.803 415.823 217.712H414.113V193.802H416.849ZM416.952 217.438C417.431 217.484 418.035 217.506 418.765 217.506C419.494 217.506 420.042 217.495 420.406 217.472C420.771 217.449 421.273 217.358 421.912 217.199C422.55 217.016 423.143 216.777 423.69 216.48C424.237 216.184 424.808 215.751 425.4 215.18C426.016 214.588 426.541 213.892 426.974 213.094C427.954 211.224 428.445 208.784 428.445 205.774C428.445 203.631 428.182 201.783 427.658 200.233C427.134 198.659 426.529 197.496 425.845 196.744C425.184 195.991 424.374 195.398 423.417 194.965C422.459 194.509 421.695 194.247 421.125 194.178C420.555 194.11 419.893 194.076 419.141 194.076C418.388 194.076 417.659 194.11 416.952 194.178V217.438ZM436.357 209.366C436.357 212.193 436.847 214.268 437.827 215.591C438.831 216.914 440.142 217.575 441.761 217.575C444.041 217.575 446.071 217.233 447.85 216.549L447.952 216.788C446.128 217.495 444.064 217.848 441.761 217.848C439.481 217.848 437.622 217.164 436.186 215.796C434.749 214.428 434.031 212.319 434.031 209.468C434.031 206.618 434.783 204.406 436.288 202.832C437.793 201.259 439.709 200.472 442.035 200.472C443.905 200.472 445.478 201.031 446.755 202.148C448.032 203.266 448.67 204.919 448.67 207.108C448.67 207.222 448.67 207.336 448.67 207.45H436.459C436.391 208.066 436.357 208.704 436.357 209.366ZM446.344 207.176C446.322 204.987 445.9 203.368 445.079 202.319C444.258 201.27 443.198 200.746 441.898 200.746C440.598 200.746 439.435 201.316 438.409 202.456C437.406 203.596 436.767 205.17 436.493 207.176H446.344ZM461.088 201.806C460.723 201.51 460.13 201.259 459.309 201.054C458.511 200.848 457.907 200.746 457.496 200.746C457.086 200.746 456.846 200.746 456.778 200.746C455.546 200.769 454.657 201.088 454.11 201.704C453.563 202.297 453.289 202.969 453.289 203.722C453.289 204.474 453.528 205.113 454.007 205.637C454.486 206.139 455.079 206.538 455.786 206.834C456.516 207.108 457.291 207.427 458.112 207.792C458.956 208.157 459.731 208.533 460.438 208.921C461.168 209.286 461.772 209.833 462.251 210.563C462.73 211.27 462.969 212.159 462.969 213.231C462.969 214.303 462.593 215.215 461.84 215.967C461.088 216.72 460.244 217.221 459.309 217.472C458.397 217.723 457.405 217.848 456.333 217.848C454.007 217.848 452.263 217.335 451.1 216.309L451.305 216.104C451.761 216.537 452.434 216.891 453.323 217.164C454.235 217.438 455.113 217.575 455.957 217.575C457.302 217.575 458.408 217.21 459.275 216.48C460.164 215.728 460.609 214.804 460.609 213.71C460.609 212.592 460.278 211.703 459.617 211.042C458.956 210.358 458.146 209.833 457.188 209.468C456.253 209.081 455.307 208.704 454.349 208.339C453.392 207.952 452.582 207.427 451.921 206.766C451.259 206.082 450.929 205.295 450.929 204.406C450.929 203.516 451.134 202.798 451.544 202.251C451.955 201.681 452.502 201.282 453.186 201.054C454.349 200.666 455.512 200.472 456.675 200.472C458.636 200.472 460.164 200.837 461.259 201.567L461.088 201.806ZM468.351 217.712C467.416 217.712 466.698 217.506 466.196 217.096C465.717 216.686 465.466 216.275 465.444 215.865L465.409 215.283V200.609H467.804V215.283C467.804 215.944 467.929 216.457 468.18 216.822C468.454 217.164 468.716 217.347 468.967 217.37L469.377 217.438H470.438V217.712H468.351ZM465.615 196.778C465.341 196.504 465.204 196.162 465.204 195.752C465.204 195.341 465.341 194.999 465.615 194.726C465.888 194.429 466.23 194.281 466.641 194.281C467.051 194.281 467.393 194.429 467.667 194.726C467.963 194.999 468.112 195.341 468.112 195.752C468.112 196.162 467.963 196.504 467.667 196.778C467.393 197.052 467.051 197.189 466.641 197.189C466.23 197.189 465.888 197.052 465.615 196.778ZM472.34 209.776C472.34 206.812 473.059 204.52 474.495 202.901C475.932 201.282 478.087 200.472 480.96 200.472C483.081 200.472 485.236 200.848 487.425 201.601V218.122C487.402 223.549 485.031 226.263 480.31 226.263C477.711 226.263 475.487 225.419 473.64 223.732L473.88 223.527C475.841 225.168 477.984 225.989 480.31 225.989C483.457 225.989 485.031 223.367 485.031 218.122V214.736C484.597 215.534 483.879 216.241 482.876 216.857C481.872 217.472 480.687 217.78 479.318 217.78C474.666 217.666 472.34 214.998 472.34 209.776ZM479.353 217.506C480.88 217.506 482.192 217.096 483.286 216.275C484.381 215.454 484.962 214.645 485.031 213.846V201.772C483.389 201.088 481.998 200.746 480.858 200.746C478.828 200.746 477.3 201.544 476.274 203.14C475.248 204.714 474.735 206.926 474.735 209.776C474.735 214.93 476.274 217.506 479.353 217.506ZM505.88 217.712C504.945 217.712 504.227 217.506 503.725 217.096C503.247 216.686 502.996 216.275 502.973 215.865L502.939 215.283V204.543C502.939 202.741 502.471 201.59 501.536 201.088C501.057 200.86 500.464 200.746 499.758 200.746C498.298 200.746 496.987 201.327 495.824 202.49C494.661 203.631 494.08 204.657 494.08 205.569V217.712H491.685V200.609H494.08V204.508C494.467 203.528 495.185 202.616 496.234 201.772C497.283 200.905 498.435 200.472 499.689 200.472C500.943 200.472 501.958 200.598 502.733 200.848C503.532 201.077 504.113 201.407 504.478 201.84C505.048 202.547 505.333 203.459 505.333 204.577V215.283C505.333 215.944 505.458 216.457 505.709 216.822C505.983 217.164 506.257 217.347 506.53 217.37L506.906 217.438H507.967V217.712H505.88Z" fill="white"/>
<rect x="504.426" y="67.2405" width="255.455" height="76.8463" rx="38.4231" stroke="white" stroke-width="3.12339"/>
<path d="M557.259 93.2754L550.213 117.048H545.801L540.807 99.0561L535.505 117.048L531.127 117.082L524.388 93.2754H528.527L533.453 112.636L538.789 93.2754H543.167L548.127 112.533L553.086 93.2754H557.259ZM562.459 95.704C561.753 95.704 561.16 95.4646 560.681 94.9857C560.202 94.5068 559.962 93.9139 559.962 93.207C559.962 92.5001 560.202 91.9072 560.681 91.4284C561.16 90.9495 561.753 90.71 562.459 90.71C563.144 90.71 563.725 90.9495 564.204 91.4284C564.683 91.9072 564.922 92.5001 564.922 93.207C564.922 93.9139 564.683 94.5068 564.204 94.9857C563.725 95.4646 563.144 95.704 562.459 95.704ZM564.375 98.201V117.048H560.476V98.201H564.375ZM573.394 100.937C573.964 99.9797 574.716 99.2386 575.651 98.7141C576.609 98.1668 577.738 97.8932 579.038 97.8932V101.929H578.046C576.518 101.929 575.355 102.317 574.557 103.092C573.782 103.868 573.394 105.213 573.394 107.129V117.048H569.494V98.201H573.394V100.937ZM599.896 107.163C599.896 107.87 599.85 108.508 599.759 109.078H585.359C585.473 110.583 586.031 111.792 587.035 112.704C588.038 113.616 589.269 114.072 590.729 114.072C592.827 114.072 594.309 113.194 595.175 111.438H599.383C598.813 113.172 597.775 114.597 596.27 115.714C594.788 116.809 592.941 117.356 590.729 117.356C588.927 117.356 587.308 116.957 585.872 116.159C584.458 115.338 583.34 114.198 582.519 112.738C581.721 111.256 581.322 109.546 581.322 107.607C581.322 105.669 581.71 103.97 582.485 102.511C583.283 101.029 584.389 99.8885 585.803 99.0903C587.24 98.2922 588.882 97.8932 590.729 97.8932C592.507 97.8932 594.092 98.2808 595.483 99.0561C596.874 99.8315 597.957 100.926 598.733 102.34C599.508 103.731 599.896 105.338 599.896 107.163ZM595.825 105.931C595.803 104.495 595.289 103.343 594.286 102.477C593.283 101.61 592.04 101.177 590.558 101.177C589.212 101.177 588.061 101.61 587.103 102.477C586.145 103.32 585.575 104.472 585.393 105.931H595.825ZM611.635 101.382H608.146V117.048H604.212V101.382H601.989V98.201H604.212V96.867C604.212 94.7007 604.782 93.1272 605.922 92.1467C607.085 91.1433 608.898 90.6416 611.361 90.6416V93.8911C610.175 93.8911 609.343 94.1192 608.864 94.5752C608.385 95.0085 608.146 95.7724 608.146 96.867V98.201H611.635V101.382ZM618.99 100.937C619.56 99.9797 620.312 99.2386 621.247 98.7141C622.205 98.1668 623.334 97.8932 624.634 97.8932V101.929H623.642C622.114 101.929 620.951 102.317 620.153 103.092C619.377 103.868 618.99 105.213 618.99 107.129V117.048H615.09V98.201H618.99V100.937ZM626.918 107.539C626.918 105.646 627.306 103.97 628.081 102.511C628.879 101.051 629.951 99.9227 631.296 99.1245C632.665 98.3036 634.17 97.8932 635.812 97.8932C637.294 97.8932 638.582 98.1896 639.677 98.7825C640.794 99.3526 641.683 100.071 642.345 100.937V98.201H646.278V117.048H642.345V114.243C641.683 115.133 640.783 115.874 639.643 116.467C638.502 117.059 637.203 117.356 635.743 117.356C634.124 117.356 632.642 116.945 631.296 116.125C629.951 115.281 628.879 114.118 628.081 112.636C627.306 111.131 626.918 109.432 626.918 107.539ZM642.345 107.607C642.345 106.308 642.071 105.179 641.524 104.221C640.999 103.263 640.304 102.534 639.437 102.032C638.571 101.53 637.636 101.279 636.632 101.279C635.629 101.279 634.694 101.53 633.828 102.032C632.961 102.511 632.254 103.229 631.707 104.187C631.182 105.122 630.92 106.239 630.92 107.539C630.92 108.839 631.182 109.979 631.707 110.96C632.254 111.94 632.961 112.693 633.828 113.217C634.717 113.719 635.652 113.97 636.632 113.97C637.636 113.97 638.571 113.719 639.437 113.217C640.304 112.715 640.999 111.986 641.524 111.028C642.071 110.047 642.345 108.907 642.345 107.607ZM674.215 97.8932C675.697 97.8932 677.02 98.201 678.183 98.8167C679.369 99.4324 680.292 100.345 680.953 101.553C681.637 102.762 681.98 104.221 681.98 105.931V117.048H678.114V106.513C678.114 104.825 677.692 103.537 676.849 102.648C676.005 101.736 674.853 101.279 673.394 101.279C671.935 101.279 670.772 101.736 669.905 102.648C669.061 103.537 668.639 104.825 668.639 106.513V117.048H664.774V106.513C664.774 104.825 664.352 103.537 663.509 102.648C662.665 101.736 661.513 101.279 660.054 101.279C658.595 101.279 657.432 101.736 656.565 102.648C655.721 103.537 655.299 104.825 655.299 106.513V117.048H651.4V98.201H655.299V100.356C655.938 99.5806 656.747 98.9763 657.728 98.5431C658.709 98.1098 659.758 97.8932 660.875 97.8932C662.38 97.8932 663.725 98.2124 664.911 98.8509C666.097 99.4894 667.009 100.413 667.648 101.622C668.218 100.481 669.107 99.5806 670.316 98.9193C671.524 98.2352 672.824 97.8932 674.215 97.8932ZM688.925 95.704C688.218 95.704 687.626 95.4646 687.147 94.9857C686.668 94.5068 686.428 93.9139 686.428 93.207C686.428 92.5001 686.668 91.9072 687.147 91.4284C687.626 90.9495 688.218 90.71 688.925 90.71C689.609 90.71 690.191 90.9495 690.67 91.4284C691.149 91.9072 691.388 92.5001 691.388 93.207C691.388 93.9139 691.149 94.5068 690.67 94.9857C690.191 95.4646 689.609 95.704 688.925 95.704ZM690.841 98.201V117.048H686.941V98.201H690.841ZM705.469 97.8932C706.952 97.8932 708.274 98.201 709.437 98.8167C710.623 99.4324 711.547 100.345 712.208 101.553C712.869 102.762 713.2 104.221 713.2 105.931V117.048H709.335V106.513C709.335 104.825 708.913 103.537 708.069 102.648C707.225 101.736 706.074 101.279 704.614 101.279C703.155 101.279 701.992 101.736 701.125 102.648C700.282 103.537 699.86 104.825 699.86 106.513V117.048H695.96V98.201H699.86V100.356C700.498 99.5806 701.308 98.9763 702.288 98.5431C703.292 98.1098 704.352 97.8932 705.469 97.8932ZM725.767 97.8932C727.227 97.8932 728.515 98.1896 729.633 98.7825C730.773 99.3526 731.662 100.071 732.301 100.937V98.201H736.234V117.356C736.234 119.089 735.869 120.628 735.14 121.974C734.41 123.342 733.35 124.414 731.958 125.189C730.59 125.964 728.948 126.352 727.033 126.352C724.479 126.352 722.358 125.748 720.671 124.539C718.983 123.353 718.026 121.734 717.798 119.682H721.663C721.959 120.662 722.586 121.449 723.544 122.042C724.525 122.658 725.688 122.966 727.033 122.966C728.606 122.966 729.872 122.487 730.83 121.529C731.81 120.571 732.301 119.18 732.301 117.356V114.209C731.639 115.098 730.739 115.851 729.598 116.467C728.481 117.059 727.204 117.356 725.767 117.356C724.125 117.356 722.62 116.945 721.252 116.125C719.907 115.281 718.835 114.118 718.037 112.636C717.262 111.131 716.874 109.432 716.874 107.539C716.874 105.646 717.262 103.97 718.037 102.511C718.835 101.051 719.907 99.9227 721.252 99.1245C722.62 98.3036 724.125 97.8932 725.767 97.8932ZM732.301 107.607C732.301 106.308 732.027 105.179 731.48 104.221C730.955 103.263 730.26 102.534 729.393 102.032C728.527 101.53 727.592 101.279 726.588 101.279C725.585 101.279 724.65 101.53 723.783 102.032C722.917 102.511 722.21 103.229 721.663 104.187C721.138 105.122 720.876 106.239 720.876 107.539C720.876 108.839 721.138 109.979 721.663 110.96C722.21 111.94 722.917 112.693 723.783 113.217C724.673 113.719 725.608 113.97 726.588 113.97C727.592 113.97 728.527 113.719 729.393 113.217C730.26 112.715 730.955 111.986 731.48 111.028C732.027 110.047 732.301 108.907 732.301 107.607Z" fill="white"/>
<rect x="772.706" y="67.2405" width="230.872" height="76.8463" rx="38.4231" stroke="white" stroke-width="3.12339"/>
<path d="M788.676 114.327L793.738 90.3835H805.368C807.854 90.3835 809.906 91.022 811.525 92.299C813.144 93.5532 813.954 95.3432 813.954 97.6692C813.999 100.337 813.03 102.64 811.046 104.579C809.062 106.494 806.554 107.429 803.521 107.383H798.801L797.33 114.327H788.676ZM800.1 101.227H802.666C803.464 101.227 804.102 100.976 804.581 100.474C805.083 99.9723 805.334 99.3909 805.334 98.7296C805.334 97.4982 804.57 96.8825 803.042 96.8825H801.024L800.1 101.227ZM812.449 114.327L816.109 97.0535H823.566C823.223 98.9918 822.38 100.907 821.034 102.8H824.147C824.786 100.611 825.549 99.0146 826.439 98.0112C827.351 97.0079 828.457 96.5062 829.757 96.5062C830.372 96.5062 830.977 96.5746 831.57 96.7114L829.962 104.237C828.936 104.031 828.046 103.929 827.294 103.929C824.375 103.929 822.619 105.411 822.026 108.375L820.761 114.327H812.449ZM830.613 107.076C830.613 103.883 831.674 101.318 833.795 99.3795C835.938 97.4184 838.72 96.4378 842.141 96.4378C845.31 96.4378 847.762 97.1675 849.495 98.6269C851.251 100.064 852.129 102.025 852.129 104.51C852.129 107.68 851.08 110.211 848.982 112.104C846.884 113.996 844.125 114.943 840.704 114.943C837.511 114.943 835.026 114.247 833.247 112.856C831.491 111.465 830.613 109.538 830.613 107.076ZM843.406 104.202C843.406 102.492 842.893 101.637 841.867 101.637C841.092 101.637 840.476 102.207 840.02 103.347C839.564 104.465 839.336 105.753 839.336 107.212C839.336 108.125 839.45 108.786 839.678 109.196C839.906 109.584 840.282 109.778 840.807 109.778C841.605 109.778 842.232 109.219 842.688 108.102C843.167 106.962 843.406 105.662 843.406 104.202ZM854.345 109.641C854.345 109.025 854.436 108.227 854.618 107.247L855.679 102.184H852.566L853.661 97.0535H856.773L857.868 91.9227H865.838L864.743 97.0535H868.164L867.069 102.184H863.648L862.52 107.486C862.497 107.6 862.486 107.703 862.486 107.794C862.486 108.273 862.771 108.512 863.341 108.512H867.206L865.94 114.327H860.844C858.586 114.327 856.933 113.962 855.884 113.233C854.858 112.48 854.345 111.283 854.345 109.641ZM867.992 107.076C867.992 103.883 869.052 101.318 871.173 99.3795C873.317 97.4184 876.099 96.4378 879.519 96.4378C882.689 96.4378 885.14 97.1675 886.873 98.6269C888.629 100.064 889.507 102.025 889.507 104.51C889.507 107.68 888.458 110.211 886.36 112.104C884.262 113.996 881.503 114.943 878.083 114.943C874.89 114.943 872.405 114.247 870.626 112.856C868.87 111.465 867.992 109.538 867.992 107.076ZM880.785 104.202C880.785 102.492 880.272 101.637 879.246 101.637C878.47 101.637 877.855 102.207 877.398 103.347C876.942 104.465 876.714 105.753 876.714 107.212C876.714 108.125 876.828 108.786 877.056 109.196C877.284 109.584 877.661 109.778 878.185 109.778C878.983 109.778 879.61 109.219 880.066 108.102C880.545 106.962 880.785 105.662 880.785 104.202ZM902.58 97.0535H910.653L900.494 115.182C899.673 116.687 898.897 117.873 898.168 118.74C896.936 120.245 894.895 120.997 892.045 120.997H885.649L886.88 115.182H891.669C892.011 115.182 892.25 115.114 892.387 114.977C892.547 114.863 892.729 114.624 892.934 114.259L893.516 113.198L888.077 97.0535H896.321L896.936 100.132C897.05 100.748 897.107 101.409 897.107 102.116C897.107 103.986 896.708 106.517 895.91 109.709H898.339C899.046 105.514 899.992 102.218 901.178 99.8241L902.58 97.0535ZM906.546 120.997L911.643 97.0535H919.1C918.712 98.3761 918.017 99.5049 917.013 100.44L920.229 100.44C920.821 99.0944 921.449 98.0911 922.11 97.4298C922.794 96.7685 923.74 96.4378 924.949 96.4378C926.614 96.4378 927.948 97.0991 928.951 98.4217C929.977 99.7215 930.49 101.477 930.49 103.689C930.513 105.582 930.182 107.395 929.498 109.128C928.837 110.838 927.868 112.252 926.591 113.369C925.337 114.464 923.946 114.988 922.418 114.943C919.841 114.943 918.359 113.643 917.971 111.043H915.303C915.736 112.07 915.953 113.153 915.953 114.293C915.953 115.045 915.873 115.787 915.713 116.516L914.79 120.997H906.546ZM921.836 104.066C921.836 102.447 921.334 101.637 920.331 101.637C919.579 101.637 918.929 102.207 918.381 103.347C917.857 104.487 917.595 105.81 917.595 107.315C917.595 108.934 918.096 109.744 919.1 109.744C919.875 109.744 920.525 109.174 921.049 108.033C921.574 106.893 921.836 105.571 921.836 104.066ZM934.567 95.3432L935.832 89.3573H944.144L942.879 95.3432H934.567ZM930.496 114.327L934.19 97.0535H942.502L938.808 114.327L930.496 114.327ZM941.387 114.327L944.979 97.0535H952.162C951.843 98.4673 951.159 99.7899 950.11 101.021H953.12C954.306 97.9884 956.118 96.472 958.558 96.472C959.904 96.472 961.033 96.8939 961.945 97.7376C962.857 98.5813 963.313 99.8355 963.313 101.5C963.313 102.253 963.233 102.96 963.074 103.621L960.816 114.327H952.573L954.693 104.373C954.739 103.963 954.762 103.724 954.762 103.655C954.762 102.743 954.351 102.287 953.53 102.287C952.618 102.287 952.025 102.982 951.752 104.373L949.631 114.327H941.387ZM961.559 118.5C961.559 116.653 962.824 115.513 965.356 115.08L965.835 112.959C963.987 112.868 963.064 112.263 963.064 111.146C963.064 110.394 963.452 109.698 964.227 109.06C965.025 108.421 966.131 108.022 967.545 107.862L967.989 105.81C966.872 105.149 966.313 104.168 966.313 102.868C966.313 100.93 967.077 99.3795 968.605 98.2165C970.156 97.0307 972.151 96.4378 974.591 96.4378C976.849 96.4378 978.593 96.8597 979.824 97.7034C981.079 98.5243 981.786 99.6645 981.945 101.124H983.895C984.351 98.4103 985.491 97.0535 987.315 97.0535H988.684L987.486 102.697H984.579C983.827 102.697 983.313 103.085 983.04 103.86L982.8 104.476C982.23 106.004 981.273 107.11 979.927 107.794C978.582 108.455 976.678 108.786 974.215 108.786C972.482 108.786 971.034 108.512 969.871 107.965C969.369 108.33 969.118 108.695 969.118 109.06C969.118 109.675 969.643 109.983 970.692 109.983H977.738C979.699 109.983 981.25 110.428 982.39 111.317C983.553 112.184 984.134 113.347 984.134 114.806C984.134 116.699 983.473 118.204 982.15 119.321C980.851 120.438 978.992 120.997 976.575 120.997H965.732C962.95 120.997 961.559 120.165 961.559 118.5ZM976.746 102.184C976.746 101.591 976.609 101.135 976.336 100.816C976.085 100.474 975.743 100.303 975.309 100.303C974.762 100.303 974.295 100.599 973.907 101.192C973.542 101.785 973.36 102.526 973.36 103.416C973.36 104.67 973.816 105.297 974.728 105.297C975.275 105.297 975.743 104.989 976.13 104.373C976.541 103.758 976.746 103.028 976.746 102.184ZM969.187 116.208H975.412C976.279 116.208 976.712 115.866 976.712 115.182C976.712 114.612 976.358 114.327 975.651 114.327H968.434C968.069 114.624 967.887 114.988 967.887 115.422C967.887 115.946 968.32 116.208 969.187 116.208Z" fill="white"/>
<rect x="880.735" y="168.635" width="313.173" height="76.8463" rx="38.4231" stroke="white" stroke-width="3.12339"/>
<path d="M928.361 202.544H923.041C922.943 201.856 922.745 201.245 922.445 200.71C922.146 200.168 921.761 199.706 921.291 199.325C920.822 198.945 920.279 198.653 919.664 198.451C919.056 198.248 918.396 198.147 917.684 198.147C916.396 198.147 915.275 198.467 914.319 199.107C913.364 199.738 912.623 200.662 912.096 201.876C911.57 203.083 911.307 204.549 911.307 206.273C911.307 208.047 911.57 209.537 912.096 210.743C912.631 211.95 913.376 212.861 914.331 213.476C915.287 214.092 916.392 214.4 917.647 214.4C918.352 214.4 919.004 214.306 919.603 214.12C920.21 213.934 920.749 213.663 921.219 213.306C921.688 212.942 922.077 212.501 922.385 211.982C922.7 211.464 922.919 210.873 923.041 210.209L928.361 210.233C928.223 211.375 927.879 212.476 927.328 213.537C926.786 214.59 926.053 215.533 925.13 216.367C924.215 217.193 923.122 217.849 921.85 218.335C920.587 218.813 919.158 219.052 917.562 219.052C915.344 219.052 913.36 218.55 911.61 217.546C909.869 216.541 908.493 215.088 907.481 213.185C906.476 211.282 905.974 208.978 905.974 206.273C905.974 203.561 906.485 201.253 907.505 199.35C908.525 197.447 909.91 195.997 911.659 195.001C913.408 193.997 915.376 193.495 917.562 193.495C919.004 193.495 920.34 193.697 921.571 194.102C922.81 194.507 923.907 195.098 924.863 195.876C925.818 196.645 926.595 197.588 927.195 198.706C927.802 199.823 928.191 201.103 928.361 202.544ZM940.465 219.076C938.578 219.076 936.947 218.675 935.57 217.874C934.201 217.064 933.145 215.938 932.4 214.497C931.655 213.047 931.282 211.367 931.282 209.456C931.282 207.529 931.655 205.844 932.4 204.403C933.145 202.953 934.201 201.828 935.57 201.026C936.947 200.216 938.578 199.811 940.465 199.811C942.352 199.811 943.98 200.216 945.348 201.026C946.725 201.828 947.785 202.953 948.53 204.403C949.275 205.844 949.648 207.529 949.648 209.456C949.648 211.367 949.275 213.047 948.53 214.497C947.785 215.938 946.725 217.064 945.348 217.874C943.98 218.675 942.352 219.076 940.465 219.076ZM940.489 215.068C941.348 215.068 942.064 214.825 942.639 214.339C943.214 213.845 943.648 213.173 943.939 212.322C944.239 211.472 944.388 210.505 944.388 209.419C944.388 208.334 944.239 207.367 943.939 206.516C943.648 205.666 943.214 204.994 942.639 204.5C942.064 204.006 941.348 203.759 940.489 203.759C939.623 203.759 938.894 204.006 938.303 204.5C937.72 204.994 937.279 205.666 936.979 206.516C936.687 207.367 936.542 208.334 936.542 209.419C936.542 210.505 936.687 211.472 936.979 212.322C937.279 213.173 937.72 213.845 938.303 214.339C938.894 214.825 939.623 215.068 940.489 215.068ZM953.013 218.712V200.054H957.944V203.346H958.163C958.552 202.253 959.199 201.39 960.106 200.759C961.013 200.127 962.098 199.811 963.362 199.811C964.641 199.811 965.73 200.131 966.629 200.771C967.528 201.403 968.127 202.261 968.427 203.346H968.621C969.002 202.277 969.69 201.423 970.686 200.783C971.69 200.135 972.877 199.811 974.245 199.811C975.986 199.811 977.399 200.366 978.484 201.475C979.578 202.577 980.124 204.14 980.124 206.164V218.712H974.962V207.184C974.962 206.148 974.687 205.37 974.136 204.852C973.585 204.334 972.897 204.075 972.071 204.075C971.132 204.075 970.399 204.374 969.872 204.974C969.346 205.565 969.083 206.346 969.083 207.318V218.712H964.066V207.075C964.066 206.16 963.803 205.431 963.277 204.889C962.758 204.346 962.074 204.075 961.224 204.075C960.649 204.075 960.131 204.221 959.669 204.512C959.216 204.796 958.855 205.196 958.588 205.715C958.321 206.225 958.187 206.824 958.187 207.512V218.712H953.013ZM984.212 218.712V200.054H989.143V203.346H989.362C989.75 202.253 990.398 201.39 991.305 200.759C992.212 200.127 993.297 199.811 994.561 199.811C995.84 199.811 996.929 200.131 997.828 200.771C998.727 201.403 999.326 202.261 999.626 203.346H999.82C1000.2 202.277 1000.89 201.423 1001.89 200.783C1002.89 200.135 1004.08 199.811 1005.44 199.811C1007.19 199.811 1008.6 200.366 1009.68 201.475C1010.78 202.577 1011.32 204.14 1011.32 206.164V218.712H1006.16V207.184C1006.16 206.148 1005.89 205.37 1005.33 204.852C1004.78 204.334 1004.1 204.075 1003.27 204.075C1002.33 204.075 1001.6 204.374 1001.07 204.974C1000.54 205.565 1000.28 206.346 1000.28 207.318V218.712H995.265V207.075C995.265 206.16 995.002 205.431 994.476 204.889C993.957 204.346 993.273 204.075 992.423 204.075C991.848 204.075 991.33 204.221 990.868 204.512C990.415 204.796 990.054 205.196 989.787 205.715C989.52 206.225 989.386 206.824 989.386 207.512V218.712H984.212ZM1027.38 210.768V200.054H1032.55V218.712H1027.58V215.323H1027.39C1026.97 216.416 1026.27 217.295 1025.29 217.959C1024.31 218.623 1023.13 218.955 1021.73 218.955C1020.48 218.955 1019.38 218.671 1018.44 218.104C1017.49 217.537 1016.75 216.732 1016.21 215.687C1015.69 214.643 1015.42 213.391 1015.41 211.934V200.054H1020.59V211.011C1020.59 212.112 1020.89 212.982 1021.47 213.622C1022.05 214.262 1022.84 214.582 1023.82 214.582C1024.44 214.582 1025.02 214.44 1025.57 214.157C1026.11 213.865 1026.55 213.436 1026.88 212.869C1027.22 212.302 1027.38 211.602 1027.38 210.768ZM1041.86 207.925V218.712H1036.69V200.054H1041.62V203.346H1041.84C1042.25 202.261 1042.94 201.403 1043.92 200.771C1044.89 200.131 1046.07 199.811 1047.45 199.811C1048.75 199.811 1049.88 200.095 1050.84 200.662C1051.8 201.228 1052.55 202.038 1053.09 203.091C1053.62 204.136 1053.89 205.383 1053.89 206.832V218.712H1048.71V207.755C1048.72 206.614 1048.43 205.723 1047.84 205.083C1047.25 204.435 1046.43 204.111 1045.4 204.111C1044.7 204.111 1044.09 204.261 1043.55 204.561C1043.03 204.86 1042.61 205.298 1042.31 205.873C1042.02 206.439 1041.87 207.124 1041.86 207.925ZM1057.97 218.712V200.054H1063.14V218.712H1057.97ZM1060.57 197.649C1059.8 197.649 1059.14 197.394 1058.59 196.884C1058.04 196.366 1057.77 195.746 1057.77 195.026C1057.77 194.313 1058.04 193.702 1058.59 193.191C1059.14 192.673 1059.8 192.414 1060.57 192.414C1061.34 192.414 1061.99 192.673 1062.53 193.191C1063.08 193.702 1063.36 194.313 1063.36 195.026C1063.36 195.746 1063.08 196.366 1062.53 196.884C1061.99 197.394 1061.34 197.649 1060.57 197.649ZM1075.72 219.076C1073.81 219.076 1072.16 218.671 1070.78 217.861C1069.42 217.044 1068.36 215.91 1067.63 214.46C1066.9 213.011 1066.53 211.343 1066.53 209.456C1066.53 207.545 1066.9 205.869 1067.64 204.427C1068.38 202.978 1069.44 201.848 1070.81 201.038C1072.18 200.22 1073.81 199.811 1075.69 199.811C1077.32 199.811 1078.74 200.107 1079.97 200.698C1081.19 201.289 1082.16 202.119 1082.87 203.188C1083.58 204.257 1083.98 205.512 1084.05 206.954H1079.17C1079.03 206.022 1078.66 205.273 1078.07 204.706C1077.49 204.132 1076.72 203.844 1075.78 203.844C1074.98 203.844 1074.27 204.063 1073.68 204.5C1073.08 204.929 1072.62 205.557 1072.29 206.383C1071.96 207.209 1071.79 208.209 1071.79 209.383C1071.79 210.573 1071.95 211.586 1072.28 212.42C1072.61 213.254 1073.08 213.889 1073.68 214.327C1074.27 214.764 1074.98 214.983 1075.78 214.983C1076.37 214.983 1076.9 214.861 1077.37 214.618C1077.85 214.375 1078.24 214.023 1078.55 213.561C1078.86 213.092 1079.07 212.529 1079.17 211.873H1084.05C1083.97 213.298 1083.58 214.553 1082.88 215.639C1082.19 216.716 1081.24 217.558 1080.03 218.165C1078.81 218.772 1077.38 219.076 1075.72 219.076ZM1092.68 219.064C1091.49 219.064 1090.43 218.857 1089.5 218.444C1088.57 218.023 1087.83 217.404 1087.29 216.586C1086.75 215.76 1086.49 214.732 1086.49 213.501C1086.49 212.464 1086.68 211.594 1087.06 210.889C1087.44 210.185 1087.96 209.618 1088.61 209.189C1089.27 208.759 1090.01 208.436 1090.85 208.217C1091.69 207.998 1092.57 207.844 1093.5 207.755C1094.58 207.642 1095.46 207.537 1096.12 207.439C1096.78 207.334 1097.27 207.18 1097.57 206.978C1097.86 206.775 1098.01 206.476 1098.01 206.079V206.006C1098.01 205.237 1097.77 204.642 1097.29 204.221C1096.81 203.8 1096.13 203.589 1095.25 203.589C1094.31 203.589 1093.57 203.795 1093.02 204.208C1092.47 204.613 1092.11 205.124 1091.93 205.739L1087.14 205.35C1087.39 204.217 1087.86 203.237 1088.58 202.411C1089.29 201.577 1090.21 200.937 1091.33 200.492C1092.47 200.038 1093.78 199.811 1095.27 199.811C1096.31 199.811 1097.3 199.933 1098.25 200.176C1099.2 200.419 1100.05 200.795 1100.78 201.305C1101.53 201.816 1102.12 202.471 1102.55 203.273C1102.97 204.067 1103.19 205.018 1103.19 206.128V218.712H1098.28V216.124H1098.14C1097.84 216.707 1097.44 217.222 1096.93 217.667C1096.43 218.104 1095.83 218.448 1095.12 218.7C1094.42 218.942 1093.61 219.064 1092.68 219.064ZM1094.16 215.493C1094.93 215.493 1095.6 215.343 1096.18 215.043C1096.76 214.736 1097.22 214.323 1097.55 213.804C1097.88 213.286 1098.05 212.699 1098.05 212.043V210.063C1097.89 210.168 1097.67 210.266 1097.38 210.355C1097.11 210.436 1096.8 210.513 1096.45 210.585C1096.1 210.65 1095.75 210.711 1095.4 210.768C1095.05 210.816 1094.74 210.861 1094.46 210.901C1093.85 210.99 1093.32 211.132 1092.86 211.326C1092.41 211.521 1092.06 211.784 1091.81 212.116C1091.56 212.44 1091.43 212.845 1091.43 213.331C1091.43 214.035 1091.69 214.574 1092.2 214.946C1092.71 215.311 1093.37 215.493 1094.16 215.493ZM1117.13 200.054V203.941H1105.89V200.054H1117.13ZM1108.44 195.584H1113.62V212.978C1113.62 213.456 1113.69 213.829 1113.84 214.096C1113.98 214.355 1114.18 214.537 1114.44 214.643C1114.71 214.748 1115.02 214.8 1115.37 214.8C1115.61 214.8 1115.85 214.78 1116.09 214.74C1116.34 214.691 1116.52 214.655 1116.65 214.63L1117.47 218.481C1117.21 218.562 1116.84 218.655 1116.37 218.76C1115.9 218.874 1115.33 218.942 1114.66 218.967C1113.41 219.015 1112.32 218.849 1111.38 218.469C1110.45 218.088 1109.73 217.497 1109.21 216.695C1108.69 215.894 1108.43 214.881 1108.44 213.659V195.584ZM1120.5 218.712V200.054H1125.67V218.712H1120.5ZM1123.1 197.649C1122.33 197.649 1121.67 197.394 1121.12 196.884C1120.58 196.366 1120.3 195.746 1120.3 195.026C1120.3 194.313 1120.58 193.702 1121.12 193.191C1121.67 192.673 1122.33 192.414 1123.1 192.414C1123.87 192.414 1124.52 192.673 1125.07 193.191C1125.62 193.702 1125.89 194.313 1125.89 195.026C1125.89 195.746 1125.62 196.366 1125.07 196.884C1124.52 197.394 1123.87 197.649 1123.1 197.649ZM1138.25 219.076C1136.36 219.076 1134.73 218.675 1133.35 217.874C1131.98 217.064 1130.93 215.938 1130.18 214.497C1129.44 213.047 1129.06 211.367 1129.06 209.456C1129.06 207.529 1129.44 205.844 1130.18 204.403C1130.93 202.953 1131.98 201.828 1133.35 201.026C1134.73 200.216 1136.36 199.811 1138.25 199.811C1140.13 199.811 1141.76 200.216 1143.13 201.026C1144.51 201.828 1145.57 202.953 1146.31 204.403C1147.06 205.844 1147.43 207.529 1147.43 209.456C1147.43 211.367 1147.06 213.047 1146.31 214.497C1145.57 215.938 1144.51 217.064 1143.13 217.874C1141.76 218.675 1140.13 219.076 1138.25 219.076ZM1138.27 215.068C1139.13 215.068 1139.85 214.825 1140.42 214.339C1141 213.845 1141.43 213.173 1141.72 212.322C1142.02 211.472 1142.17 210.505 1142.17 209.419C1142.17 208.334 1142.02 207.367 1141.72 206.516C1141.43 205.666 1141 204.994 1140.42 204.5C1139.85 204.006 1139.13 203.759 1138.27 203.759C1137.41 203.759 1136.68 204.006 1136.09 204.5C1135.5 204.994 1135.06 205.666 1134.76 206.516C1134.47 207.367 1134.32 208.334 1134.32 209.419C1134.32 210.505 1134.47 211.472 1134.76 212.322C1135.06 213.173 1135.5 213.845 1136.09 214.339C1136.68 214.825 1137.41 215.068 1138.27 215.068ZM1155.97 207.925V218.712H1150.8V200.054H1155.73V203.346H1155.95C1156.36 202.261 1157.05 201.403 1158.02 200.771C1158.99 200.131 1160.17 199.811 1161.56 199.811C1162.85 199.811 1163.98 200.095 1164.95 200.662C1165.91 201.228 1166.66 202.038 1167.19 203.091C1167.73 204.136 1167.99 205.383 1167.99 206.832V218.712H1162.82V207.755C1162.83 206.614 1162.54 205.723 1161.95 205.083C1161.35 204.435 1160.54 204.111 1159.5 204.111C1158.81 204.111 1158.19 204.261 1157.66 204.561C1157.13 204.86 1156.72 205.298 1156.42 205.873C1156.13 206.439 1155.98 207.124 1155.97 207.925Z" fill="white"/>
<rect x="1016.4" y="67.2405" width="212.701" height="76.8463" rx="38.4231" stroke="white" stroke-width="3.12339"/>
<path d="M1058.65 92.4411H1062.41V108.803C1062.41 110.544 1062 112.086 1061.19 113.431C1060.37 114.767 1059.22 115.82 1057.74 116.589C1056.26 117.35 1054.52 117.731 1052.53 117.731C1050.54 117.731 1048.81 117.35 1047.33 116.589C1045.85 115.82 1044.7 114.767 1043.88 113.431C1043.06 112.086 1042.65 110.544 1042.65 108.803V92.4411H1046.4V108.499C1046.4 109.625 1046.65 110.625 1047.15 111.499C1047.65 112.374 1048.36 113.062 1049.27 113.564C1050.19 114.058 1051.27 114.305 1052.53 114.305C1053.79 114.305 1054.88 114.058 1055.79 113.564C1056.72 113.062 1057.42 112.374 1057.91 111.499C1058.4 110.625 1058.65 109.625 1058.65 108.499V92.4411ZM1081.56 103.215L1078.27 103.798C1078.13 103.377 1077.91 102.976 1077.61 102.596C1077.32 102.215 1076.92 101.903 1076.42 101.66C1075.92 101.418 1075.29 101.296 1074.54 101.296C1073.51 101.296 1072.65 101.527 1071.96 101.988C1071.28 102.442 1070.93 103.029 1070.93 103.75C1070.93 104.373 1071.16 104.875 1071.62 105.256C1072.09 105.637 1072.83 105.948 1073.86 106.191L1076.82 106.871C1078.54 107.268 1079.82 107.88 1080.66 108.706C1081.5 109.532 1081.92 110.605 1081.92 111.924C1081.92 113.042 1081.6 114.038 1080.95 114.913C1080.31 115.779 1079.42 116.459 1078.27 116.953C1077.13 117.447 1075.8 117.694 1074.3 117.694C1072.21 117.694 1070.5 117.249 1069.18 116.358C1067.86 115.459 1067.05 114.184 1066.75 112.532L1070.26 111.997C1070.48 112.912 1070.93 113.605 1071.61 114.074C1072.29 114.536 1073.18 114.767 1074.27 114.767C1075.46 114.767 1076.41 114.52 1077.13 114.026C1077.84 113.524 1078.2 112.912 1078.2 112.192C1078.2 111.609 1077.98 111.119 1077.54 110.722C1077.11 110.325 1076.45 110.026 1075.56 109.823L1072.4 109.131C1070.66 108.734 1069.37 108.102 1068.54 107.236C1067.71 106.369 1067.3 105.272 1067.3 103.944C1067.3 102.843 1067.61 101.879 1068.22 101.053C1068.84 100.227 1069.69 99.5834 1070.77 99.1218C1071.86 98.6521 1073.1 98.4173 1074.5 98.4173C1076.52 98.4173 1078.11 98.8546 1079.26 99.7291C1080.42 100.596 1081.19 101.758 1081.56 103.215ZM1093.96 117.694C1092.12 117.694 1090.54 117.301 1089.21 116.516C1087.89 115.722 1086.87 114.609 1086.15 113.176C1085.44 111.734 1085.08 110.046 1085.08 108.11C1085.08 106.199 1085.44 104.515 1086.15 103.057C1086.87 101.6 1087.87 100.462 1089.16 99.6441C1090.46 98.8262 1091.97 98.4173 1093.7 98.4173C1094.76 98.4173 1095.78 98.5914 1096.76 98.9396C1097.75 99.2878 1098.64 99.8344 1099.42 100.579C1100.21 101.324 1100.83 102.292 1101.28 103.482C1101.74 104.665 1101.96 106.102 1101.96 107.795V109.082H1087.13V106.361H1098.4C1098.4 105.406 1098.21 104.559 1097.82 103.823C1097.43 103.078 1096.89 102.49 1096.18 102.061C1095.49 101.632 1094.67 101.418 1093.73 101.418C1092.71 101.418 1091.82 101.669 1091.06 102.171C1090.3 102.665 1089.72 103.312 1089.31 104.114C1088.9 104.908 1088.7 105.77 1088.7 106.701V108.827C1088.7 110.074 1088.92 111.135 1089.36 112.009C1089.8 112.884 1090.42 113.552 1091.21 114.014C1092.01 114.467 1092.93 114.694 1094 114.694C1094.68 114.694 1095.31 114.597 1095.88 114.402C1096.44 114.2 1096.93 113.9 1097.35 113.504C1097.76 113.107 1098.08 112.617 1098.3 112.034L1101.73 112.653C1101.46 113.666 1100.96 114.552 1100.25 115.313C1099.55 116.067 1098.66 116.654 1097.59 117.075C1096.53 117.488 1095.32 117.694 1093.96 117.694ZM1105.99 117.318V98.6602H1109.5V101.624H1109.7C1110.04 100.62 1110.64 99.8304 1111.5 99.2554C1112.36 98.6724 1113.34 98.3808 1114.44 98.3808C1114.66 98.3808 1114.93 98.3889 1115.24 98.4051C1115.55 98.4213 1115.8 98.4416 1115.98 98.4659V101.94C1115.83 101.899 1115.57 101.855 1115.2 101.806C1114.83 101.75 1114.46 101.721 1114.08 101.721C1113.22 101.721 1112.46 101.903 1111.79 102.268C1111.12 102.624 1110.6 103.122 1110.21 103.762C1109.82 104.393 1109.63 105.114 1109.63 105.924V117.318H1105.99ZM1128.46 117.318V92.4411H1143.89V95.6721H1132.22V103.252H1142.79V106.471H1132.22V117.318H1128.46ZM1151.85 92.4411V117.318H1148.22V92.4411H1151.85ZM1164.59 117.694C1162.84 117.694 1161.32 117.293 1160.01 116.492C1158.71 115.69 1157.7 114.568 1156.98 113.127C1156.26 111.686 1155.9 110.001 1155.9 108.074C1155.9 106.139 1156.26 104.446 1156.98 102.997C1157.7 101.547 1158.71 100.421 1160.01 99.6198C1161.32 98.8181 1162.84 98.4173 1164.59 98.4173C1166.34 98.4173 1167.87 98.8181 1169.17 99.6198C1170.48 100.421 1171.49 101.547 1172.21 102.997C1172.93 104.446 1173.29 106.139 1173.29 108.074C1173.29 110.001 1172.93 111.686 1172.21 113.127C1171.49 114.568 1170.48 115.69 1169.17 116.492C1167.87 117.293 1166.34 117.694 1164.59 117.694ZM1164.6 114.645C1165.74 114.645 1166.68 114.346 1167.42 113.746C1168.17 113.147 1168.72 112.35 1169.07 111.354C1169.44 110.358 1169.62 109.26 1169.62 108.062C1169.62 106.871 1169.44 105.778 1169.07 104.782C1168.72 103.778 1168.17 102.972 1167.42 102.365C1166.68 101.758 1165.74 101.454 1164.6 101.454C1163.46 101.454 1162.52 101.758 1161.76 102.365C1161.02 102.972 1160.46 103.778 1160.1 104.782C1159.74 105.778 1159.56 106.871 1159.56 108.062C1159.56 109.26 1159.74 110.358 1160.1 111.354C1160.46 112.35 1161.02 113.147 1161.76 113.746C1162.52 114.346 1163.46 114.645 1164.6 114.645ZM1180.82 117.318L1175.33 98.6602H1179.08L1182.74 112.362H1182.92L1186.59 98.6602H1190.34L1193.99 112.301H1194.17L1197.8 98.6602H1201.55L1196.08 117.318H1192.37L1188.58 103.847H1188.3L1184.51 117.318H1180.82Z" fill="white"/>
<rect x="545.113" y="168.635" width="322.793" height="76.8463" rx="38.4231" fill="white" stroke="white" stroke-width="3.12339"/>
<path d="M596.298 201.925H592.509C592.363 201.115 592.092 200.402 591.695 199.787C591.298 199.172 590.812 198.649 590.237 198.22C589.662 197.791 589.018 197.467 588.306 197.248C587.601 197.03 586.852 196.92 586.059 196.92C584.625 196.92 583.342 197.281 582.208 198.001C581.083 198.722 580.192 199.779 579.536 201.172C578.888 202.565 578.564 204.265 578.564 206.273C578.564 208.298 578.888 210.006 579.536 211.399C580.192 212.792 581.087 213.845 582.22 214.557C583.354 215.27 584.629 215.626 586.047 215.626C586.832 215.626 587.577 215.521 588.282 215.311C588.994 215.092 589.638 214.772 590.213 214.351C590.788 213.93 591.274 213.416 591.671 212.808C592.075 212.193 592.355 211.488 592.509 210.695L596.298 210.707C596.096 211.93 595.703 213.055 595.12 214.084C594.545 215.104 593.804 215.987 592.897 216.732C591.999 217.469 590.97 218.04 589.812 218.444C588.654 218.849 587.391 219.052 586.022 219.052C583.868 219.052 581.949 218.542 580.265 217.521C578.58 216.493 577.252 215.023 576.281 213.112C575.317 211.201 574.835 208.921 574.835 206.273C574.835 203.617 575.321 201.338 576.293 199.435C577.264 197.524 578.593 196.058 580.277 195.038C581.961 194.009 583.876 193.495 586.022 193.495C587.342 193.495 588.573 193.685 589.715 194.066C590.865 194.438 591.897 194.989 592.812 195.718C593.727 196.439 594.485 197.321 595.084 198.366C595.683 199.402 596.088 200.589 596.298 201.925ZM600.498 218.712V200.054H604.009V203.018H604.203C604.543 202.014 605.142 201.224 606.001 200.649C606.867 200.066 607.847 199.775 608.94 199.775C609.167 199.775 609.434 199.783 609.742 199.799C610.058 199.815 610.305 199.836 610.483 199.86V203.334C610.337 203.293 610.078 203.249 609.705 203.2C609.333 203.144 608.96 203.115 608.588 203.115C607.73 203.115 606.964 203.297 606.292 203.662C605.628 204.018 605.102 204.516 604.713 205.156C604.324 205.788 604.13 206.508 604.13 207.318V218.712H600.498ZM613.626 218.712V200.054H617.258V218.712H613.626ZM615.46 197.175C614.828 197.175 614.286 196.965 613.832 196.544C613.387 196.115 613.164 195.604 613.164 195.013C613.164 194.414 613.387 193.904 613.832 193.483C614.286 193.054 614.828 192.839 615.46 192.839C616.092 192.839 616.63 193.054 617.075 193.483C617.529 193.904 617.756 194.414 617.756 195.013C617.756 195.604 617.529 196.115 617.075 196.544C616.63 196.965 616.092 197.175 615.46 197.175ZM630.853 200.054V202.969H620.662V200.054H630.853ZM623.395 195.584H627.027V213.233C627.027 213.938 627.132 214.468 627.343 214.825C627.553 215.173 627.824 215.412 628.156 215.541C628.496 215.663 628.865 215.724 629.262 215.724C629.553 215.724 629.808 215.703 630.027 215.663C630.246 215.622 630.416 215.59 630.537 215.566L631.193 218.566C630.982 218.647 630.683 218.728 630.294 218.809C629.905 218.898 629.42 218.947 628.837 218.955C627.881 218.971 626.99 218.801 626.164 218.444C625.338 218.088 624.67 217.537 624.16 216.792C623.65 216.047 623.395 215.112 623.395 213.987V195.584ZM634.87 218.712V200.054H638.502V218.712H634.87ZM636.705 197.175C636.073 197.175 635.53 196.965 635.077 196.544C634.632 196.115 634.409 195.604 634.409 195.013C634.409 194.414 634.632 193.904 635.077 193.483C635.53 193.054 636.073 192.839 636.705 192.839C637.336 192.839 637.875 193.054 638.32 193.483C638.774 193.904 639 194.414 639 195.013C639 195.604 638.774 196.115 638.32 196.544C637.875 196.965 637.336 197.175 636.705 197.175ZM651.247 219.088C649.442 219.088 647.887 218.679 646.583 217.861C645.287 217.035 644.291 215.898 643.595 214.448C642.898 212.999 642.55 211.339 642.55 209.468C642.55 207.573 642.907 205.901 643.619 204.451C644.332 202.994 645.336 201.856 646.632 201.038C647.927 200.22 649.454 199.811 651.211 199.811C652.628 199.811 653.891 200.075 655.001 200.601C656.11 201.119 657.005 201.848 657.685 202.787C658.373 203.727 658.782 204.824 658.912 206.079H655.377C655.183 205.204 654.737 204.451 654.041 203.82C653.353 203.188 652.43 202.872 651.272 202.872C650.259 202.872 649.373 203.14 648.611 203.674C647.858 204.2 647.271 204.953 646.85 205.933C646.429 206.905 646.219 208.055 646.219 209.383C646.219 210.743 646.425 211.918 646.838 212.906C647.251 213.893 647.834 214.659 648.587 215.201C649.348 215.744 650.243 216.015 651.272 216.015C651.96 216.015 652.583 215.89 653.142 215.639C653.709 215.379 654.183 215.011 654.563 214.533C654.952 214.055 655.223 213.48 655.377 212.808H658.912C658.782 214.015 658.39 215.092 657.734 216.039C657.078 216.987 656.199 217.732 655.098 218.274C654.005 218.817 652.721 219.088 651.247 219.088ZM668.225 219.125C667.043 219.125 665.974 218.906 665.019 218.469C664.063 218.023 663.306 217.38 662.747 216.537C662.197 215.695 661.921 214.663 661.921 213.44C661.921 212.387 662.124 211.521 662.529 210.841C662.934 210.16 663.48 209.622 664.168 209.225C664.857 208.828 665.626 208.529 666.476 208.326C667.327 208.124 668.193 207.97 669.076 207.865C670.193 207.735 671.1 207.63 671.797 207.549C672.493 207.46 672.999 207.318 673.315 207.124C673.631 206.929 673.789 206.614 673.789 206.176V206.091C673.789 205.03 673.489 204.208 672.89 203.625C672.299 203.042 671.416 202.751 670.242 202.751C669.019 202.751 668.055 203.022 667.351 203.565C666.654 204.099 666.173 204.694 665.905 205.35L662.492 204.573C662.897 203.439 663.488 202.524 664.266 201.828C665.051 201.123 665.954 200.613 666.974 200.297C667.995 199.973 669.068 199.811 670.193 199.811C670.938 199.811 671.728 199.9 672.562 200.079C673.404 200.249 674.189 200.564 674.918 201.026C675.655 201.488 676.258 202.148 676.728 203.006C677.198 203.856 677.433 204.962 677.433 206.322V218.712H673.886V216.161H673.74C673.505 216.631 673.153 217.092 672.683 217.546C672.214 217.999 671.61 218.376 670.873 218.675C670.137 218.975 669.254 219.125 668.225 219.125ZM669.015 216.209C670.019 216.209 670.877 216.011 671.59 215.614C672.311 215.217 672.857 214.699 673.23 214.059C673.611 213.412 673.801 212.719 673.801 211.982V209.577C673.671 209.707 673.42 209.828 673.048 209.942C672.683 210.047 672.266 210.14 671.797 210.221C671.327 210.294 670.869 210.363 670.424 210.428C669.979 210.484 669.606 210.533 669.307 210.573C668.602 210.662 667.958 210.812 667.375 211.023C666.8 211.233 666.339 211.537 665.99 211.934C665.65 212.322 665.48 212.841 665.48 213.489C665.48 214.387 665.812 215.068 666.476 215.529C667.14 215.983 667.987 216.209 669.015 216.209ZM685.902 193.835V218.712H682.27V193.835H685.902ZM698.905 197.066V193.835H718.158V197.066H710.396V218.712H706.655V197.066H698.905ZM725.752 207.634V218.712H722.121V193.835H725.704V203.091H725.935C726.372 202.087 727.04 201.289 727.939 200.698C728.838 200.107 730.012 199.811 731.461 199.811C732.741 199.811 733.858 200.075 734.814 200.601C735.778 201.127 736.523 201.913 737.049 202.957C737.583 203.994 737.851 205.29 737.851 206.844V218.712H734.219V207.282C734.219 205.913 733.866 204.852 733.162 204.099C732.457 203.338 731.478 202.957 730.222 202.957C729.364 202.957 728.595 203.14 727.915 203.504C727.242 203.868 726.712 204.403 726.323 205.107C725.943 205.804 725.752 206.646 725.752 207.634ZM742.697 218.712V200.054H746.329V218.712H742.697ZM744.531 197.175C743.9 197.175 743.357 196.965 742.904 196.544C742.458 196.115 742.236 195.604 742.236 195.013C742.236 194.414 742.458 193.904 742.904 193.483C743.357 193.054 743.9 192.839 744.531 192.839C745.163 192.839 745.701 193.054 746.147 193.483C746.6 193.904 746.827 194.414 746.827 195.013C746.827 195.604 746.6 196.115 746.147 196.544C745.701 196.965 745.163 197.175 744.531 197.175ZM754.847 207.634V218.712H751.215V200.054H754.701V203.091H754.932C755.361 202.103 756.033 201.309 756.948 200.71C757.872 200.111 759.034 199.811 760.434 199.811C761.706 199.811 762.819 200.079 763.775 200.613C764.73 201.139 765.471 201.925 765.998 202.969C766.524 204.014 766.787 205.306 766.787 206.844V218.712H763.155V207.282C763.155 205.929 762.803 204.872 762.099 204.111C761.394 203.342 760.426 202.957 759.196 202.957C758.353 202.957 757.604 203.14 756.948 203.504C756.301 203.868 755.786 204.403 755.406 205.107C755.033 205.804 754.847 206.646 754.847 207.634ZM774.998 212.383L774.974 207.95H775.606L783.04 200.054H787.388L778.91 209.043H778.339L774.998 212.383ZM771.658 218.712V193.835H775.29V218.712H771.658ZM783.44 218.712L776.76 209.845L779.262 207.306L787.898 218.712H783.44ZM790.698 218.712V200.054H794.33V218.712H790.698ZM792.532 197.175C791.901 197.175 791.358 196.965 790.905 196.544C790.459 196.115 790.237 195.604 790.237 195.013C790.237 194.414 790.459 193.904 790.905 193.483C791.358 193.054 791.901 192.839 792.532 192.839C793.164 192.839 793.702 193.054 794.148 193.483C794.601 193.904 794.828 194.414 794.828 195.013C794.828 195.604 794.601 196.115 794.148 196.544C793.702 196.965 793.164 197.175 792.532 197.175ZM802.848 207.634V218.712H799.216V200.054H802.702V203.091H802.933C803.362 202.103 804.034 201.309 804.949 200.71C805.872 200.111 807.034 199.811 808.435 199.811C809.707 199.811 810.82 200.079 811.776 200.613C812.731 201.139 813.472 201.925 813.999 202.969C814.525 204.014 814.788 205.306 814.788 206.844V218.712H811.156V207.282C811.156 205.929 810.804 204.872 810.1 204.111C809.395 203.342 808.427 202.957 807.196 202.957C806.354 202.957 805.605 203.14 804.949 203.504C804.301 203.868 803.787 204.403 803.407 205.107C803.034 205.804 802.848 206.646 802.848 207.634ZM827.482 226.097C826 226.097 824.724 225.903 823.655 225.514C822.594 225.125 821.728 224.611 821.056 223.971C820.384 223.331 819.882 222.631 819.55 221.87L822.671 220.582C822.89 220.939 823.182 221.315 823.546 221.712C823.918 222.117 824.421 222.461 825.052 222.744C825.692 223.028 826.514 223.17 827.518 223.17C828.895 223.17 830.032 222.833 830.931 222.161C831.83 221.497 832.279 220.437 832.279 218.979V215.311H832.049C831.83 215.707 831.514 216.149 831.101 216.635C830.696 217.12 830.138 217.542 829.425 217.898C828.712 218.254 827.785 218.432 826.643 218.432C825.17 218.432 823.842 218.088 822.659 217.4C821.485 216.703 820.554 215.679 819.865 214.327C819.185 212.966 818.845 211.294 818.845 209.31C818.845 207.326 819.181 205.626 819.853 204.208C820.534 202.791 821.465 201.706 822.647 200.953C823.829 200.192 825.17 199.811 826.668 199.811C827.826 199.811 828.761 200.006 829.474 200.394C830.186 200.775 830.741 201.22 831.138 201.731C831.543 202.241 831.854 202.69 832.073 203.079H832.34V200.054H835.899V219.125C835.899 220.728 835.527 222.044 834.782 223.072C834.037 224.101 833.029 224.862 831.757 225.356C830.494 225.85 829.069 226.097 827.482 226.097ZM827.445 215.42C828.49 215.42 829.372 215.177 830.093 214.691C830.822 214.197 831.373 213.493 831.745 212.578C832.126 211.654 832.316 210.549 832.316 209.261C832.316 208.006 832.13 206.901 831.757 205.945C831.385 204.99 830.838 204.245 830.117 203.71C829.397 203.168 828.506 202.897 827.445 202.897C826.352 202.897 825.441 203.18 824.712 203.747C823.983 204.306 823.433 205.067 823.06 206.03C822.696 206.994 822.513 208.071 822.513 209.261C822.513 210.484 822.7 211.557 823.072 212.48C823.445 213.404 823.995 214.124 824.724 214.643C825.461 215.161 826.368 215.42 827.445 215.42Z" fill="#09181B"/>
<rect x="200.872" y="67.2405" width="290.728" height="76.8463" rx="38.4231" fill="white" stroke="white" stroke-width="3.12339"/>
<path d="M241.914 92.4406H247.174V108.596C247.174 110.41 246.741 111.997 245.874 113.357C245.016 114.718 243.813 115.779 242.266 116.54C240.72 117.293 238.918 117.669 236.861 117.669C234.796 117.669 232.99 117.293 231.444 116.54C229.897 115.779 228.695 114.718 227.836 113.357C226.978 111.997 226.549 110.41 226.549 108.596V92.4406H231.808V108.146C231.808 109.094 232.015 109.936 232.428 110.673C232.849 111.41 233.44 111.989 234.201 112.41C234.962 112.831 235.849 113.041 236.861 113.041C237.882 113.041 238.768 112.831 239.521 112.41C240.283 111.989 240.87 111.41 241.283 110.673C241.704 109.936 241.914 109.094 241.914 108.146V92.4406ZM266.927 103.98L262.19 104.272C262.109 103.867 261.935 103.502 261.668 103.178C261.401 102.846 261.048 102.583 260.611 102.389C260.182 102.186 259.668 102.085 259.068 102.085C258.267 102.085 257.591 102.255 257.04 102.595C256.489 102.927 256.214 103.373 256.214 103.931C256.214 104.377 256.392 104.753 256.748 105.061C257.105 105.369 257.716 105.616 258.583 105.802L261.959 106.482C263.773 106.855 265.126 107.454 266.016 108.28C266.907 109.106 267.353 110.191 267.353 111.535C267.353 112.758 266.992 113.831 266.272 114.754C265.559 115.677 264.579 116.398 263.332 116.916C262.093 117.426 260.664 117.682 259.044 117.682C256.574 117.682 254.607 117.167 253.141 116.139C251.683 115.102 250.829 113.693 250.578 111.912L255.667 111.645C255.821 112.398 256.194 112.973 256.785 113.369C257.376 113.758 258.133 113.952 259.056 113.952C259.963 113.952 260.692 113.778 261.243 113.43C261.802 113.074 262.085 112.616 262.093 112.058C262.085 111.588 261.887 111.203 261.498 110.904C261.109 110.596 260.51 110.361 259.7 110.199L256.469 109.555C254.647 109.191 253.291 108.559 252.4 107.66C251.517 106.762 251.076 105.616 251.076 104.223C251.076 103.024 251.4 101.992 252.048 101.126C252.704 100.259 253.623 99.591 254.805 99.1213C255.995 98.6516 257.388 98.4168 258.983 98.4168C261.34 98.4168 263.194 98.9148 264.547 99.9108C265.907 100.907 266.701 102.263 266.927 103.98ZM279.114 117.682C277.194 117.682 275.543 117.293 274.158 116.515C272.781 115.73 271.72 114.621 270.975 113.187C270.23 111.746 269.858 110.041 269.858 108.073C269.858 106.154 270.23 104.47 270.975 103.02C271.72 101.571 272.769 100.441 274.121 99.6315C275.482 98.8217 277.077 98.4168 278.907 98.4168C280.138 98.4168 281.284 98.6152 282.345 99.012C283.414 99.4007 284.345 99.9878 285.138 100.773C285.94 101.559 286.564 102.547 287.009 103.737C287.454 104.919 287.677 106.304 287.677 107.891V109.312H271.923V106.106H282.806C282.806 105.361 282.644 104.701 282.32 104.126C281.996 103.551 281.547 103.101 280.972 102.777C280.405 102.445 279.745 102.279 278.992 102.279C278.207 102.279 277.51 102.462 276.903 102.826C276.304 103.182 275.834 103.664 275.494 104.272C275.154 104.871 274.98 105.539 274.972 106.276V109.325C274.972 110.248 275.142 111.045 275.482 111.717C275.83 112.39 276.32 112.908 276.952 113.272C277.583 113.637 278.332 113.819 279.199 113.819C279.774 113.819 280.3 113.738 280.778 113.576C281.256 113.414 281.664 113.171 282.005 112.847C282.345 112.523 282.604 112.126 282.782 111.657L287.568 111.973C287.325 113.122 286.827 114.127 286.074 114.985C285.329 115.835 284.365 116.499 283.183 116.977C282.009 117.447 280.652 117.682 279.114 117.682ZM291.054 117.317V98.6597H296.071V101.915H296.265C296.605 100.757 297.176 99.8825 297.978 99.2914C298.779 98.6921 299.702 98.3925 300.747 98.3925C301.006 98.3925 301.286 98.4087 301.585 98.4411C301.885 98.4735 302.148 98.518 302.375 98.5747V103.166C302.132 103.093 301.796 103.029 301.367 102.972C300.937 102.915 300.545 102.887 300.188 102.887C299.427 102.887 298.747 103.053 298.148 103.385C297.556 103.709 297.087 104.162 296.739 104.745C296.398 105.328 296.228 106 296.228 106.762V117.317H291.054ZM313.064 117.317V92.4406H322.878C324.757 92.4406 326.36 92.7767 327.689 93.4488C329.025 94.1128 330.041 95.0562 330.737 96.279C331.442 97.4936 331.794 98.9229 331.794 100.567C331.794 102.219 331.438 103.64 330.725 104.83C330.013 106.013 328.98 106.92 327.628 107.551C326.284 108.183 324.656 108.499 322.745 108.499H316.173V104.272H321.895C322.899 104.272 323.733 104.134 324.397 103.859C325.061 103.583 325.555 103.17 325.879 102.62C326.211 102.069 326.377 101.385 326.377 100.567C326.377 99.7408 326.211 99.0444 325.879 98.4775C325.555 97.9107 325.057 97.4815 324.385 97.19C323.721 96.8904 322.882 96.7405 321.87 96.7405H318.323V117.317H313.064ZM326.498 105.996L332.681 117.317H326.875L320.826 105.996H326.498ZM343.616 117.682C341.697 117.682 340.045 117.293 338.66 116.515C337.283 115.73 336.223 114.621 335.478 113.187C334.733 111.746 334.36 110.041 334.36 108.073C334.36 106.154 334.733 104.47 335.478 103.02C336.223 101.571 337.271 100.441 338.624 99.6315C339.984 98.8217 341.579 98.4168 343.409 98.4168C344.64 98.4168 345.786 98.6152 346.847 99.012C347.916 99.4007 348.847 99.9878 349.641 100.773C350.442 101.559 351.066 102.547 351.511 103.737C351.957 104.919 352.179 106.304 352.179 107.891V109.312H336.425V106.106H347.309C347.309 105.361 347.147 104.701 346.823 104.126C346.499 103.551 346.049 103.101 345.474 102.777C344.908 102.445 344.248 102.279 343.494 102.279C342.709 102.279 342.013 102.462 341.405 102.826C340.806 103.182 340.336 103.664 339.996 104.272C339.656 104.871 339.482 105.539 339.474 106.276V109.325C339.474 110.248 339.644 111.045 339.984 111.717C340.332 112.39 340.822 112.908 341.454 113.272C342.085 113.637 342.835 113.819 343.701 113.819C344.276 113.819 344.802 113.738 345.28 113.576C345.758 113.414 346.167 113.171 346.507 112.847C346.847 112.523 347.106 112.126 347.284 111.657L352.07 111.973C351.827 113.122 351.329 114.127 350.576 114.985C349.831 115.835 348.867 116.499 347.685 116.977C346.511 117.447 345.155 117.682 343.616 117.682ZM371.08 103.98L366.343 104.272C366.262 103.867 366.087 103.502 365.82 103.178C365.553 102.846 365.201 102.583 364.763 102.389C364.334 102.186 363.82 102.085 363.221 102.085C362.419 102.085 361.743 102.255 361.192 102.595C360.642 102.927 360.366 103.373 360.366 103.931C360.366 104.377 360.544 104.753 360.901 105.061C361.257 105.369 361.868 105.616 362.735 105.802L366.112 106.482C367.926 106.855 369.278 107.454 370.169 108.28C371.06 109.106 371.505 110.191 371.505 111.535C371.505 112.758 371.145 113.831 370.424 114.754C369.711 115.677 368.731 116.398 367.484 116.916C366.245 117.426 364.816 117.682 363.197 117.682C360.727 117.682 358.759 117.167 357.293 116.139C355.836 115.102 354.981 113.693 354.73 111.912L359.82 111.645C359.974 112.398 360.346 112.973 360.937 113.369C361.528 113.758 362.286 113.952 363.209 113.952C364.116 113.952 364.844 113.778 365.395 113.43C365.954 113.074 366.237 112.616 366.245 112.058C366.237 111.588 366.039 111.203 365.65 110.904C365.261 110.596 364.662 110.361 363.852 110.199L360.621 109.555C358.799 109.191 357.443 108.559 356.552 107.66C355.67 106.762 355.228 105.616 355.228 104.223C355.228 103.024 355.552 101.992 356.2 101.126C356.856 100.259 357.775 99.591 358.957 99.1213C360.148 98.6516 361.541 98.4168 363.136 98.4168C365.492 98.4168 367.347 98.9148 368.699 99.9108C370.059 100.907 370.853 102.263 371.08 103.98ZM383.266 117.682C381.347 117.682 379.695 117.293 378.31 116.515C376.933 115.73 375.873 114.621 375.128 113.187C374.383 111.746 374.01 110.041 374.01 108.073C374.01 106.154 374.383 104.47 375.128 103.02C375.873 101.571 376.921 100.441 378.274 99.6315C379.634 98.8217 381.229 98.4168 383.059 98.4168C384.29 98.4168 385.436 98.6152 386.497 99.012C387.566 99.4007 388.497 99.9878 389.291 100.773C390.092 101.559 390.716 102.547 391.161 103.737C391.607 104.919 391.829 106.304 391.829 107.891V109.312L376.075 109.312V106.106L386.959 106.106C386.959 105.361 386.797 104.701 386.473 104.126C386.149 103.551 385.699 103.101 385.124 102.777C384.558 102.445 383.898 102.279 383.145 102.279C382.359 102.279 381.663 102.462 381.055 102.826C380.456 103.182 379.986 103.664 379.646 104.272C379.306 104.871 379.132 105.539 379.124 106.276V109.325C379.124 110.248 379.294 111.045 379.634 111.717C379.982 112.39 380.472 112.908 381.104 113.272C381.736 113.637 382.485 113.819 383.351 113.819C383.926 113.819 384.452 113.738 384.93 113.576C385.408 113.414 385.817 113.171 386.157 112.847C386.497 112.523 386.756 112.126 386.934 111.657L391.72 111.973C391.477 113.122 390.979 114.127 390.226 114.985C389.481 115.835 388.517 116.499 387.335 116.977C386.161 117.447 384.805 117.682 383.266 117.682ZM400.527 117.669C399.336 117.669 398.275 117.463 397.344 117.05C396.413 116.629 395.676 116.009 395.133 115.191C394.599 114.365 394.332 113.337 394.332 112.106C394.332 111.07 394.522 110.199 394.903 109.495C395.283 108.79 395.801 108.223 396.457 107.794C397.113 107.365 397.858 107.041 398.692 106.822C399.535 106.604 400.417 106.45 401.34 106.361C402.425 106.247 403.3 106.142 403.964 106.045C404.628 105.94 405.11 105.786 405.41 105.583C405.709 105.381 405.859 105.081 405.859 104.685V104.612C405.859 103.842 405.616 103.247 405.13 102.826C404.652 102.405 403.972 102.194 403.089 102.194C402.158 102.194 401.417 102.401 400.867 102.814C400.316 103.219 399.952 103.729 399.773 104.344L394.988 103.956C395.231 102.822 395.708 101.842 396.421 101.016C397.134 100.182 398.053 99.5424 399.178 99.097C400.312 98.6435 401.624 98.4168 403.114 98.4168C404.15 98.4168 405.142 98.5383 406.09 98.7812C407.045 99.0241 407.892 99.4007 408.628 99.9108C409.373 100.421 409.96 101.077 410.39 101.879C410.819 102.672 411.033 103.624 411.033 104.733V117.317H406.126V114.73H405.98C405.681 115.313 405.28 115.827 404.778 116.273C404.276 116.71 403.673 117.054 402.968 117.305C402.264 117.548 401.45 117.669 400.527 117.669ZM402.008 114.098C402.77 114.098 403.442 113.948 404.025 113.649C404.608 113.341 405.065 112.928 405.397 112.41C405.729 111.892 405.895 111.304 405.895 110.649V108.669C405.733 108.774 405.511 108.871 405.227 108.96C404.952 109.041 404.64 109.118 404.292 109.191C403.944 109.256 403.596 109.316 403.247 109.373C402.899 109.422 402.583 109.466 402.3 109.507C401.693 109.596 401.162 109.738 400.709 109.932C400.255 110.126 399.903 110.389 399.652 110.721C399.401 111.045 399.275 111.45 399.275 111.936C399.275 112.641 399.53 113.179 400.041 113.552C400.559 113.916 401.215 114.098 402.008 114.098ZM415.048 117.317V98.6597H420.065V101.915H420.259C420.599 100.757 421.17 99.8825 421.972 99.2914C422.773 98.6921 423.696 98.3925 424.741 98.3925C425 98.3925 425.28 98.4087 425.579 98.4411C425.879 98.4735 426.142 98.518 426.369 98.5747V103.166C426.126 103.093 425.79 103.029 425.361 102.972C424.931 102.915 424.539 102.887 424.182 102.887C423.421 102.887 422.741 103.053 422.142 103.385C421.551 103.709 421.081 104.162 420.733 104.745C420.393 105.328 420.222 106 420.222 106.762V117.317L415.048 117.317ZM436.605 117.682C434.694 117.682 433.05 117.277 431.674 116.467C430.305 115.649 429.253 114.515 428.516 113.066C427.787 111.616 427.422 109.948 427.422 108.061C427.422 106.15 427.791 104.474 428.528 103.033C429.273 101.583 430.33 100.453 431.698 99.6436C433.067 98.8257 434.694 98.4168 436.581 98.4168C438.209 98.4168 439.634 98.7124 440.857 99.3035C442.08 99.8946 443.047 100.725 443.76 101.794C444.472 102.863 444.865 104.118 444.938 105.559H440.055C439.917 104.628 439.553 103.879 438.962 103.312C438.379 102.737 437.614 102.45 436.666 102.45C435.864 102.45 435.164 102.668 434.565 103.105C433.974 103.535 433.512 104.162 433.18 104.988C432.848 105.814 432.682 106.814 432.682 107.988C432.682 109.179 432.844 110.191 433.168 111.025C433.5 111.859 433.966 112.495 434.565 112.932C435.164 113.369 435.864 113.588 436.666 113.588C437.257 113.588 437.788 113.467 438.257 113.224C438.735 112.981 439.128 112.628 439.436 112.167C439.751 111.697 439.958 111.134 440.055 110.479H444.938C444.857 111.904 444.468 113.159 443.772 114.244C443.084 115.321 442.132 116.163 440.918 116.771C439.703 117.378 438.265 117.682 436.605 117.682ZM453.426 106.531V117.317H448.251V92.4406H453.28V101.951H453.499C453.92 100.85 454.6 99.9878 455.539 99.3642C456.479 98.7326 457.657 98.4168 459.074 98.4168C460.37 98.4168 461.499 98.7002 462.463 99.2671C463.435 99.8258 464.188 100.632 464.722 101.684C465.265 102.729 465.532 103.98 465.524 105.438V117.317H460.349V106.361C460.357 105.211 460.066 104.316 459.475 103.676C458.892 103.037 458.074 102.717 457.021 102.717C456.317 102.717 455.693 102.867 455.15 103.166C454.616 103.466 454.195 103.903 453.887 104.478C453.588 105.045 453.434 105.729 453.426 106.531Z" fill="#09181B"/>
<path d="M135.613 202.88L137.492 208.786H137.564L139.447 202.88H141.269L138.589 210.654H136.471L133.787 202.88H135.613ZM142.174 210.654V204.823H143.791V210.654H142.174ZM142.986 204.072C142.746 204.072 142.54 203.992 142.368 203.833C142.198 203.671 142.113 203.477 142.113 203.252C142.113 203.029 142.198 202.838 142.368 202.679C142.54 202.517 142.746 202.436 142.986 202.436C143.227 202.436 143.432 202.517 143.601 202.679C143.773 202.838 143.859 203.029 143.859 203.252C143.859 203.477 143.773 203.671 143.601 203.833C143.432 203.992 143.227 204.072 142.986 204.072ZM149.937 206.486L148.457 206.577C148.432 206.451 148.377 206.337 148.294 206.236C148.21 206.132 148.1 206.05 147.964 205.989C147.83 205.926 147.669 205.894 147.482 205.894C147.231 205.894 147.02 205.947 146.848 206.053C146.676 206.157 146.59 206.296 146.59 206.471C146.59 206.61 146.645 206.728 146.757 206.824C146.868 206.92 147.059 206.997 147.33 207.055L148.385 207.268C148.952 207.384 149.374 207.572 149.653 207.83C149.931 208.088 150.07 208.427 150.07 208.847C150.07 209.229 149.958 209.565 149.732 209.853C149.51 210.141 149.204 210.367 148.814 210.529C148.427 210.688 147.98 210.768 147.474 210.768C146.702 210.768 146.087 210.607 145.629 210.286C145.174 209.962 144.907 209.521 144.828 208.965L146.419 208.881C146.467 209.117 146.583 209.296 146.768 209.42C146.953 209.542 147.189 209.602 147.478 209.602C147.761 209.602 147.989 209.548 148.161 209.439C148.336 209.328 148.424 209.185 148.427 209.01C148.424 208.864 148.362 208.743 148.241 208.65C148.119 208.554 147.932 208.48 147.679 208.43L146.669 208.228C146.1 208.115 145.676 207.917 145.398 207.636C145.122 207.355 144.984 206.997 144.984 206.562C144.984 206.187 145.085 205.865 145.288 205.594C145.493 205.323 145.78 205.115 146.149 204.968C146.521 204.821 146.956 204.748 147.455 204.748C148.191 204.748 148.771 204.903 149.193 205.214C149.619 205.526 149.867 205.95 149.937 206.486ZM154.827 208.171V204.823H156.445V210.654H154.892V209.595H154.831C154.7 209.937 154.481 210.211 154.175 210.419C153.871 210.626 153.5 210.73 153.062 210.73C152.673 210.73 152.33 210.641 152.034 210.464C151.738 210.287 151.506 210.035 151.339 209.709C151.175 209.382 151.091 208.991 151.089 208.536V204.823H152.706V208.247C152.708 208.592 152.801 208.864 152.983 209.063C153.165 209.263 153.409 209.363 153.715 209.363C153.91 209.363 154.092 209.319 154.262 209.23C154.431 209.139 154.568 209.005 154.672 208.828C154.778 208.651 154.83 208.432 154.827 208.171ZM159.401 210.764C159.029 210.764 158.697 210.699 158.406 210.57C158.115 210.439 157.885 210.245 157.715 209.99C157.548 209.732 157.465 209.41 157.465 209.026C157.465 208.702 157.524 208.43 157.643 208.209C157.762 207.989 157.924 207.812 158.129 207.678C158.334 207.544 158.567 207.443 158.827 207.374C159.091 207.306 159.366 207.258 159.655 207.23C159.994 207.195 160.267 207.162 160.475 207.131C160.682 207.098 160.833 207.05 160.926 206.987C161.02 206.924 161.067 206.83 161.067 206.706V206.683C161.067 206.443 160.991 206.257 160.839 206.125C160.69 205.994 160.477 205.928 160.201 205.928C159.91 205.928 159.679 205.993 159.507 206.122C159.335 206.248 159.221 206.408 159.165 206.6L157.67 206.478C157.746 206.124 157.895 205.818 158.118 205.56C158.34 205.299 158.627 205.099 158.979 204.96C159.333 204.818 159.743 204.748 160.209 204.748C160.533 204.748 160.843 204.786 161.139 204.861C161.438 204.937 161.702 205.055 161.932 205.214C162.165 205.374 162.349 205.579 162.483 205.829C162.617 206.077 162.684 206.375 162.684 206.721V210.654H161.15V209.845H161.105C161.011 210.028 160.886 210.188 160.729 210.327C160.572 210.464 160.384 210.572 160.164 210.65C159.943 210.726 159.689 210.764 159.401 210.764ZM159.864 209.648C160.102 209.648 160.312 209.601 160.494 209.508C160.676 209.411 160.819 209.282 160.923 209.12C161.026 208.958 161.078 208.775 161.078 208.57V207.951C161.028 207.984 160.958 208.015 160.87 208.042C160.784 208.068 160.686 208.092 160.577 208.115C160.468 208.135 160.36 208.154 160.251 208.171C160.142 208.187 160.043 208.201 159.955 208.213C159.765 208.241 159.599 208.285 159.457 208.346C159.316 208.407 159.206 208.489 159.127 208.593C159.049 208.694 159.01 208.821 159.01 208.972C159.01 209.193 159.089 209.361 159.249 209.477C159.411 209.591 159.616 209.648 159.864 209.648ZM165.556 202.88V210.654H163.939V202.88H165.556ZM171.709 210.768C171.172 210.768 170.709 210.672 170.319 210.479C169.93 210.287 169.63 210.026 169.42 209.697C169.212 209.366 169.108 208.996 169.108 208.589C169.108 208.285 169.169 208.016 169.291 207.78C169.412 207.545 169.582 207.329 169.799 207.131C170.017 206.931 170.27 206.733 170.558 206.535L172.065 205.545C172.26 205.421 172.403 205.29 172.494 205.154C172.585 205.015 172.631 204.864 172.631 204.702C172.631 204.548 172.569 204.405 172.445 204.273C172.321 204.141 172.145 204.077 171.917 204.08C171.766 204.08 171.634 204.114 171.523 204.182C171.411 204.248 171.324 204.335 171.261 204.444C171.2 204.55 171.17 204.669 171.17 204.801C171.17 204.963 171.215 205.127 171.306 205.294C171.397 205.461 171.519 205.638 171.671 205.826C171.823 206.01 171.988 206.21 172.168 206.425L175.854 210.654H174.168L171.094 207.23C170.891 207 170.689 206.759 170.486 206.509C170.286 206.256 170.119 205.988 169.985 205.704C169.851 205.418 169.784 205.108 169.784 204.774C169.784 204.397 169.871 204.058 170.046 203.757C170.223 203.456 170.471 203.218 170.79 203.043C171.109 202.866 171.481 202.778 171.906 202.778C172.321 202.778 172.679 202.862 172.98 203.032C173.284 203.199 173.517 203.422 173.679 203.7C173.843 203.976 173.925 204.279 173.925 204.611C173.925 204.978 173.834 205.311 173.652 205.609C173.472 205.905 173.219 206.171 172.893 206.406L171.306 207.549C171.091 207.706 170.932 207.867 170.828 208.031C170.727 208.193 170.676 208.349 170.676 208.498C170.676 208.683 170.722 208.848 170.813 208.995C170.904 209.142 171.033 209.258 171.2 209.344C171.367 209.428 171.563 209.47 171.788 209.47C172.062 209.47 172.331 209.408 172.597 209.284C172.865 209.157 173.108 208.979 173.326 208.748C173.546 208.516 173.722 208.24 173.853 207.921C173.985 207.602 174.051 207.249 174.051 206.862H175.391C175.391 207.338 175.339 207.767 175.235 208.149C175.131 208.528 174.987 208.86 174.802 209.143C174.618 209.424 174.406 209.654 174.168 209.834C174.092 209.882 174.019 209.928 173.948 209.971C173.877 210.014 173.804 210.059 173.728 210.107C173.44 210.34 173.117 210.508 172.76 210.612C172.406 210.716 172.055 210.768 171.709 210.768ZM183.834 202.88H185.477V207.929C185.477 208.495 185.342 208.991 185.071 209.416C184.803 209.842 184.427 210.173 183.944 210.411C183.46 210.646 182.897 210.764 182.254 210.764C181.609 210.764 181.045 210.646 180.562 210.411C180.078 210.173 179.702 209.842 179.434 209.416C179.166 208.991 179.032 208.495 179.032 207.929V202.88H180.675V207.788C180.675 208.084 180.74 208.347 180.869 208.578C181.001 208.808 181.185 208.989 181.423 209.12C181.661 209.252 181.938 209.318 182.254 209.318C182.573 209.318 182.85 209.252 183.086 209.12C183.324 208.989 183.507 208.808 183.636 208.578C183.768 208.347 183.834 208.084 183.834 207.788V202.88ZM188.473 202.88V210.654H186.829V202.88H188.473Z" fill="white"/>
<path d="M161.857 168.637C182.814 168.637 199.801 185.601 199.801 206.524C199.801 227.448 182.814 244.412 161.857 244.412C140.9 244.412 123.914 227.448 123.914 206.524C123.914 185.601 140.9 168.637 161.857 168.637Z" stroke="white" stroke-width="2.13783"/>
<path d="M1265.52 143.022C1297.4 143.022 1323.24 168.826 1323.24 200.655C1323.24 232.483 1297.4 258.287 1265.52 258.287C1233.64 258.287 1207.8 232.483 1207.8 200.655C1207.8 168.826 1233.64 143.022 1265.52 143.022Z" stroke="white" stroke-width="2.13783"/>
<path d="M1286.75 233.212L1278.66 225.122C1275.52 228.258 1272.1 230.609 1268.4 232.177C1264.7 233.682 1260.57 234.435 1255.99 234.435C1251.35 234.435 1247.24 233.619 1243.66 231.989C1240.09 230.358 1237.33 228.038 1235.39 225.028C1233.44 221.955 1232.47 218.412 1232.47 214.399C1232.47 209.884 1233.76 205.87 1236.33 202.359C1238.9 198.784 1242.72 195.962 1247.8 193.893C1245.99 191.698 1244.7 189.66 1243.95 187.779C1243.19 185.835 1242.82 183.702 1242.82 181.382C1242.82 178.498 1243.54 175.926 1244.98 173.669C1246.49 171.411 1248.62 169.624 1251.38 168.307C1254.14 166.99 1257.34 166.332 1260.97 166.332C1264.67 166.332 1267.81 167.053 1270.38 168.495C1273.01 169.875 1274.96 171.788 1276.21 174.233C1277.53 176.679 1278.06 179.407 1277.81 182.417H1267.09C1267.15 180.097 1266.59 178.309 1265.39 177.055C1264.2 175.738 1262.57 175.08 1260.5 175.08C1258.43 175.08 1256.74 175.707 1255.42 176.961C1254.17 178.153 1253.54 179.626 1253.54 181.382C1253.54 183.075 1254.01 184.768 1254.95 186.462C1255.96 188.092 1257.68 190.224 1260.13 192.858L1277.43 210.072L1284.11 199.066H1295.68L1287.22 213.552L1284.87 217.409L1300.76 233.212H1286.75ZM1255.99 225.31C1261.88 225.31 1267.09 222.896 1271.6 218.067L1254.29 200.665C1246.89 203.613 1243.19 208.065 1243.19 214.023C1243.19 217.221 1244.39 219.917 1246.77 222.112C1249.15 224.244 1252.22 225.31 1255.99 225.31Z" fill="white"/>
</svg>
