<svg width="1464" height="278" viewBox="0 0 1464 278" fill="none" xmlns="http://www.w3.org/2000/svg">
<rect width="192.934" height="74.3571" rx="37.1786" transform="matrix(0.819557 -0.572998 0.574155 0.818747 0 167.555)" stroke="#09181B" stroke-width="3.12339"/>
<path d="M49.1114 192.58L34.8289 172.212L48.5665 162.607L51.0562 166.157L41.629 172.748L45.0323 177.602L53.7526 171.504L56.2423 175.055L47.5219 181.152L50.9321 186.015L60.3991 179.396L62.8888 182.947L49.1114 192.58ZM66.1962 180.634L55.4844 165.358L59.526 162.532L61.416 165.227L61.5951 165.102C61.286 163.984 61.3218 162.907 61.7025 161.87C62.0831 160.833 62.7911 159.953 63.8264 159.229C64.875 158.496 65.9512 158.134 67.0552 158.142C68.1544 158.144 69.1384 158.504 70.0069 159.221L70.1662 159.109C69.8644 158.016 69.938 156.922 70.387 155.828C70.838 154.722 71.6243 153.777 72.7459 152.993C74.1727 151.995 75.6492 151.639 77.1755 151.926C78.7037 152.201 80.049 153.168 81.2113 154.825L88.4153 165.099L84.1845 168.057L77.5663 158.619C76.9712 157.77 76.2992 157.291 75.5504 157.182C74.8016 157.074 74.0887 157.256 73.4118 157.729C72.6419 158.268 72.2134 158.933 72.126 159.725C72.034 160.511 72.267 161.301 72.8249 162.097L79.3664 171.426L75.2551 174.3L68.5741 164.773C68.0488 164.023 67.4146 163.577 66.6718 163.435C65.9355 163.288 65.219 163.458 64.5222 163.945C64.051 164.274 63.7099 164.691 63.499 165.194C63.2901 165.686 63.2249 166.22 63.3035 166.798C63.3774 167.369 63.6119 167.936 64.0071 168.499L70.437 177.669L66.1962 180.634ZM95.782 168.485L81.0532 147.48L85.2342 144.557L87.0335 147.123L87.2226 146.991C87.1202 146.45 87.096 145.844 87.1502 145.174C87.2064 144.492 87.4199 143.81 87.7907 143.125C88.1635 142.43 88.778 141.783 89.6341 141.184C90.749 140.405 91.9823 139.977 93.3338 139.902C94.6806 139.82 96.0453 140.165 97.4276 140.937C98.8053 141.703 100.108 142.961 101.335 144.712C102.53 146.416 103.264 148.047 103.536 149.606C103.81 151.153 103.687 152.558 103.168 153.82C102.651 155.071 101.811 156.103 100.65 156.915C99.8269 157.49 99.0314 157.844 98.2634 157.976C97.5021 158.103 96.7947 158.089 96.1415 157.933C95.4836 157.77 94.9096 157.544 94.4196 157.254L94.2902 157.345L100.023 165.52L95.782 168.485ZM90.5603 152.216C91.1972 153.124 91.8789 153.828 92.6053 154.328C93.3317 154.828 94.0663 155.1 94.8091 155.144C95.5473 155.181 96.2582 154.961 96.9418 154.483C97.632 154 98.0835 153.403 98.2963 152.691C98.5045 151.972 98.4942 151.189 98.2655 150.341C98.0389 149.482 97.614 148.608 96.991 147.72C96.3727 146.838 95.7059 146.148 94.9908 145.65C94.2757 145.152 93.5467 144.881 92.8039 144.837C92.0611 144.793 91.3412 145.015 90.6444 145.502C89.9542 145.985 89.498 146.576 89.2759 147.274C89.0604 147.969 89.0614 148.739 89.2788 149.585C89.4961 150.431 89.9233 151.308 90.5603 152.216ZM114.067 147.593C113.091 148.275 112.103 148.714 111.103 148.909C110.098 149.098 109.138 149.013 108.224 148.654C107.312 148.284 106.503 147.596 105.796 146.588C105.201 145.739 104.857 144.917 104.764 144.122C104.672 143.327 104.771 142.566 105.062 141.839C105.353 141.112 105.778 140.42 106.336 139.763C106.901 139.101 107.536 138.469 108.241 137.868C109.065 137.153 109.722 136.566 110.21 136.105C110.694 135.639 111 135.237 111.13 134.899C111.259 134.562 111.21 134.231 110.982 133.906L110.94 133.846C110.498 133.216 109.958 132.868 109.318 132.802C108.684 132.731 108.006 132.948 107.283 133.454C106.519 133.988 106.031 134.581 105.817 135.235C105.598 135.882 105.592 136.508 105.799 137.114L101.654 139.539C101.202 138.471 101.031 137.395 101.141 136.311C101.246 135.219 101.632 134.169 102.299 133.159C102.968 132.138 103.913 131.201 105.134 130.347C105.983 129.753 106.866 129.284 107.782 128.94C108.704 128.592 109.614 128.415 110.511 128.41C111.414 128.401 112.272 128.602 113.084 129.012C113.891 129.416 114.614 130.072 115.251 130.98L122.475 141.284L118.454 144.096L116.968 141.977L116.849 142.061C116.938 142.71 116.905 143.361 116.749 144.013C116.589 144.659 116.292 145.286 115.859 145.896C115.421 146.498 114.823 147.064 114.067 147.593ZM113.231 143.82C113.855 143.384 114.32 142.876 114.625 142.296C114.927 141.71 115.064 141.11 115.039 140.496C115.014 139.881 114.813 139.305 114.436 138.768L113.299 137.147C113.227 137.326 113.1 137.533 112.919 137.768C112.74 137.993 112.529 138.234 112.285 138.493C112.037 138.746 111.786 138.995 111.534 139.241C111.276 139.48 111.043 139.698 110.834 139.893C110.387 140.314 110.034 140.734 109.774 141.153C109.514 141.572 109.376 141.99 109.361 142.405C109.341 142.814 109.471 143.218 109.75 143.616C110.154 144.192 110.673 144.487 111.305 144.5C111.938 144.501 112.581 144.275 113.231 143.82ZM123.187 118.021L125.418 121.203L116.21 127.642L113.979 124.459L123.187 118.021ZM113.503 119.338L117.743 116.373L127.73 130.614C128.004 131.005 128.278 131.269 128.551 131.404C128.819 131.533 129.09 131.566 129.362 131.503C129.642 131.436 129.924 131.303 130.21 131.104C130.409 130.964 130.596 130.809 130.772 130.636C130.943 130.457 131.075 130.321 131.167 130.227L134.045 132.913C133.879 133.128 133.634 133.413 133.309 133.768C132.989 134.13 132.561 134.514 132.024 134.919C131.03 135.673 130.039 136.164 129.05 136.39C128.069 136.612 127.135 136.543 126.25 136.184C125.365 135.825 124.575 135.142 123.88 134.136L113.503 119.338ZM135.037 119.339L141.23 128.171L136.99 131.136L122.707 110.768L126.828 107.886L132.289 115.673L132.468 115.548C132.181 114.405 132.243 113.309 132.655 112.26C133.062 111.205 133.847 110.271 135.008 109.459C136.07 108.717 137.158 108.301 138.273 108.213C139.391 108.114 140.47 108.342 141.513 108.898C142.557 109.442 143.495 110.313 144.325 111.512L151.145 121.238L146.904 124.203L140.614 115.232C139.96 114.286 139.208 113.721 138.356 113.536C137.511 113.346 136.657 113.553 135.794 114.156C135.217 114.56 134.792 115.04 134.519 115.596C134.253 116.147 134.159 116.747 134.237 117.394C134.317 118.03 134.584 118.678 135.037 119.339ZM160.57 123.185C160.032 123.561 159.498 123.871 158.966 124.114C158.446 124.359 157.989 124.526 157.595 124.613L156.333 120.782C156.938 120.587 157.444 120.356 157.852 120.091C158.266 119.822 158.549 119.485 158.702 119.082C158.861 118.674 158.866 118.167 158.717 117.559L158.512 116.739L142.009 104.861L146.468 101.742L157.501 110.747L157.66 110.636L152.989 97.1833L157.478 94.0442L163.405 115.126C163.696 116.148 163.81 117.136 163.747 118.089C163.694 119.044 163.413 119.948 162.902 120.799C162.396 121.657 161.619 122.452 160.57 123.185Z" fill="#09181B"/>
<rect width="250.716" height="68.4921" rx="34.2461" transform="matrix(0.906556 0.422085 -0.423152 0.906059 1236.71 0.432373)" stroke="#09181B" stroke-width="2.86261"/>
<path d="M1263.64 45.9097L1259.22 43.8515C1259.41 43.2423 1259.48 42.6578 1259.44 42.0981C1259.4 41.5316 1259.26 40.9995 1259.02 40.5017C1258.77 40.004 1258.44 39.552 1258 39.1458C1257.58 38.7427 1257.07 38.4033 1256.48 38.1276C1255.41 37.6295 1254.35 37.4612 1253.31 37.6228C1252.27 37.7776 1251.3 38.2576 1250.39 39.0627C1249.48 39.861 1248.7 40.9763 1248.03 42.4087C1247.34 43.8814 1246.98 45.2205 1246.95 46.4261C1246.93 47.6348 1247.19 48.6796 1247.75 49.5603C1248.3 50.4411 1249.1 51.1242 1250.14 51.6098C1250.73 51.8824 1251.31 52.0572 1251.88 52.1344C1252.45 52.2147 1253.01 52.1978 1253.53 52.0836C1254.07 51.9627 1254.56 51.7466 1255.02 51.4352C1255.48 51.127 1255.89 50.7207 1256.25 50.2163L1260.66 52.2947C1260.1 53.1897 1259.39 53.9711 1258.52 54.6389C1257.66 55.3032 1256.69 55.8031 1255.6 56.1386C1254.52 56.4705 1253.35 56.5923 1252.11 56.5039C1250.87 56.4119 1249.59 56.0574 1248.27 55.4402C1246.43 54.5818 1244.97 53.3974 1243.91 51.8868C1242.85 50.3794 1242.27 48.6397 1242.17 46.6679C1242.07 44.6991 1242.55 42.5917 1243.6 40.3457C1244.65 38.093 1245.97 36.3738 1247.55 35.1883C1249.14 34.0027 1250.85 33.3347 1252.69 33.1843C1254.53 33.0271 1256.36 33.3715 1258.18 34.2173C1259.38 34.775 1260.41 35.46 1261.27 36.2724C1262.15 37.088 1262.83 38.0034 1263.32 39.0186C1263.82 40.0271 1264.1 41.1113 1264.16 42.2711C1264.23 43.4341 1264.06 44.6469 1263.64 45.9097ZM1267.29 64.3208C1265.72 63.5909 1264.52 62.6267 1263.69 61.4284C1262.86 60.2265 1262.42 58.8829 1262.36 57.3977C1262.31 55.9058 1262.65 54.3664 1263.39 52.7793C1264.14 51.1789 1265.1 49.9243 1266.28 49.0155C1267.46 48.1 1268.77 47.5741 1270.22 47.4379C1271.68 47.298 1273.19 47.593 1274.76 48.323C1276.33 49.0529 1277.52 50.0188 1278.34 51.2207C1279.18 52.4191 1279.62 53.7642 1279.68 55.2561C1279.74 56.7413 1279.4 58.2841 1278.65 59.8846C1277.91 61.4716 1276.95 62.7229 1275.76 63.6383C1274.59 64.5471 1273.27 65.0714 1271.81 65.2113C1270.36 65.3476 1268.86 65.0508 1267.29 64.3208ZM1268.86 61.0015C1269.58 61.3336 1270.27 61.4091 1270.93 61.2281C1271.6 61.0403 1272.22 60.6498 1272.79 60.0565C1273.37 59.4663 1273.87 58.7207 1274.29 57.8196C1274.71 56.9185 1274.96 56.0569 1275.04 55.2349C1275.13 54.4161 1275.03 53.6903 1274.75 53.0577C1274.46 52.425 1273.96 51.9427 1273.25 51.6106C1272.53 51.2754 1271.83 51.1985 1271.14 51.38C1270.47 51.5647 1269.84 51.9521 1269.26 52.5423C1268.69 53.1356 1268.19 53.8828 1267.77 54.7839C1267.35 55.685 1267.1 56.5449 1267.01 57.3638C1266.93 58.1858 1267.04 58.9147 1267.33 59.5504C1267.63 60.1826 1268.14 60.6663 1268.86 61.0015ZM1291.8 50.2164L1282.15 70.8744L1277.85 68.8725L1287.5 48.2145L1291.8 50.2164ZM1299.54 53.8219L1289.9 74.4799L1285.6 72.478L1295.24 51.82L1299.54 53.8219ZM1297.62 78.4343C1296.64 77.9738 1295.83 77.3919 1295.22 76.6887C1294.61 75.9787 1294.24 75.1792 1294.1 74.2901C1293.98 73.3974 1294.16 72.44 1294.63 71.4179C1295.04 70.5571 1295.53 69.9078 1296.12 69.47C1296.71 69.0322 1297.36 68.762 1298.07 68.6594C1298.78 68.5567 1299.53 68.576 1300.31 68.7171C1301.09 68.8613 1301.88 69.075 1302.69 69.3582C1303.63 69.6839 1304.4 69.9348 1304.99 70.111C1305.58 70.2805 1306.04 70.3391 1306.37 70.2869C1306.7 70.2347 1306.94 70.0439 1307.09 69.7143L1307.12 69.6538C1307.42 69.015 1307.45 68.4267 1307.21 67.8891C1306.97 67.3546 1306.49 66.9166 1305.75 66.5751C1304.98 66.2148 1304.29 66.0996 1303.67 66.2296C1303.05 66.3528 1302.55 66.6354 1302.17 67.0776L1298.34 64.9033C1298.98 64.0558 1299.76 63.427 1300.67 63.0168C1301.59 62.5998 1302.6 62.4242 1303.71 62.4898C1304.82 62.5518 1306 62.871 1307.24 63.4475C1308.1 63.8485 1308.88 64.3331 1309.57 64.9014C1310.27 65.4728 1310.83 66.1129 1311.24 66.8216C1311.66 67.5335 1311.9 68.3053 1311.94 69.1371C1311.99 69.9621 1311.8 70.8353 1311.37 71.7566L1306.49 82.2066L1302.41 80.3081L1303.42 78.1596L1303.3 78.1032C1302.82 78.4715 1302.29 78.7434 1301.7 78.919C1301.11 79.0879 1300.48 79.1403 1299.79 79.0762C1299.11 79.0054 1298.39 78.7914 1297.62 78.4343ZM1300.24 76.042C1300.87 76.3365 1301.49 76.4722 1302.09 76.4489C1302.69 76.4189 1303.23 76.253 1303.71 75.9511C1304.19 75.6491 1304.55 75.2258 1304.81 74.6811L1305.58 73.037C1305.4 73.0617 1305.18 73.0563 1304.91 73.0206C1304.65 72.9813 1304.36 72.9246 1304.04 72.8504C1303.73 72.7695 1303.41 72.6852 1303.1 72.5976C1302.79 72.5032 1302.51 72.418 1302.26 72.342C1301.72 72.181 1301.23 72.0935 1300.78 72.0794C1300.32 72.0654 1299.93 72.1476 1299.59 72.3262C1299.26 72.4981 1299 72.7858 1298.81 73.1892C1298.53 73.7743 1298.54 74.3202 1298.82 74.8269C1299.11 75.33 1299.58 75.735 1300.24 76.042ZM1309.91 83.7973L1319.55 63.1393L1323.85 65.1412L1320.23 72.9081L1320.36 72.9692C1320.74 72.64 1321.21 72.3432 1321.77 72.0789C1322.34 71.811 1322.98 71.6671 1323.69 71.6474C1324.41 71.6241 1325.21 71.8145 1326.08 72.2186C1327.21 72.7449 1328.11 73.5264 1328.79 74.563C1329.47 75.5929 1329.82 76.8328 1329.84 78.2826C1329.87 79.7257 1329.46 81.3349 1328.63 83.1102C1327.83 84.8384 1326.87 86.1676 1325.75 87.0979C1324.65 88.0245 1323.47 88.5714 1322.23 88.7385C1321 88.9019 1319.8 88.7096 1318.62 88.1613C1317.79 87.7728 1317.14 87.3045 1316.68 86.7562C1316.23 86.2111 1315.92 85.6439 1315.75 85.0547C1315.57 84.4587 1315.49 83.9001 1315.5 83.3789L1315.3 83.2896L1314.15 85.771L1309.91 83.7973ZM1317.73 78.0101C1317.3 78.9314 1317.06 79.7945 1316.99 80.5995C1316.93 81.4044 1317.05 82.1114 1317.35 82.7202C1317.66 83.3224 1318.16 83.7848 1318.85 84.1075C1319.55 84.4333 1320.24 84.5173 1320.9 84.3596C1321.57 84.1951 1322.18 83.8279 1322.75 83.2579C1323.33 82.6843 1323.83 81.9469 1324.25 81.0458C1324.67 80.1515 1324.91 79.3067 1324.98 78.5116C1325.05 77.7165 1324.93 77.0146 1324.63 76.4057C1324.32 75.7968 1323.81 75.3279 1323.11 74.999C1322.41 74.6732 1321.73 74.5824 1321.07 74.7267C1320.42 74.8741 1319.81 75.2279 1319.24 75.788C1318.66 76.3482 1318.16 77.0889 1317.73 78.0101ZM1334.76 95.7364C1333.19 95.0065 1331.99 94.0423 1331.16 92.844C1330.33 91.6421 1329.89 90.2985 1329.83 88.8133C1329.77 87.3214 1330.12 85.782 1330.86 84.1949C1331.6 82.5945 1332.57 81.3399 1333.75 80.4311C1334.93 79.5156 1336.24 78.9897 1337.69 78.8535C1339.15 78.7136 1340.66 79.0086 1342.23 79.7386C1343.79 80.4685 1344.99 81.4344 1345.81 82.6363C1346.65 83.8347 1347.09 85.1798 1347.15 86.6717C1347.21 88.1569 1346.86 89.6997 1346.12 91.3002C1345.38 92.8872 1344.41 94.1385 1343.23 95.0539C1342.06 95.9627 1340.74 96.487 1339.28 96.6269C1337.83 96.7632 1336.32 96.4664 1334.76 95.7364ZM1336.33 92.4171C1337.04 92.7492 1337.73 92.8247 1338.4 92.6437C1339.07 92.4559 1339.69 92.0654 1340.26 91.4721C1340.84 90.8819 1341.34 90.1363 1341.76 89.2352C1342.18 88.3341 1342.43 87.4725 1342.51 86.6505C1342.6 85.8317 1342.5 85.1059 1342.22 84.4733C1341.93 83.8406 1341.43 83.3583 1340.72 83.0262C1340 82.691 1339.29 82.6141 1338.61 82.7956C1337.94 82.9803 1337.31 83.3677 1336.73 83.9579C1336.16 84.5512 1335.66 85.2984 1335.24 86.1995C1334.82 87.1006 1334.57 87.9605 1334.48 88.7794C1334.4 89.6014 1334.5 90.3303 1334.8 90.966C1335.1 91.5982 1335.61 92.0819 1336.33 92.4171ZM1345.32 100.288L1352.56 84.7946L1356.73 86.7354L1355.46 89.4387L1355.62 89.5139C1356.36 88.6838 1357.17 88.1785 1358.07 87.9977C1358.96 87.8102 1359.85 87.9186 1360.71 88.3227C1360.93 88.4229 1361.16 88.5445 1361.39 88.6873C1361.63 88.8301 1361.83 88.9689 1362 89.1037L1360.22 92.9166C1360.04 92.762 1359.79 92.5782 1359.45 92.3651C1359.12 92.152 1358.8 91.9765 1358.51 91.8387C1357.88 91.5442 1357.25 91.4189 1356.62 91.4628C1356 91.5031 1355.44 91.6979 1354.92 92.0474C1354.41 92.4 1354.01 92.8924 1353.72 93.5245L1349.62 102.29L1345.32 100.288ZM1360.79 107.847C1359.8 107.386 1359 106.804 1358.39 106.101C1357.78 105.391 1357.4 104.592 1357.27 103.703C1357.15 102.81 1357.32 101.853 1357.8 100.83C1358.2 99.9697 1358.7 99.3204 1359.29 98.8826C1359.88 98.4448 1360.53 98.1746 1361.24 98.0719C1361.95 97.9693 1362.7 97.9885 1363.47 98.1296C1364.26 98.2739 1365.05 98.4876 1365.85 98.7708C1366.8 99.0964 1367.57 99.3473 1368.15 99.5235C1368.75 99.693 1369.21 99.7517 1369.53 99.6995C1369.86 99.6473 1370.1 99.4564 1370.26 99.1269L1370.29 99.0664C1370.58 98.4275 1370.61 97.8393 1370.37 97.3016C1370.14 96.7671 1369.65 96.3291 1368.92 95.9876C1368.15 95.6274 1367.45 95.5122 1366.83 95.6421C1366.22 95.7653 1365.72 96.048 1365.33 96.4901L1361.51 94.3159C1362.15 93.4684 1362.93 92.8396 1363.84 92.4293C1364.75 92.0124 1365.76 91.8367 1366.87 91.9023C1367.99 91.9643 1369.17 92.2836 1370.41 92.86C1371.27 93.261 1372.04 93.7457 1372.74 94.3139C1373.44 94.8853 1373.99 95.5254 1374.41 96.2342C1374.83 96.946 1375.06 97.7179 1375.11 98.5496C1375.16 99.3747 1374.97 100.248 1374.54 101.169L1369.66 111.619L1365.58 109.721L1366.58 107.572L1366.46 107.516C1365.99 107.884 1365.45 108.156 1364.86 108.332C1364.28 108.5 1363.64 108.553 1362.96 108.489C1362.28 108.418 1361.56 108.204 1360.79 107.847ZM1363.41 105.455C1364.04 105.749 1364.66 105.885 1365.26 105.861C1365.86 105.831 1366.4 105.666 1366.88 105.364C1367.35 105.062 1367.72 104.638 1367.97 104.094L1368.74 102.45C1368.57 102.474 1368.34 102.469 1368.07 102.433C1367.81 102.394 1367.52 102.337 1367.21 102.263C1366.89 102.182 1366.58 102.098 1366.27 102.01C1365.96 101.916 1365.68 101.831 1365.43 101.755C1364.89 101.594 1364.39 101.506 1363.94 101.492C1363.49 101.478 1363.1 101.56 1362.76 101.739C1362.42 101.911 1362.16 102.198 1361.97 102.602C1361.7 103.187 1361.7 103.733 1361.98 104.239C1362.27 104.743 1362.75 105.148 1363.41 105.455ZM1388.47 101.518L1386.97 104.746L1377.63 100.399L1379.14 97.1712L1388.47 101.518ZM1382.99 94.4461L1387.29 96.448L1380.54 110.892C1380.36 111.289 1380.28 111.627 1380.29 111.905C1380.31 112.177 1380.41 112.406 1380.59 112.594C1380.77 112.785 1381 112.947 1381.29 113.082C1381.49 113.176 1381.7 113.253 1381.92 113.314C1382.14 113.367 1382.31 113.409 1382.43 113.439L1381.61 116.951C1381.36 116.918 1381.02 116.855 1380.59 116.761C1380.16 116.673 1379.66 116.509 1379.09 116.269C1378.04 115.827 1377.19 115.267 1376.56 114.587C1375.93 113.911 1375.56 113.139 1375.44 112.273C1375.32 111.407 1375.5 110.468 1375.98 109.455L1382.99 94.4461ZM1384.04 118.316L1391.27 102.822L1395.57 104.824L1388.34 120.317L1384.04 118.316ZM1394.37 101.831C1393.73 101.533 1393.28 101.066 1393.02 100.429C1392.77 99.7888 1392.78 99.1694 1393.06 98.5709C1393.34 97.9791 1393.8 97.5764 1394.45 97.3626C1395.11 97.1453 1395.76 97.1854 1396.4 97.483C1397.04 97.7807 1397.48 98.2496 1397.73 98.8899C1397.99 99.5266 1397.98 100.141 1397.7 100.733C1397.43 101.331 1396.96 101.739 1396.3 101.956C1395.65 102.17 1395.01 102.128 1394.37 101.831ZM1398.64 125.485C1397.08 124.755 1395.88 123.791 1395.04 122.593C1394.22 121.391 1393.78 120.047 1393.72 118.562C1393.66 117.07 1394 115.531 1394.75 113.943C1395.49 112.343 1396.46 111.088 1397.63 110.18C1398.81 109.264 1400.13 108.738 1401.58 108.602C1403.03 108.462 1404.55 108.757 1406.11 109.487C1407.68 110.217 1408.88 111.183 1409.7 112.385C1410.53 113.583 1410.98 114.928 1411.04 116.42C1411.1 117.905 1410.75 119.448 1410 121.049C1409.26 122.636 1408.3 123.887 1407.12 124.802C1405.94 125.711 1404.63 126.236 1403.17 126.375C1401.72 126.512 1400.21 126.215 1398.64 125.485ZM1400.22 122.166C1400.93 122.498 1401.62 122.573 1402.29 122.392C1402.96 122.204 1403.58 121.814 1404.15 121.221C1404.73 120.63 1405.23 119.885 1405.65 118.984C1406.07 118.083 1406.32 117.221 1406.4 116.399C1406.49 115.58 1406.39 114.854 1406.1 114.222C1405.82 113.589 1405.32 113.107 1404.6 112.775C1403.88 112.44 1403.18 112.363 1402.5 112.544C1401.82 112.729 1401.2 113.116 1400.62 113.706C1400.05 114.3 1399.55 115.047 1399.13 115.948C1398.71 116.849 1398.45 117.709 1398.37 118.528C1398.29 119.35 1398.39 120.079 1398.68 120.715C1398.99 121.347 1399.5 121.83 1400.22 122.166ZM1417.69 123.081L1413.51 132.039L1409.21 130.037L1416.45 114.543L1420.54 116.451L1419.27 119.185L1419.45 119.269C1420.21 118.528 1421.12 118.083 1422.17 117.934C1423.23 117.779 1424.33 117.969 1425.48 118.505C1426.56 119.006 1427.39 119.679 1427.97 120.522C1428.55 121.366 1428.86 122.328 1428.89 123.409C1428.93 124.483 1428.67 125.622 1428.11 126.826L1423.5 136.691L1419.2 134.689L1423.45 125.591C1423.9 124.645 1424 123.793 1423.76 123.033C1423.52 122.266 1422.97 121.683 1422.11 121.282C1421.53 121.012 1420.96 120.898 1420.4 120.94C1419.85 120.986 1419.33 121.189 1418.86 121.551C1418.4 121.908 1418.01 122.419 1417.69 123.081Z" fill="#09181B"/>
<rect x="213.77" y="169.068" width="318.518" height="76.8463" rx="38.4231" stroke="#09181B" stroke-width="3.12339"/>
<path d="M239.679 194.543V194.201H245.768V194.543H244.092V217.802H245.768V218.144H239.679V217.802H241.253V194.543H239.679ZM262.702 218.144C261.767 218.144 261.049 217.939 260.547 217.529C260.068 217.118 259.818 216.708 259.795 216.297L259.761 215.716V204.975C259.761 203.174 259.293 202.022 258.358 201.521C257.879 201.292 257.286 201.178 256.579 201.178C255.12 201.178 253.809 201.76 252.646 202.923C251.483 204.063 250.901 205.089 250.901 206.001V218.144H248.507V201.042H250.901V204.941C251.289 203.961 252.007 203.048 253.056 202.205C254.105 201.338 255.257 200.905 256.511 200.905C257.765 200.905 258.78 201.03 259.555 201.281C260.353 201.509 260.935 201.84 261.3 202.273C261.87 202.98 262.155 203.892 262.155 205.009V215.716C262.155 216.377 262.28 216.89 262.531 217.255C262.805 217.597 263.078 217.779 263.352 217.802L263.728 217.871H264.789V218.144H262.702ZM269.453 199.434V201.042H272.155V201.315H269.453V218.144H267.059V201.315H266.341V201.042H267.059V199.434C267.059 196.948 267.595 195.181 268.667 194.132C269.738 193.06 271.471 192.513 273.866 192.49V192.764C272.292 192.787 271.163 193.323 270.479 194.372C269.795 195.398 269.453 197.085 269.453 199.434ZM282.301 218.281C279.907 218.281 277.957 217.597 276.452 216.229C274.947 214.861 274.194 212.751 274.194 209.901C274.194 207.05 274.97 204.838 276.52 203.265C278.094 201.692 280.078 200.905 282.472 200.905C284.889 200.905 286.85 201.589 288.355 202.957C289.86 204.325 290.613 206.435 290.613 209.285C290.613 212.136 289.826 214.348 288.253 215.921C286.702 217.494 284.718 218.281 282.301 218.281ZM282.54 201.178C280.807 201.178 279.371 201.954 278.231 203.504C277.09 205.032 276.52 207.176 276.52 209.935C276.52 212.671 277.045 214.701 278.094 216.024C279.143 217.346 280.534 218.007 282.267 218.007C284 218.007 285.437 217.244 286.577 215.716C287.717 214.165 288.287 212.022 288.287 209.285C288.287 206.526 287.762 204.485 286.714 203.162C285.665 201.84 284.274 201.178 282.54 201.178ZM299.2 202.512V201.794C298.174 202.205 297.239 203.037 296.395 204.291C295.551 205.523 295.107 206.686 295.061 207.78V218.144H292.667V201.042H295.061V206.48C295.426 205.158 296.121 203.915 297.147 202.752C298.174 201.566 299.337 200.95 300.636 200.905H300.773C301.229 200.905 301.606 201.064 301.902 201.384C302.221 201.68 302.381 202.056 302.381 202.512C302.381 202.969 302.221 203.345 301.902 203.641C301.606 203.938 301.229 204.086 300.773 204.086C300.317 204.086 299.941 203.938 299.644 203.641C299.348 203.345 299.2 202.969 299.2 202.512ZM325.585 204.975C325.585 203.584 325.402 202.604 325.038 202.034C324.673 201.464 323.977 201.178 322.951 201.178C321.583 201.178 320.363 201.749 319.291 202.889C318.242 204.029 317.718 205.055 317.718 205.967V218.144H315.323V204.975C315.323 203.584 315.141 202.604 314.776 202.034C314.411 201.464 313.636 201.178 312.45 201.178C311.264 201.178 310.135 201.726 309.064 202.82C308.015 203.915 307.445 204.93 307.353 205.865V218.144H304.959V201.042H307.353V204.907C307.718 203.926 308.391 203.014 309.372 202.17C310.352 201.327 311.447 200.905 312.655 200.905C313.864 200.905 314.822 201.019 315.529 201.247C316.258 201.452 316.771 201.783 317.068 202.239C317.364 202.695 317.547 203.094 317.615 203.436C317.683 203.778 317.718 204.257 317.718 204.873C318.083 203.892 318.744 202.991 319.702 202.17C320.659 201.327 321.685 200.905 322.78 200.905C323.875 200.905 324.753 200.996 325.414 201.178C326.075 201.361 326.565 201.566 326.885 201.794C327.227 202.022 327.478 202.353 327.637 202.786C327.82 203.219 327.922 203.573 327.945 203.846C327.968 204.12 327.979 204.508 327.979 205.009V215.716C327.979 216.377 328.105 216.89 328.355 217.255C328.629 217.597 328.903 217.779 329.176 217.802L329.553 217.871H330.613V218.144H328.527C327.592 218.144 326.873 217.939 326.372 217.529C325.893 217.118 325.642 216.708 325.619 216.297L325.585 215.716V204.975ZM345.775 218.144C344.225 218.144 343.164 217.848 342.594 217.255C342.07 216.753 341.807 216.32 341.807 215.955V215.237C340.69 217.266 338.9 218.281 336.437 218.281C333.564 218.281 331.934 216.981 331.546 214.382C331.5 214.108 331.478 213.834 331.478 213.561C331.478 213.264 331.523 212.945 331.614 212.603C331.706 212.261 331.968 211.885 332.401 211.474C333.268 210.653 335.172 210.152 338.113 209.969C338.843 209.901 339.516 209.867 340.131 209.867C340.747 209.867 341.306 209.889 341.807 209.935V204.257C341.762 204.234 341.762 204.132 341.807 203.949C341.853 203.744 341.807 203.493 341.671 203.197C341.557 202.877 341.397 202.569 341.192 202.273C340.987 201.977 340.622 201.726 340.097 201.521C339.573 201.292 338.889 201.178 338.045 201.178C337.201 201.178 336.209 201.338 335.069 201.657C333.952 201.954 333.131 202.25 332.606 202.547L332.469 202.307C334.499 201.372 336.563 200.905 338.661 200.905C341.009 200.905 342.56 201.327 343.313 202.17C343.905 202.832 344.202 203.527 344.202 204.257V215.716C344.202 216.377 344.327 216.89 344.578 217.255C344.852 217.597 345.125 217.779 345.399 217.802L345.775 217.871H346.836V218.144H345.775ZM336.985 218.007C338.193 218.007 339.276 217.597 340.234 216.776C341.215 215.932 341.739 215.123 341.807 214.348V210.209C341.192 210.163 340.565 210.14 339.926 210.14C339.311 210.14 338.695 210.174 338.079 210.243C336.346 210.448 335.217 210.836 334.693 211.406C334.168 211.976 333.906 212.763 333.906 213.766C333.906 213.948 333.917 214.154 333.94 214.382C334.146 216.799 335.16 218.007 336.985 218.007ZM349.215 201.315V201.042H349.933V197.621H352.327V201.042H357.561V201.315H352.327V213.766C352.327 215.248 352.487 216.32 352.806 216.981C353.148 217.643 353.844 217.973 354.893 217.973C355.965 217.973 357.048 217.757 358.142 217.323L358.245 217.597C357.105 218.03 355.794 218.247 354.311 218.247C352.852 218.247 351.757 217.95 351.028 217.358C350.298 216.742 349.933 215.533 349.933 213.732V201.315H349.215ZM363.263 218.144C362.328 218.144 361.61 217.939 361.108 217.529C360.629 217.118 360.379 216.708 360.356 216.297L360.322 215.716V201.042H362.716V215.716C362.716 216.377 362.841 216.89 363.092 217.255C363.366 217.597 363.628 217.779 363.879 217.802L364.289 217.871H365.35V218.144H363.263ZM360.527 197.211C360.253 196.937 360.116 196.595 360.116 196.185C360.116 195.774 360.253 195.432 360.527 195.158C360.8 194.862 361.143 194.714 361.553 194.714C361.963 194.714 362.306 194.862 362.579 195.158C362.876 195.432 363.024 195.774 363.024 196.185C363.024 196.595 362.876 196.937 362.579 197.211C362.306 197.484 361.963 197.621 361.553 197.621C361.143 197.621 360.8 197.484 360.527 197.211ZM374.495 218.281C372.101 218.281 370.151 217.597 368.646 216.229C367.141 214.861 366.388 212.751 366.388 209.901C366.388 207.05 367.164 204.838 368.714 203.265C370.288 201.692 372.272 200.905 374.666 200.905C377.083 200.905 379.044 201.589 380.549 202.957C382.054 204.325 382.807 206.435 382.807 209.285C382.807 212.136 382.02 214.348 380.447 215.921C378.896 217.494 376.912 218.281 374.495 218.281ZM374.734 201.178C373.001 201.178 371.565 201.954 370.424 203.504C369.284 205.032 368.714 207.176 368.714 209.935C368.714 212.671 369.239 214.701 370.288 216.024C371.337 217.346 372.728 218.007 374.461 218.007C376.194 218.007 377.63 217.244 378.771 215.716C379.911 214.165 380.481 212.022 380.481 209.285C380.481 206.526 379.956 204.485 378.907 203.162C377.858 201.84 376.467 201.178 374.734 201.178ZM399.056 218.144C398.121 218.144 397.402 217.939 396.901 217.529C396.422 217.118 396.171 216.708 396.148 216.297L396.114 215.716V204.975C396.114 203.174 395.646 202.022 394.712 201.521C394.233 201.292 393.64 201.178 392.933 201.178C391.473 201.178 390.162 201.76 388.999 202.923C387.836 204.063 387.255 205.089 387.255 206.001V218.144H384.86V201.042H387.255V204.941C387.642 203.961 388.361 203.048 389.41 202.205C390.459 201.338 391.61 200.905 392.864 200.905C394.119 200.905 395.133 201.03 395.909 201.281C396.707 201.509 397.288 201.84 397.653 202.273C398.223 202.98 398.508 203.892 398.508 205.009V215.716C398.508 216.377 398.634 216.89 398.885 217.255C399.158 217.597 399.432 217.779 399.705 217.802L400.082 217.871H401.142V218.144H399.056ZM416.849 194.235C417.852 194.189 418.833 194.166 419.791 194.166C420.771 194.166 421.797 194.269 422.869 194.474C423.964 194.679 425.035 195.067 426.084 195.637C427.156 196.185 428.057 196.903 428.787 197.792C429.539 198.659 430.143 199.81 430.6 201.247C431.056 202.684 431.284 204.428 431.284 206.48C431.284 208.533 430.942 210.38 430.257 212.022C429.596 213.641 428.684 214.883 427.521 215.75C425.263 217.437 422.538 218.281 419.346 218.281C418.229 218.281 417.054 218.236 415.823 218.144H414.113V194.235H416.849ZM416.952 217.871C417.43 217.916 418.035 217.939 418.764 217.939C419.494 217.939 420.041 217.928 420.406 217.905C420.771 217.882 421.273 217.791 421.911 217.631C422.55 217.449 423.143 217.209 423.69 216.913C424.237 216.616 424.807 216.183 425.4 215.613C426.016 215.02 426.54 214.325 426.974 213.527C427.954 211.657 428.445 209.217 428.445 206.207C428.445 204.063 428.182 202.216 427.658 200.665C427.133 199.092 426.529 197.929 425.845 197.176C425.184 196.424 424.374 195.831 423.416 195.398C422.459 194.942 421.695 194.679 421.125 194.611C420.555 194.543 419.893 194.508 419.141 194.508C418.388 194.508 417.659 194.543 416.952 194.611V217.871ZM436.356 209.798C436.356 212.626 436.847 214.701 437.827 216.024C438.831 217.346 440.142 218.007 441.761 218.007C444.041 218.007 446.071 217.665 447.849 216.981L447.952 217.221C446.128 217.928 444.064 218.281 441.761 218.281C439.481 218.281 437.622 217.597 436.185 216.229C434.749 214.861 434.03 212.751 434.03 209.901C434.03 207.05 434.783 204.838 436.288 203.265C437.793 201.692 439.709 200.905 442.035 200.905C443.904 200.905 445.478 201.464 446.755 202.581C448.032 203.698 448.67 205.352 448.67 207.541C448.67 207.655 448.67 207.769 448.67 207.883H436.459C436.391 208.498 436.356 209.137 436.356 209.798ZM446.344 207.609C446.322 205.42 445.9 203.801 445.079 202.752C444.258 201.703 443.197 201.178 441.898 201.178C440.598 201.178 439.435 201.749 438.409 202.889C437.405 204.029 436.767 205.602 436.493 207.609H446.344ZM461.088 202.239C460.723 201.942 460.13 201.692 459.309 201.486C458.511 201.281 457.907 201.178 457.496 201.178C457.086 201.178 456.846 201.178 456.778 201.178C455.546 201.201 454.657 201.521 454.11 202.136C453.562 202.729 453.289 203.402 453.289 204.154C453.289 204.907 453.528 205.545 454.007 206.07C454.486 206.572 455.079 206.971 455.786 207.267C456.516 207.541 457.291 207.86 458.112 208.225C458.955 208.59 459.731 208.966 460.438 209.354C461.167 209.718 461.772 210.266 462.251 210.995C462.729 211.702 462.969 212.592 462.969 213.663C462.969 214.735 462.593 215.647 461.84 216.4C461.088 217.152 460.244 217.654 459.309 217.905C458.397 218.156 457.405 218.281 456.333 218.281C454.007 218.281 452.263 217.768 451.1 216.742L451.305 216.537C451.761 216.97 452.434 217.323 453.323 217.597C454.235 217.871 455.113 218.007 455.957 218.007C457.302 218.007 458.408 217.643 459.275 216.913C460.164 216.16 460.609 215.237 460.609 214.142C460.609 213.025 460.278 212.136 459.617 211.474C458.955 210.79 458.146 210.266 457.188 209.901C456.253 209.513 455.307 209.137 454.349 208.772C453.391 208.384 452.582 207.86 451.921 207.199C451.259 206.515 450.929 205.728 450.929 204.838C450.929 203.949 451.134 203.231 451.544 202.684C451.955 202.113 452.502 201.714 453.186 201.486C454.349 201.099 455.512 200.905 456.675 200.905C458.636 200.905 460.164 201.27 461.259 201.999L461.088 202.239ZM468.351 218.144C467.416 218.144 466.698 217.939 466.196 217.529C465.717 217.118 465.466 216.708 465.443 216.297L465.409 215.716V201.042H467.804V215.716C467.804 216.377 467.929 216.89 468.18 217.255C468.454 217.597 468.716 217.779 468.967 217.802L469.377 217.871H470.437V218.144H468.351ZM465.614 197.211C465.341 196.937 465.204 196.595 465.204 196.185C465.204 195.774 465.341 195.432 465.614 195.158C465.888 194.862 466.23 194.714 466.641 194.714C467.051 194.714 467.393 194.862 467.667 195.158C467.963 195.432 468.111 195.774 468.111 196.185C468.111 196.595 467.963 196.937 467.667 197.211C467.393 197.484 467.051 197.621 466.641 197.621C466.23 197.621 465.888 197.484 465.614 197.211ZM472.34 210.209C472.34 207.244 473.059 204.952 474.495 203.333C475.932 201.714 478.087 200.905 480.96 200.905C483.081 200.905 485.236 201.281 487.425 202.034V218.555C487.402 223.982 485.031 226.696 480.31 226.696C477.711 226.696 475.487 225.852 473.64 224.164L473.88 223.959C475.841 225.601 477.984 226.422 480.31 226.422C483.457 226.422 485.031 223.8 485.031 218.555V215.168C484.597 215.967 483.879 216.673 482.876 217.289C481.872 217.905 480.686 218.213 479.318 218.213C474.666 218.099 472.34 215.431 472.34 210.209ZM479.352 217.939C480.88 217.939 482.191 217.529 483.286 216.708C484.381 215.887 484.962 215.077 485.031 214.279V202.205C483.389 201.521 481.998 201.178 480.857 201.178C478.828 201.178 477.3 201.977 476.274 203.573C475.248 205.146 474.735 207.358 474.735 210.209C474.735 215.362 476.274 217.939 479.352 217.939ZM505.88 218.144C504.945 218.144 504.227 217.939 503.725 217.529C503.246 217.118 502.996 216.708 502.973 216.297L502.939 215.716V204.975C502.939 203.174 502.471 202.022 501.536 201.521C501.057 201.292 500.464 201.178 499.757 201.178C498.298 201.178 496.987 201.76 495.824 202.923C494.661 204.063 494.079 205.089 494.079 206.001V218.144H491.685V201.042H494.079V204.941C494.467 203.961 495.185 203.048 496.234 202.205C497.283 201.338 498.435 200.905 499.689 200.905C500.943 200.905 501.958 201.03 502.733 201.281C503.531 201.509 504.113 201.84 504.478 202.273C505.048 202.98 505.333 203.892 505.333 205.009V215.716C505.333 216.377 505.458 216.89 505.709 217.255C505.983 217.597 506.256 217.779 506.53 217.802L506.906 217.871H507.967V218.144H505.88Z" fill="#09181B"/>
<rect x="504.426" y="67.6731" width="255.455" height="76.8463" rx="38.4231" stroke="#09181B" stroke-width="3.12339"/>
<path d="M557.259 93.7081L550.213 117.481H545.801L540.807 99.4887L535.505 117.481L531.127 117.515L524.388 93.7081H528.527L533.453 113.068L538.789 93.7081H543.167L548.127 112.966L553.086 93.7081H557.259ZM562.459 96.1366C561.753 96.1366 561.16 95.8972 560.681 95.4183C560.202 94.9395 559.962 94.3466 559.962 93.6397C559.962 92.9327 560.202 92.3399 560.681 91.861C561.16 91.3821 561.753 91.1427 562.459 91.1427C563.144 91.1427 563.725 91.3821 564.204 91.861C564.683 92.3399 564.922 92.9327 564.922 93.6397C564.922 94.3466 564.683 94.9395 564.204 95.4183C563.725 95.8972 563.144 96.1366 562.459 96.1366ZM564.375 98.6336V117.481H560.476V98.6336H564.375ZM573.394 101.37C573.964 100.412 574.716 99.6712 575.651 99.1467C576.609 98.5994 577.738 98.3258 579.038 98.3258V102.362H578.046C576.518 102.362 575.355 102.75 574.557 103.525C573.782 104.3 573.394 105.646 573.394 107.561V117.481H569.494V98.6336H573.394V101.37ZM599.896 107.595C599.896 108.302 599.85 108.941 599.759 109.511H585.359C585.473 111.016 586.031 112.225 587.035 113.137C588.038 114.049 589.269 114.505 590.729 114.505C592.827 114.505 594.309 113.627 595.175 111.871H599.383C598.813 113.604 597.775 115.029 596.27 116.147C594.788 117.241 592.941 117.789 590.729 117.789C588.927 117.789 587.308 117.389 585.872 116.591C584.458 115.77 583.34 114.63 582.519 113.171C581.721 111.689 581.322 109.978 581.322 108.04C581.322 106.102 581.71 104.403 582.485 102.943C583.283 101.461 584.389 100.321 585.803 99.523C587.24 98.7248 588.882 98.3258 590.729 98.3258C592.507 98.3258 594.092 98.7134 595.483 99.4887C596.874 100.264 597.957 101.359 598.733 102.772C599.508 104.163 599.896 105.771 599.896 107.595ZM595.825 106.364C595.803 104.927 595.289 103.776 594.286 102.909C593.283 102.043 592.04 101.609 590.558 101.609C589.212 101.609 588.061 102.043 587.103 102.909C586.145 103.753 585.575 104.905 585.393 106.364H595.825ZM611.635 101.815H608.146V117.481H604.212V101.815H601.989V98.6336H604.212V97.2996C604.212 95.1333 604.782 93.5598 605.922 92.5793C607.085 91.5759 608.898 91.0743 611.361 91.0743V94.3238C610.175 94.3238 609.343 94.5518 608.864 95.0079C608.385 95.4411 608.146 96.205 608.146 97.2996V98.6336H611.635V101.815ZM618.99 101.37C619.56 100.412 620.312 99.6712 621.247 99.1467C622.205 98.5994 623.334 98.3258 624.634 98.3258V102.362H623.642C622.114 102.362 620.951 102.75 620.153 103.525C619.377 104.3 618.99 105.646 618.99 107.561V117.481H615.09V98.6336H618.99V101.37ZM626.918 107.972C626.918 106.079 627.306 104.403 628.081 102.943C628.879 101.484 629.951 100.355 631.296 99.5572C632.665 98.7362 634.17 98.3258 635.812 98.3258C637.294 98.3258 638.582 98.6222 639.677 99.2151C640.794 99.7852 641.683 100.504 642.345 101.37V98.6336H646.278V117.481H642.345V114.676C641.683 115.565 640.783 116.306 639.643 116.899C638.502 117.492 637.203 117.789 635.743 117.789C634.124 117.789 632.642 117.378 631.296 116.557C629.951 115.713 628.879 114.55 628.081 113.068C627.306 111.563 626.918 109.864 626.918 107.972ZM642.345 108.04C642.345 106.74 642.071 105.611 641.524 104.654C640.999 103.696 640.304 102.966 639.437 102.465C638.571 101.963 637.636 101.712 636.632 101.712C635.629 101.712 634.694 101.963 633.828 102.465C632.961 102.943 632.254 103.662 631.707 104.62C631.182 105.554 630.92 106.672 630.92 107.972C630.92 109.271 631.182 110.412 631.707 111.392C632.254 112.373 632.961 113.125 633.828 113.65C634.717 114.151 635.652 114.402 636.632 114.402C637.636 114.402 638.571 114.151 639.437 113.65C640.304 113.148 640.999 112.418 641.524 111.461C642.071 110.48 642.345 109.34 642.345 108.04ZM674.215 98.3258C675.697 98.3258 677.02 98.6336 678.183 99.2493C679.369 99.865 680.292 100.777 680.953 101.986C681.637 103.194 681.98 104.654 681.98 106.364V117.481H678.114V106.945C678.114 105.258 677.692 103.97 676.849 103.08C676.005 102.168 674.853 101.712 673.394 101.712C671.935 101.712 670.772 102.168 669.905 103.08C669.061 103.97 668.639 105.258 668.639 106.945V117.481H664.774V106.945C664.774 105.258 664.352 103.97 663.509 103.08C662.665 102.168 661.513 101.712 660.054 101.712C658.595 101.712 657.432 102.168 656.565 103.08C655.721 103.97 655.299 105.258 655.299 106.945V117.481H651.4V98.6336H655.299V100.789C655.938 100.013 656.747 99.4089 657.728 98.9757C658.709 98.5424 659.758 98.3258 660.875 98.3258C662.38 98.3258 663.725 98.645 664.911 99.2835C666.097 99.922 667.009 100.846 667.648 102.054C668.218 100.914 669.107 100.013 670.316 99.3519C671.524 98.6678 672.824 98.3258 674.215 98.3258ZM688.925 96.1366C688.218 96.1366 687.626 95.8972 687.147 95.4183C686.668 94.9395 686.428 94.3466 686.428 93.6397C686.428 92.9327 686.668 92.3399 687.147 91.861C687.626 91.3821 688.218 91.1427 688.925 91.1427C689.609 91.1427 690.191 91.3821 690.67 91.861C691.149 92.3399 691.388 92.9327 691.388 93.6397C691.388 94.3466 691.149 94.9395 690.67 95.4183C690.191 95.8972 689.609 96.1366 688.925 96.1366ZM690.841 98.6336V117.481H686.941V98.6336H690.841ZM705.469 98.3258C706.952 98.3258 708.274 98.6336 709.437 99.2493C710.623 99.865 711.547 100.777 712.208 101.986C712.869 103.194 713.2 104.654 713.2 106.364V117.481H709.335V106.945C709.335 105.258 708.913 103.97 708.069 103.08C707.225 102.168 706.074 101.712 704.614 101.712C703.155 101.712 701.992 102.168 701.125 103.08C700.282 103.97 699.86 105.258 699.86 106.945V117.481H695.96V98.6336H699.86V100.789C700.498 100.013 701.308 99.4089 702.288 98.9757C703.292 98.5424 704.352 98.3258 705.469 98.3258ZM725.767 98.3258C727.227 98.3258 728.515 98.6222 729.633 99.2151C730.773 99.7852 731.662 100.504 732.301 101.37V98.6336H736.234V117.789C736.234 119.522 735.869 121.061 735.14 122.406C734.41 123.774 733.35 124.846 731.958 125.622C730.59 126.397 728.948 126.785 727.033 126.785C724.479 126.785 722.358 126.18 720.671 124.972C718.983 123.786 718.026 122.167 717.798 120.115H721.663C721.959 121.095 722.586 121.882 723.544 122.475C724.525 123.09 725.688 123.398 727.033 123.398C728.606 123.398 729.872 122.919 730.83 121.962C731.81 121.004 732.301 119.613 732.301 117.789V114.642C731.639 115.531 730.739 116.284 729.598 116.899C728.481 117.492 727.204 117.789 725.767 117.789C724.125 117.789 722.62 117.378 721.252 116.557C719.907 115.713 718.835 114.55 718.037 113.068C717.262 111.563 716.874 109.864 716.874 107.972C716.874 106.079 717.262 104.403 718.037 102.943C718.835 101.484 719.907 100.355 721.252 99.5572C722.62 98.7362 724.125 98.3258 725.767 98.3258ZM732.301 108.04C732.301 106.74 732.027 105.611 731.48 104.654C730.955 103.696 730.26 102.966 729.393 102.465C728.527 101.963 727.592 101.712 726.588 101.712C725.585 101.712 724.65 101.963 723.783 102.465C722.917 102.943 722.21 103.662 721.663 104.62C721.138 105.554 720.876 106.672 720.876 107.972C720.876 109.271 721.138 110.412 721.663 111.392C722.21 112.373 722.917 113.125 723.783 113.65C724.673 114.151 725.608 114.402 726.588 114.402C727.592 114.402 728.527 114.151 729.393 113.65C730.26 113.148 730.955 112.418 731.48 111.461C732.027 110.48 732.301 109.34 732.301 108.04Z" fill="#09181B"/>
<rect x="772.706" y="67.6731" width="230.872" height="76.8463" rx="38.4231" stroke="#09181B" stroke-width="3.12339"/>
<path d="M788.676 114.76L793.738 90.8161H805.368C807.854 90.8161 809.906 91.4546 811.525 92.7316C813.144 93.9858 813.954 95.7758 813.954 98.1018C813.999 100.77 813.03 103.073 811.046 105.011C809.062 106.927 806.554 107.862 803.521 107.816H798.801L797.33 114.76H788.676ZM800.1 101.659H802.666C803.464 101.659 804.102 101.408 804.581 100.907C805.083 100.405 805.334 99.8235 805.334 99.1622C805.334 97.9308 804.57 97.3151 803.042 97.3151H801.024L800.1 101.659ZM812.449 114.76L816.109 97.4861H823.566C823.223 99.4244 822.38 101.34 821.034 103.233H824.147C824.786 101.043 825.549 99.4472 826.439 98.4439C827.351 97.4405 828.457 96.9388 829.757 96.9388C830.372 96.9388 830.977 97.0072 831.57 97.1441L829.962 104.669C828.936 104.464 828.046 104.361 827.294 104.361C824.375 104.361 822.619 105.844 822.026 108.808L820.761 114.76H812.449ZM830.613 107.508C830.613 104.316 831.674 101.75 833.795 99.8121C835.938 97.851 838.72 96.8704 842.141 96.8704C845.31 96.8704 847.762 97.6001 849.495 99.0596C851.251 100.496 852.129 102.457 852.129 104.943C852.129 108.113 851.08 110.644 848.982 112.536C846.884 114.429 844.125 115.375 840.704 115.375C837.511 115.375 835.026 114.68 833.247 113.289C831.491 111.898 830.613 109.971 830.613 107.508ZM843.406 104.635C843.406 102.925 842.893 102.07 841.867 102.07C841.092 102.07 840.476 102.64 840.02 103.78C839.564 104.897 839.336 106.186 839.336 107.645C839.336 108.557 839.45 109.219 839.678 109.629C839.906 110.017 840.282 110.21 840.807 110.21C841.605 110.21 842.232 109.652 842.688 108.534C843.167 107.394 843.406 106.094 843.406 104.635ZM854.345 110.074C854.345 109.458 854.436 108.66 854.618 107.679L855.679 102.617H852.566L853.661 97.4861H856.773L857.868 92.3553H865.838L864.743 97.4861H868.164L867.069 102.617H863.648L862.52 107.919C862.497 108.033 862.486 108.135 862.486 108.227C862.486 108.705 862.771 108.945 863.341 108.945H867.206L865.94 114.76H860.844C858.586 114.76 856.933 114.395 855.884 113.665C854.858 112.913 854.345 111.715 854.345 110.074ZM867.992 107.508C867.992 104.316 869.052 101.75 871.173 99.8121C873.317 97.851 876.099 96.8704 879.519 96.8704C882.689 96.8704 885.14 97.6001 886.873 99.0596C888.629 100.496 889.507 102.457 889.507 104.943C889.507 108.113 888.458 110.644 886.36 112.536C884.262 114.429 881.503 115.375 878.083 115.375C874.89 115.375 872.405 114.68 870.626 113.289C868.87 111.898 867.992 109.971 867.992 107.508ZM880.785 104.635C880.785 102.925 880.272 102.07 879.246 102.07C878.47 102.07 877.855 102.64 877.398 103.78C876.942 104.897 876.714 106.186 876.714 107.645C876.714 108.557 876.828 109.219 877.056 109.629C877.284 110.017 877.661 110.21 878.185 110.21C878.983 110.21 879.61 109.652 880.066 108.534C880.545 107.394 880.785 106.094 880.785 104.635ZM902.58 97.4861H910.653L900.494 115.615C899.673 117.12 898.897 118.306 898.168 119.172C896.936 120.677 894.895 121.43 892.045 121.43H885.649L886.88 115.615H891.669C892.011 115.615 892.25 115.546 892.387 115.41C892.547 115.296 892.729 115.056 892.934 114.691L893.516 113.631L888.077 97.4861H896.321L896.936 100.565C897.05 101.18 897.107 101.842 897.107 102.548C897.107 104.418 896.708 106.95 895.91 110.142H898.339C899.046 105.946 899.992 102.651 901.178 100.257L902.58 97.4861ZM906.546 121.43L911.643 97.4861H919.1C918.712 98.8087 918.017 99.9375 917.013 100.872L920.229 100.872C920.821 99.527 921.449 98.5237 922.11 97.8624C922.794 97.2011 923.74 96.8704 924.949 96.8704C926.614 96.8704 927.948 97.5317 928.951 98.8543C929.977 100.154 930.49 101.91 930.49 104.122C930.513 106.015 930.182 107.828 929.498 109.561C928.837 111.271 927.868 112.685 926.591 113.802C925.337 114.897 923.946 115.421 922.418 115.375C919.841 115.375 918.359 114.076 917.971 111.476H915.303C915.736 112.502 915.953 113.585 915.953 114.726C915.953 115.478 915.873 116.219 915.713 116.949L914.79 121.43H906.546ZM921.836 104.498C921.836 102.879 921.334 102.07 920.331 102.07C919.579 102.07 918.929 102.64 918.381 103.78C917.857 104.92 917.595 106.243 917.595 107.748C917.595 109.367 918.096 110.176 919.1 110.176C919.875 110.176 920.525 109.606 921.049 108.466C921.574 107.326 921.836 106.003 921.836 104.498ZM934.567 95.7758L935.832 89.7899H944.144L942.879 95.7758H934.567ZM930.496 114.76L934.19 97.4861H942.502L938.808 114.76L930.496 114.76ZM941.387 114.76L944.979 97.4861H952.162C951.843 98.8999 951.159 100.223 950.11 101.454H953.12C954.306 98.4211 956.118 96.9046 958.558 96.9046C959.904 96.9046 961.033 97.3265 961.945 98.1702C962.857 99.0139 963.313 100.268 963.313 101.933C963.313 102.685 963.233 103.392 963.074 104.054L960.816 114.76H952.573L954.693 104.806C954.739 104.396 954.762 104.156 954.762 104.088C954.762 103.176 954.351 102.72 953.53 102.72C952.618 102.72 952.025 103.415 951.752 104.806L949.631 114.76H941.387ZM961.559 118.933C961.559 117.086 962.824 115.946 965.356 115.512L965.835 113.392C963.987 113.3 963.064 112.696 963.064 111.579C963.064 110.826 963.452 110.131 964.227 109.492C965.025 108.854 966.131 108.455 967.545 108.295L967.989 106.243C966.872 105.581 966.313 104.601 966.313 103.301C966.313 101.363 967.077 99.8121 968.605 98.6491C970.156 97.4633 972.151 96.8704 974.591 96.8704C976.849 96.8704 978.593 97.2923 979.824 98.136C981.079 98.9569 981.786 100.097 981.945 101.557H983.895C984.351 98.8429 985.491 97.4861 987.315 97.4861H988.684L987.486 103.13H984.579C983.827 103.13 983.313 103.518 983.04 104.293L982.8 104.909C982.23 106.436 981.273 107.542 979.927 108.227C978.582 108.888 976.678 109.219 974.215 109.219C972.482 109.219 971.034 108.945 969.871 108.398C969.369 108.762 969.118 109.127 969.118 109.492C969.118 110.108 969.643 110.416 970.692 110.416H977.738C979.699 110.416 981.25 110.86 982.39 111.75C983.553 112.616 984.134 113.779 984.134 115.239C984.134 117.131 983.473 118.636 982.15 119.754C980.851 120.871 978.992 121.43 976.575 121.43H965.732C962.95 121.43 961.559 120.597 961.559 118.933ZM976.746 102.617C976.746 102.024 976.609 101.568 976.336 101.249C976.085 100.907 975.743 100.736 975.309 100.736C974.762 100.736 974.295 101.032 973.907 101.625C973.542 102.218 973.36 102.959 973.36 103.848C973.36 105.102 973.816 105.73 974.728 105.73C975.275 105.73 975.743 105.422 976.13 104.806C976.541 104.19 976.746 103.461 976.746 102.617ZM969.187 116.641H975.412C976.279 116.641 976.712 116.299 976.712 115.615C976.712 115.045 976.358 114.76 975.651 114.76H968.434C968.069 115.056 967.887 115.421 967.887 115.854C967.887 116.379 968.32 116.641 969.187 116.641Z" fill="#09181B"/>
<rect x="880.735" y="169.068" width="313.173" height="76.8463" rx="38.4231" stroke="#09181B" stroke-width="3.12339"/>
<path d="M905.735 215.144V198.053H917.051V201.033H909.348V205.105H916.3V208.084H909.348V215.144H905.735ZM919.208 215.144V202.326H922.655V204.563H922.788C923.022 203.767 923.414 203.166 923.965 202.76C924.516 202.348 925.15 202.143 925.868 202.143C926.046 202.143 926.238 202.154 926.443 202.176C926.649 202.198 926.83 202.229 926.986 202.268V205.422C926.819 205.372 926.588 205.328 926.293 205.289C925.998 205.25 925.729 205.23 925.484 205.23C924.961 205.23 924.494 205.344 924.082 205.572C923.676 205.795 923.353 206.106 923.114 206.507C922.88 206.908 922.763 207.369 922.763 207.892V215.144H919.208ZM934.019 215.395C932.723 215.395 931.602 215.119 930.656 214.568C929.715 214.012 928.989 213.239 928.478 212.249C927.966 211.253 927.71 210.098 927.71 208.785C927.71 207.461 927.966 206.304 928.478 205.314C928.989 204.318 929.715 203.544 930.656 202.994C931.602 202.437 932.723 202.159 934.019 202.159C935.315 202.159 936.433 202.437 937.374 202.994C938.319 203.544 939.048 204.318 939.56 205.314C940.072 206.304 940.328 207.461 940.328 208.785C940.328 210.098 940.072 211.253 939.56 212.249C939.048 213.239 938.319 214.012 937.374 214.568C936.433 215.119 935.315 215.395 934.019 215.395ZM934.036 212.641C934.625 212.641 935.118 212.474 935.513 212.14C935.908 211.801 936.205 211.339 936.406 210.755C936.611 210.171 936.714 209.506 936.714 208.76C936.714 208.015 936.611 207.35 936.406 206.766C936.205 206.182 935.908 205.72 935.513 205.38C935.118 205.041 934.625 204.871 934.036 204.871C933.44 204.871 932.94 205.041 932.533 205.38C932.133 205.72 931.83 206.182 931.624 206.766C931.423 207.35 931.323 208.015 931.323 208.76C931.323 209.506 931.423 210.171 931.624 210.755C931.83 211.339 932.133 211.801 932.533 212.14C932.94 212.474 933.44 212.641 934.036 212.641ZM946.194 207.734V215.144H942.639V202.326H946.028V204.588H946.178C946.461 203.842 946.937 203.252 947.605 202.818C948.272 202.379 949.082 202.159 950.033 202.159C950.923 202.159 951.699 202.354 952.362 202.743C953.024 203.133 953.538 203.689 953.905 204.412C954.273 205.13 954.456 205.987 954.456 206.983V215.144H950.901V207.617C950.907 206.832 950.706 206.221 950.3 205.781C949.894 205.336 949.335 205.113 948.623 205.113C948.144 205.113 947.722 205.216 947.354 205.422C946.993 205.628 946.709 205.928 946.503 206.323C946.303 206.713 946.2 207.183 946.194 207.734ZM964.076 202.326V204.997H956.357V202.326H964.076ZM958.109 199.255H961.664V211.205C961.664 211.534 961.714 211.79 961.814 211.973C961.915 212.151 962.054 212.276 962.232 212.349C962.415 212.421 962.627 212.457 962.866 212.457C963.033 212.457 963.2 212.443 963.367 212.415C963.534 212.382 963.662 212.357 963.751 212.34L964.31 214.986C964.132 215.041 963.881 215.105 963.559 215.178C963.236 215.256 962.844 215.303 962.382 215.32C961.525 215.353 960.774 215.239 960.129 214.977C959.489 214.716 958.991 214.31 958.635 213.759C958.279 213.208 958.104 212.513 958.109 211.673V199.255ZM972.096 215.395C970.777 215.395 969.642 215.128 968.691 214.594C967.745 214.054 967.016 213.292 966.504 212.307C965.993 211.317 965.737 210.146 965.737 208.794C965.737 207.475 965.993 206.318 966.504 205.322C967.016 204.326 967.737 203.55 968.666 202.994C969.601 202.437 970.697 202.159 971.954 202.159C972.8 202.159 973.587 202.296 974.316 202.568C975.05 202.835 975.69 203.239 976.235 203.778C976.786 204.318 977.214 204.997 977.52 205.814C977.826 206.627 977.979 207.578 977.979 208.668V209.645H967.155V207.442H974.633C974.633 206.93 974.521 206.476 974.299 206.081C974.076 205.686 973.768 205.378 973.373 205.155C972.983 204.927 972.53 204.813 972.012 204.813C971.473 204.813 970.994 204.938 970.577 205.188C970.165 205.433 969.843 205.764 969.609 206.182C969.375 206.593 969.256 207.052 969.25 207.559V209.653C969.25 210.287 969.367 210.835 969.601 211.297C969.84 211.759 970.176 212.115 970.61 212.365C971.044 212.616 971.559 212.741 972.154 212.741C972.549 212.741 972.911 212.685 973.239 212.574C973.567 212.463 973.848 212.296 974.082 212.073C974.316 211.851 974.494 211.578 974.616 211.255L977.904 211.472C977.737 212.262 977.395 212.952 976.878 213.542C976.366 214.126 975.704 214.582 974.891 214.911C974.085 215.233 973.153 215.395 972.096 215.395ZM983.854 207.734V215.144H980.299V202.326H983.687V204.588H983.837C984.121 203.842 984.597 203.252 985.264 202.818C985.932 202.379 986.742 202.159 987.693 202.159C988.583 202.159 989.359 202.354 990.021 202.743C990.683 203.133 991.198 203.689 991.565 204.412C991.932 205.13 992.116 205.987 992.116 206.983V215.144H988.561V207.617C988.566 206.832 988.366 206.221 987.96 205.781C987.554 205.336 986.995 205.113 986.283 205.113C985.804 205.113 985.381 205.216 985.014 205.422C984.652 205.628 984.369 205.928 984.163 206.323C983.963 206.713 983.86 207.183 983.854 207.734ZM999.641 215.353C998.667 215.353 997.786 215.103 996.996 214.602C996.211 214.096 995.588 213.353 995.126 212.374C994.67 211.389 994.442 210.182 994.442 208.752C994.442 207.283 994.678 206.062 995.151 205.088C995.624 204.109 996.253 203.378 997.037 202.894C997.827 202.404 998.693 202.159 999.633 202.159C1000.35 202.159 1000.95 202.282 1001.43 202.526C1001.91 202.766 1002.3 203.066 1002.6 203.428C1002.9 203.784 1003.12 204.134 1003.28 204.479H1003.39V198.053H1006.93V215.144H1003.43V213.091H1003.28C1003.11 213.447 1002.88 213.801 1002.57 214.151C1002.27 214.496 1001.88 214.783 1001.39 215.011C1000.92 215.239 1000.33 215.353 999.641 215.353ZM1000.77 212.524C1001.34 212.524 1001.82 212.368 1002.22 212.057C1002.62 211.739 1002.93 211.297 1003.14 210.73C1003.35 210.162 1003.46 209.497 1003.46 208.735C1003.46 207.973 1003.36 207.311 1003.15 206.749C1002.93 206.187 1002.63 205.753 1002.23 205.447C1001.83 205.141 1001.34 204.988 1000.77 204.988C1000.18 204.988 999.691 205.147 999.291 205.464C998.89 205.781 998.587 206.221 998.381 206.782C998.175 207.344 998.072 207.995 998.072 208.735C998.072 209.481 998.175 210.14 998.381 210.713C998.592 211.28 998.896 211.726 999.291 212.048C999.691 212.365 1000.18 212.524 1000.77 212.524ZM1021.42 215.144H1015.36V198.053H1021.47C1023.19 198.053 1024.67 198.396 1025.91 199.08C1027.15 199.759 1028.11 200.735 1028.77 202.009C1029.45 203.283 1029.78 204.807 1029.78 206.582C1029.78 208.362 1029.45 209.892 1028.77 211.172C1028.11 212.452 1027.15 213.434 1025.89 214.118C1024.65 214.802 1023.16 215.144 1021.42 215.144ZM1018.98 212.048H1021.27C1022.34 212.048 1023.24 211.859 1023.97 211.481C1024.7 211.097 1025.25 210.504 1025.62 209.703C1025.99 208.897 1026.18 207.856 1026.18 206.582C1026.18 205.319 1025.99 204.287 1025.62 203.486C1025.25 202.685 1024.7 202.095 1023.98 201.717C1023.25 201.339 1022.35 201.149 1021.28 201.149H1018.98V212.048ZM1038.24 215.395C1036.92 215.395 1035.78 215.128 1034.83 214.594C1033.88 214.054 1033.16 213.292 1032.64 212.307C1032.13 211.317 1031.88 210.146 1031.88 208.794C1031.88 207.475 1032.13 206.318 1032.64 205.322C1033.16 204.326 1033.88 203.55 1034.81 202.994C1035.74 202.437 1036.84 202.159 1038.09 202.159C1038.94 202.159 1039.73 202.296 1040.46 202.568C1041.19 202.835 1041.83 203.239 1042.37 203.778C1042.93 204.318 1043.35 204.997 1043.66 205.814C1043.97 206.627 1044.12 207.578 1044.12 208.668V209.645H1033.3V207.442H1040.77C1040.77 206.93 1040.66 206.476 1040.44 206.081C1040.22 205.686 1039.91 205.378 1039.51 205.155C1039.12 204.927 1038.67 204.813 1038.15 204.813C1037.61 204.813 1037.13 204.938 1036.72 205.188C1036.3 205.433 1035.98 205.764 1035.75 206.182C1035.51 206.593 1035.4 207.052 1035.39 207.559V209.653C1035.39 210.287 1035.51 210.835 1035.74 211.297C1035.98 211.759 1036.32 212.115 1036.75 212.365C1037.18 212.616 1037.7 212.741 1038.29 212.741C1038.69 212.741 1039.05 212.685 1039.38 212.574C1039.71 212.463 1039.99 212.296 1040.22 212.073C1040.46 211.851 1040.63 211.578 1040.76 211.255L1044.04 211.472C1043.88 212.262 1043.53 212.952 1043.02 213.542C1042.51 214.126 1041.84 214.582 1041.03 214.911C1040.22 215.233 1039.29 215.395 1038.24 215.395ZM1058.04 202.326L1053.56 215.144H1049.56L1045.08 202.326H1048.83L1051.49 211.497H1051.63L1054.28 202.326H1058.04ZM1065.29 215.395C1063.97 215.395 1062.84 215.128 1061.89 214.594C1060.94 214.054 1060.21 213.292 1059.7 212.307C1059.19 211.317 1058.93 210.146 1058.93 208.794C1058.93 207.475 1059.19 206.318 1059.7 205.322C1060.21 204.326 1060.93 203.55 1061.86 202.994C1062.8 202.437 1063.89 202.159 1065.15 202.159C1066 202.159 1066.78 202.296 1067.51 202.568C1068.25 202.835 1068.89 203.239 1069.43 203.778C1069.98 204.318 1070.41 204.997 1070.72 205.814C1071.02 206.627 1071.18 207.578 1071.18 208.668V209.645H1060.35V207.442H1067.83C1067.83 206.93 1067.72 206.476 1067.5 206.081C1067.27 205.686 1066.96 205.378 1066.57 205.155C1066.18 204.927 1065.73 204.813 1065.21 204.813C1064.67 204.813 1064.19 204.938 1063.77 205.188C1063.36 205.433 1063.04 205.764 1062.81 206.182C1062.57 206.593 1062.45 207.052 1062.45 207.559V209.653C1062.45 210.287 1062.56 210.835 1062.8 211.297C1063.04 211.759 1063.37 212.115 1063.81 212.365C1064.24 212.616 1064.76 212.741 1065.35 212.741C1065.75 212.741 1066.11 212.685 1066.44 212.574C1066.76 212.463 1067.05 212.296 1067.28 212.073C1067.51 211.851 1067.69 211.578 1067.81 211.255L1071.1 211.472C1070.93 212.262 1070.59 212.952 1070.07 213.542C1069.56 214.126 1068.9 214.582 1068.09 214.911C1067.28 215.233 1066.35 215.395 1065.29 215.395ZM1077.05 198.053V215.144H1073.5V198.053H1077.05ZM1085.69 215.395C1084.39 215.395 1083.27 215.119 1082.33 214.568C1081.39 214.012 1080.66 213.239 1080.15 212.249C1079.64 211.253 1079.38 210.098 1079.38 208.785C1079.38 207.461 1079.64 206.304 1080.15 205.314C1080.66 204.318 1081.39 203.544 1082.33 202.994C1083.27 202.437 1084.39 202.159 1085.69 202.159C1086.99 202.159 1088.1 202.437 1089.04 202.994C1089.99 203.544 1090.72 204.318 1091.23 205.314C1091.74 206.304 1092 207.461 1092 208.785C1092 210.098 1091.74 211.253 1091.23 212.249C1090.72 213.239 1089.99 214.012 1089.04 214.568C1088.1 215.119 1086.99 215.395 1085.69 215.395ZM1085.71 212.641C1086.3 212.641 1086.79 212.474 1087.18 212.14C1087.58 211.801 1087.88 211.339 1088.08 210.755C1088.28 210.171 1088.39 209.506 1088.39 208.76C1088.39 208.015 1088.28 207.35 1088.08 206.766C1087.88 206.182 1087.58 205.72 1087.18 205.38C1086.79 205.041 1086.3 204.871 1085.71 204.871C1085.11 204.871 1084.61 205.041 1084.2 205.38C1083.8 205.72 1083.5 206.182 1083.3 206.766C1083.09 207.35 1082.99 208.015 1082.99 208.76C1082.99 209.506 1083.09 210.171 1083.3 210.755C1083.5 211.339 1083.8 211.801 1084.2 212.14C1084.61 212.474 1085.11 212.641 1085.71 212.641ZM1094.31 219.951V202.326H1097.82V204.479H1097.97C1098.13 204.134 1098.36 203.784 1098.65 203.428C1098.95 203.066 1099.34 202.766 1099.82 202.526C1100.3 202.282 1100.9 202.159 1101.62 202.159C1102.56 202.159 1103.42 202.404 1104.21 202.894C1105 203.378 1105.63 204.109 1106.1 205.088C1106.58 206.062 1106.81 207.283 1106.81 208.752C1106.81 210.182 1106.58 211.389 1106.12 212.374C1105.66 213.353 1105.04 214.096 1104.25 214.602C1103.47 215.103 1102.59 215.353 1101.61 215.353C1100.92 215.353 1100.34 215.239 1099.85 215.011C1099.37 214.783 1098.98 214.496 1098.68 214.151C1098.37 213.801 1098.14 213.447 1097.97 213.091H1097.87V219.951H1094.31ZM1097.79 208.735C1097.79 209.497 1097.9 210.162 1098.11 210.73C1098.32 211.297 1098.63 211.739 1099.03 212.057C1099.43 212.368 1099.91 212.524 1100.49 212.524C1101.06 212.524 1101.55 212.365 1101.95 212.048C1102.36 211.726 1102.66 211.28 1102.86 210.713C1103.08 210.14 1103.18 209.481 1103.18 208.735C1103.18 207.995 1103.08 207.344 1102.87 206.782C1102.67 206.221 1102.36 205.781 1101.96 205.464C1101.56 205.147 1101.07 204.988 1100.49 204.988C1099.91 204.988 1099.42 205.141 1099.02 205.447C1098.62 205.753 1098.32 206.187 1098.11 206.749C1097.9 207.311 1097.79 207.973 1097.79 208.735ZM1109.18 215.144V202.326H1112.57V204.588H1112.72C1112.99 203.837 1113.43 203.244 1114.06 202.81C1114.68 202.376 1115.42 202.159 1116.29 202.159C1117.17 202.159 1117.92 202.379 1118.54 202.818C1119.15 203.252 1119.57 203.842 1119.77 204.588H1119.91C1120.17 203.853 1120.64 203.266 1121.32 202.827C1122.01 202.382 1122.83 202.159 1123.77 202.159C1124.97 202.159 1125.94 202.54 1126.68 203.302C1127.43 204.059 1127.81 205.133 1127.81 206.524V215.144H1124.26V207.225C1124.26 206.513 1124.07 205.979 1123.69 205.622C1123.32 205.266 1122.84 205.088 1122.28 205.088C1121.63 205.088 1121.13 205.294 1120.76 205.706C1120.4 206.112 1120.22 206.649 1120.22 207.317V215.144H1116.78V207.15C1116.78 206.521 1116.6 206.02 1116.23 205.647C1115.88 205.275 1115.41 205.088 1114.82 205.088C1114.43 205.088 1114.07 205.188 1113.76 205.389C1113.44 205.584 1113.2 205.859 1113.01 206.215C1112.83 206.565 1112.74 206.977 1112.74 207.45V215.144H1109.18ZM1136.46 215.395C1135.14 215.395 1134 215.128 1133.05 214.594C1132.11 214.054 1131.38 213.292 1130.87 212.307C1130.35 211.317 1130.1 210.146 1130.1 208.794C1130.1 207.475 1130.35 206.318 1130.87 205.322C1131.38 204.326 1132.1 203.55 1133.03 202.994C1133.96 202.437 1135.06 202.159 1136.32 202.159C1137.16 202.159 1137.95 202.296 1138.68 202.568C1139.41 202.835 1140.05 203.239 1140.6 203.778C1141.15 204.318 1141.58 204.997 1141.88 205.814C1142.19 206.627 1142.34 207.578 1142.34 208.668V209.645H1131.52V207.442H1138.99C1138.99 206.93 1138.88 206.476 1138.66 206.081C1138.44 205.686 1138.13 205.378 1137.73 205.155C1137.35 204.927 1136.89 204.813 1136.37 204.813C1135.83 204.813 1135.36 204.938 1134.94 205.188C1134.53 205.433 1134.2 205.764 1133.97 206.182C1133.74 206.593 1133.62 207.052 1133.61 207.559V209.653C1133.61 210.287 1133.73 210.835 1133.96 211.297C1134.2 211.759 1134.54 212.115 1134.97 212.365C1135.41 212.616 1135.92 212.741 1136.52 212.741C1136.91 212.741 1137.27 212.685 1137.6 212.574C1137.93 212.463 1138.21 212.296 1138.44 212.073C1138.68 211.851 1138.86 211.578 1138.98 211.255L1142.27 211.472C1142.1 212.262 1141.76 212.952 1141.24 213.542C1140.73 214.126 1140.07 214.582 1139.25 214.911C1138.45 215.233 1137.52 215.395 1136.46 215.395ZM1148.22 207.734V215.144H1144.66V202.326H1148.05V204.588H1148.2C1148.48 203.842 1148.96 203.252 1149.63 202.818C1150.29 202.379 1151.1 202.159 1152.06 202.159C1152.95 202.159 1153.72 202.354 1154.38 202.743C1155.05 203.133 1155.56 203.689 1155.93 204.412C1156.29 205.13 1156.48 205.987 1156.48 206.983V215.144H1152.92V207.617C1152.93 206.832 1152.73 206.221 1152.32 205.781C1151.92 205.336 1151.36 205.113 1150.64 205.113C1150.17 205.113 1149.74 205.216 1149.38 205.422C1149.01 205.628 1148.73 205.928 1148.53 206.323C1148.32 206.713 1148.22 207.183 1148.22 207.734ZM1166.1 202.326V204.997H1158.38V202.326H1166.1ZM1160.13 199.255H1163.69V211.205C1163.69 211.534 1163.74 211.79 1163.84 211.973C1163.94 212.151 1164.08 212.276 1164.25 212.349C1164.44 212.421 1164.65 212.457 1164.89 212.457C1165.05 212.457 1165.22 212.443 1165.39 212.415C1165.56 212.382 1165.68 212.357 1165.77 212.34L1166.33 214.986C1166.15 215.041 1165.9 215.105 1165.58 215.178C1165.26 215.256 1164.87 215.303 1164.4 215.32C1163.55 215.353 1162.8 215.239 1162.15 214.977C1161.51 214.716 1161.01 214.31 1160.66 213.759C1160.3 213.208 1160.13 212.513 1160.13 211.673V199.255Z" fill="#09181B"/>
<rect x="1016.4" y="67.6731" width="212.701" height="76.8463" rx="38.4231" stroke="#09181B" stroke-width="3.12339"/>
<path d="M1058.65 92.8737H1062.41V109.235C1062.41 110.976 1062 112.519 1061.19 113.863C1060.37 115.199 1059.22 116.252 1057.74 117.021C1056.26 117.783 1054.52 118.163 1052.53 118.163C1050.54 118.163 1048.81 117.783 1047.33 117.021C1045.85 116.252 1044.7 115.199 1043.88 113.863C1043.06 112.519 1042.65 110.976 1042.65 109.235V92.8737H1046.4V108.932C1046.4 110.057 1046.65 111.057 1047.15 111.932C1047.65 112.807 1048.36 113.495 1049.27 113.997C1050.19 114.491 1051.27 114.738 1052.53 114.738C1053.79 114.738 1054.88 114.491 1055.79 113.997C1056.72 113.495 1057.42 112.807 1057.91 111.932C1058.4 111.057 1058.65 110.057 1058.65 108.932V92.8737ZM1081.56 103.648L1078.27 104.231C1078.13 103.81 1077.91 103.409 1077.61 103.028C1077.32 102.648 1076.92 102.336 1076.42 102.093C1075.92 101.85 1075.29 101.729 1074.54 101.729C1073.51 101.729 1072.65 101.959 1071.96 102.421C1071.28 102.875 1070.93 103.462 1070.93 104.182C1070.93 104.806 1071.16 105.308 1071.62 105.689C1072.09 106.069 1072.83 106.381 1073.86 106.624L1076.82 107.304C1078.54 107.701 1079.82 108.312 1080.66 109.138C1081.5 109.964 1081.92 111.037 1081.92 112.357C1081.92 113.475 1081.6 114.471 1080.95 115.345C1080.31 116.212 1079.42 116.892 1078.27 117.386C1077.13 117.88 1075.8 118.127 1074.3 118.127C1072.21 118.127 1070.5 117.681 1069.18 116.791C1067.86 115.892 1067.05 114.616 1066.75 112.964L1070.26 112.43C1070.48 113.345 1070.93 114.037 1071.61 114.507C1072.29 114.969 1073.18 115.199 1074.27 115.199C1075.46 115.199 1076.41 114.952 1077.13 114.458C1077.84 113.956 1078.2 113.345 1078.2 112.624C1078.2 112.041 1077.98 111.551 1077.54 111.155C1077.11 110.758 1076.45 110.458 1075.56 110.256L1072.4 109.563C1070.66 109.167 1069.37 108.535 1068.54 107.668C1067.71 106.802 1067.3 105.705 1067.3 104.377C1067.3 103.275 1067.61 102.312 1068.22 101.486C1068.84 100.66 1069.69 100.016 1070.77 99.5544C1071.86 99.0847 1073.1 98.8499 1074.5 98.8499C1076.52 98.8499 1078.11 99.2872 1079.26 100.162C1080.42 101.028 1081.19 102.19 1081.56 103.648ZM1093.96 118.127C1092.12 118.127 1090.54 117.734 1089.21 116.949C1087.89 116.155 1086.87 115.042 1086.15 113.608C1085.44 112.167 1085.08 110.478 1085.08 108.543C1085.08 106.632 1085.44 104.948 1086.15 103.49C1086.87 102.032 1087.87 100.895 1089.16 100.077C1090.46 99.2588 1091.97 98.8499 1093.7 98.8499C1094.76 98.8499 1095.78 99.024 1096.76 99.3722C1097.75 99.7204 1098.64 100.267 1099.43 101.012C1100.21 101.757 1100.83 102.725 1101.28 103.915C1101.74 105.097 1101.96 106.535 1101.96 108.227V109.515H1087.13V106.794H1098.4C1098.4 105.838 1098.21 104.992 1097.82 104.255C1097.43 103.51 1096.89 102.923 1096.18 102.494C1095.49 102.065 1094.67 101.85 1093.73 101.85C1092.71 101.85 1091.82 102.101 1091.06 102.603C1090.3 103.097 1089.72 103.745 1089.31 104.547C1088.9 105.34 1088.7 106.203 1088.7 107.134V109.26C1088.7 110.507 1088.92 111.568 1089.36 112.442C1089.8 113.317 1090.42 113.985 1091.21 114.446C1092.01 114.9 1092.93 115.127 1094 115.127C1094.68 115.127 1095.31 115.029 1095.88 114.835C1096.45 114.633 1096.93 114.333 1097.35 113.936C1097.76 113.539 1098.08 113.049 1098.3 112.466L1101.73 113.086C1101.46 114.098 1100.96 114.985 1100.25 115.746C1099.55 116.499 1098.66 117.086 1097.59 117.507C1096.53 117.92 1095.32 118.127 1093.96 118.127ZM1105.99 117.75V99.0928H1109.5V102.057H1109.7C1110.04 101.053 1110.64 100.263 1111.5 99.688C1112.36 99.105 1113.34 98.8135 1114.44 98.8135C1114.66 98.8135 1114.93 98.8216 1115.24 98.8378C1115.55 98.8539 1115.8 98.8742 1115.98 98.8985V102.372C1115.83 102.332 1115.57 102.287 1115.2 102.239C1114.83 102.182 1114.46 102.154 1114.08 102.154C1113.22 102.154 1112.46 102.336 1111.79 102.7C1111.12 103.057 1110.6 103.555 1110.21 104.194C1109.82 104.826 1109.63 105.547 1109.63 106.357V117.75H1105.99ZM1128.46 117.75V92.8737H1143.89V96.1047H1132.22V103.684H1142.79V106.903H1132.22V117.75H1128.46ZM1151.85 92.8737V117.75H1148.22V92.8737H1151.85ZM1164.59 118.127C1162.84 118.127 1161.32 117.726 1160.01 116.924C1158.71 116.123 1157.7 115.001 1156.98 113.56C1156.26 112.118 1155.9 110.434 1155.9 108.507C1155.9 106.571 1156.26 104.879 1156.98 103.429C1157.7 101.98 1158.71 100.854 1160.01 100.052C1161.32 99.2507 1162.84 98.8499 1164.59 98.8499C1166.34 98.8499 1167.87 99.2507 1169.17 100.052C1170.48 100.854 1171.49 101.98 1172.21 103.429C1172.93 104.879 1173.29 106.571 1173.29 108.507C1173.29 110.434 1172.93 112.118 1172.21 113.56C1171.49 115.001 1170.48 116.123 1169.17 116.924C1167.87 117.726 1166.34 118.127 1164.59 118.127ZM1164.6 115.078C1165.74 115.078 1166.68 114.778 1167.42 114.179C1168.17 113.58 1168.72 112.782 1169.07 111.786C1169.44 110.79 1169.62 109.693 1169.62 108.494C1169.62 107.304 1169.44 106.211 1169.07 105.215C1168.72 104.211 1168.17 103.405 1167.42 102.798C1166.68 102.19 1165.74 101.887 1164.6 101.887C1163.46 101.887 1162.52 102.19 1161.76 102.798C1161.02 103.405 1160.46 104.211 1160.1 105.215C1159.74 106.211 1159.56 107.304 1159.56 108.494C1159.56 109.693 1159.74 110.79 1160.1 111.786C1160.46 112.782 1161.02 113.58 1161.76 114.179C1162.52 114.778 1163.46 115.078 1164.6 115.078ZM1180.82 117.75L1175.33 99.0928H1179.08L1182.74 112.794H1182.92L1186.59 99.0928H1190.34L1193.99 112.734H1194.17L1197.8 99.0928H1201.55L1196.08 117.75H1192.37L1188.58 104.279H1188.3L1184.51 117.75H1180.82Z" fill="#09181B"/>
<rect x="545.113" y="169.068" width="322.793" height="76.8463" rx="38.4231" fill="#09181B" stroke="#09181B" stroke-width="3.12339"/>
<path d="M596.299 202.357H592.509C592.363 201.548 592.092 200.835 591.695 200.22C591.298 199.604 590.812 199.082 590.237 198.653C589.662 198.224 589.019 197.9 588.306 197.681C587.602 197.462 586.852 197.353 586.059 197.353C584.626 197.353 583.342 197.713 582.208 198.434C581.083 199.155 580.192 200.212 579.536 201.604C578.888 202.997 578.564 204.698 578.564 206.706C578.564 208.73 578.888 210.439 579.536 211.832C580.192 213.225 581.087 214.277 582.22 214.99C583.354 215.703 584.63 216.059 586.047 216.059C586.832 216.059 587.577 215.954 588.282 215.743C588.994 215.525 589.638 215.205 590.213 214.784C590.788 214.363 591.274 213.848 591.671 213.241C592.076 212.626 592.355 211.921 592.509 211.127L596.299 211.14C596.096 212.362 595.703 213.488 595.12 214.516C594.545 215.537 593.804 216.419 592.897 217.164C591.999 217.901 590.97 218.472 589.812 218.877C588.654 219.282 587.391 219.484 586.022 219.484C583.868 219.484 581.949 218.974 580.265 217.954C578.581 216.925 577.252 215.456 576.281 213.545C575.317 211.634 574.835 209.354 574.835 206.706C574.835 204.05 575.321 201.77 576.293 199.867C577.265 197.956 578.593 196.491 580.277 195.47C581.961 194.442 583.876 193.928 586.022 193.928C587.342 193.928 588.573 194.118 589.715 194.499C590.865 194.871 591.897 195.422 592.812 196.15C593.728 196.871 594.485 197.754 595.084 198.798C595.683 199.835 596.088 201.021 596.299 202.357ZM600.498 219.144V200.487H604.009V203.451H604.203C604.543 202.447 605.142 201.657 606.001 201.082C606.867 200.499 607.847 200.207 608.94 200.207C609.167 200.207 609.434 200.216 609.742 200.232C610.058 200.248 610.305 200.268 610.483 200.293V203.766C610.337 203.726 610.078 203.681 609.706 203.633C609.333 203.576 608.961 203.548 608.588 203.548C607.73 203.548 606.964 203.73 606.292 204.094C605.628 204.451 605.102 204.949 604.713 205.589C604.325 206.22 604.13 206.941 604.13 207.751V219.144H600.498ZM613.626 219.144V200.487H617.258V219.144H613.626ZM615.46 197.608C614.828 197.608 614.286 197.398 613.832 196.976C613.387 196.547 613.164 196.037 613.164 195.446C613.164 194.847 613.387 194.337 613.832 193.915C614.286 193.486 614.828 193.272 615.46 193.272C616.092 193.272 616.63 193.486 617.076 193.915C617.529 194.337 617.756 194.847 617.756 195.446C617.756 196.037 617.529 196.547 617.076 196.976C616.63 197.398 616.092 197.608 615.46 197.608ZM630.853 200.487V203.402H620.662V200.487H630.853ZM623.395 196.017H627.027V213.666C627.027 214.371 627.132 214.901 627.343 215.257C627.553 215.606 627.824 215.844 628.156 215.974C628.497 216.095 628.865 216.156 629.262 216.156C629.553 216.156 629.808 216.136 630.027 216.095C630.246 216.055 630.416 216.023 630.537 215.998L631.193 218.999C630.983 219.08 630.683 219.16 630.294 219.241C629.906 219.331 629.42 219.379 628.837 219.387C627.881 219.403 626.99 219.233 626.164 218.877C625.338 218.521 624.67 217.97 624.16 217.225C623.65 216.48 623.395 215.545 623.395 214.419V196.017ZM634.871 219.144V200.487H638.502V219.144H634.871ZM636.705 197.608C636.073 197.608 635.531 197.398 635.077 196.976C634.632 196.547 634.409 196.037 634.409 195.446C634.409 194.847 634.632 194.337 635.077 193.915C635.531 193.486 636.073 193.272 636.705 193.272C637.336 193.272 637.875 193.486 638.32 193.915C638.774 194.337 639 194.847 639 195.446C639 196.037 638.774 196.547 638.32 196.976C637.875 197.398 637.336 197.608 636.705 197.608ZM651.247 219.521C649.442 219.521 647.887 219.112 646.583 218.294C645.287 217.468 644.291 216.33 643.595 214.881C642.899 213.431 642.55 211.771 642.55 209.901C642.55 208.006 642.907 206.334 643.619 204.884C644.332 203.426 645.336 202.289 646.632 201.471C647.927 200.653 649.454 200.244 651.211 200.244C652.628 200.244 653.891 200.507 655.001 201.033C656.11 201.552 657.005 202.281 657.685 203.22C658.374 204.159 658.782 205.257 658.912 206.512H655.377C655.183 205.637 654.738 204.884 654.041 204.252C653.353 203.621 652.43 203.305 651.272 203.305C650.26 203.305 649.373 203.572 648.612 204.107C647.859 204.633 647.271 205.386 646.85 206.366C646.429 207.338 646.219 208.488 646.219 209.816C646.219 211.176 646.425 212.35 646.838 213.338C647.251 214.326 647.834 215.091 648.587 215.634C649.349 216.176 650.243 216.448 651.272 216.448C651.96 216.448 652.584 216.322 653.142 216.071C653.709 215.812 654.183 215.444 654.564 214.966C654.952 214.488 655.223 213.913 655.377 213.241H658.912C658.782 214.448 658.39 215.525 657.734 216.472C657.078 217.419 656.199 218.164 655.098 218.707C654.005 219.25 652.721 219.521 651.247 219.521ZM668.226 219.557C667.043 219.557 665.974 219.339 665.019 218.901C664.063 218.456 663.306 217.812 662.747 216.97C662.197 216.128 661.921 215.095 661.921 213.873C661.921 212.82 662.124 211.953 662.529 211.273C662.934 210.593 663.48 210.054 664.169 209.658C664.857 209.261 665.626 208.961 666.476 208.759C667.327 208.556 668.193 208.403 669.076 208.297C670.193 208.168 671.1 208.062 671.797 207.981C672.493 207.892 672.999 207.751 673.315 207.556C673.631 207.362 673.789 207.046 673.789 206.609V206.524C673.789 205.463 673.489 204.641 672.89 204.058C672.299 203.475 671.416 203.183 670.242 203.183C669.019 203.183 668.056 203.455 667.351 203.997C666.655 204.532 666.173 205.127 665.906 205.783L662.492 205.005C662.897 203.872 663.488 202.957 664.266 202.26C665.051 201.556 665.954 201.046 666.974 200.73C667.995 200.406 669.068 200.244 670.193 200.244C670.938 200.244 671.728 200.333 672.562 200.511C673.404 200.681 674.19 200.997 674.918 201.459C675.655 201.92 676.259 202.58 676.728 203.439C677.198 204.289 677.433 205.394 677.433 206.755V219.144H673.886V216.593H673.74C673.505 217.063 673.153 217.525 672.683 217.978C672.214 218.432 671.61 218.808 670.874 219.108C670.137 219.407 669.254 219.557 668.226 219.557ZM669.015 216.642C670.019 216.642 670.878 216.444 671.59 216.047C672.311 215.65 672.858 215.132 673.23 214.492C673.611 213.844 673.801 213.152 673.801 212.415V210.01C673.671 210.139 673.42 210.261 673.048 210.374C672.683 210.48 672.266 210.573 671.797 210.654C671.327 210.727 670.87 210.795 670.424 210.86C669.979 210.917 669.606 210.965 669.307 211.006C668.602 211.095 667.958 211.245 667.375 211.455C666.8 211.666 666.339 211.97 665.991 212.366C665.65 212.755 665.48 213.273 665.48 213.921C665.48 214.82 665.812 215.5 666.476 215.962C667.14 216.415 667.987 216.642 669.015 216.642ZM685.902 194.268V219.144H682.27V194.268H685.902ZM698.905 197.499V194.268H718.158V197.499H710.396V219.144H706.655V197.499H698.905ZM725.753 208.066V219.144H722.121V194.268H725.704V203.524H725.935C726.372 202.519 727.04 201.722 727.939 201.131C728.838 200.54 730.012 200.244 731.462 200.244C732.741 200.244 733.859 200.507 734.814 201.033C735.778 201.56 736.523 202.345 737.049 203.39C737.584 204.426 737.851 205.722 737.851 207.277V219.144H734.219V207.714C734.219 206.346 733.867 205.285 733.162 204.532C732.458 203.771 731.478 203.39 730.223 203.39C729.364 203.39 728.595 203.572 727.915 203.937C727.243 204.301 726.712 204.835 726.323 205.54C725.943 206.236 725.753 207.079 725.753 208.066ZM742.697 219.144V200.487H746.329V219.144H742.697ZM744.531 197.608C743.9 197.608 743.357 197.398 742.904 196.976C742.458 196.547 742.236 196.037 742.236 195.446C742.236 194.847 742.458 194.337 742.904 193.915C743.357 193.486 743.9 193.272 744.531 193.272C745.163 193.272 745.702 193.486 746.147 193.915C746.6 194.337 746.827 194.847 746.827 195.446C746.827 196.037 746.6 196.547 746.147 196.976C745.702 197.398 745.163 197.608 744.531 197.608ZM754.847 208.066V219.144H751.215V200.487H754.701V203.524H754.932C755.361 202.536 756.033 201.742 756.948 201.143C757.872 200.544 759.034 200.244 760.435 200.244C761.706 200.244 762.819 200.511 763.775 201.046C764.73 201.572 765.471 202.357 765.998 203.402C766.524 204.447 766.787 205.738 766.787 207.277V219.144H763.155V207.714C763.155 206.362 762.803 205.305 762.099 204.544C761.394 203.775 760.426 203.39 759.196 203.39C758.353 203.39 757.604 203.572 756.948 203.937C756.301 204.301 755.786 204.835 755.406 205.54C755.033 206.236 754.847 207.079 754.847 208.066ZM774.999 212.816L774.974 208.382H775.606L783.04 200.487H787.388L778.91 209.475H778.339L774.999 212.816ZM771.658 219.144V194.268H775.29V219.144H771.658ZM783.441 219.144L776.76 210.277L779.262 207.738L787.898 219.144H783.441ZM790.698 219.144V200.487H794.33V219.144H790.698ZM792.532 197.608C791.901 197.608 791.358 197.398 790.905 196.976C790.459 196.547 790.237 196.037 790.237 195.446C790.237 194.847 790.459 194.337 790.905 193.915C791.358 193.486 791.901 193.272 792.532 193.272C793.164 193.272 793.703 193.486 794.148 193.915C794.601 194.337 794.828 194.847 794.828 195.446C794.828 196.037 794.601 196.547 794.148 196.976C793.703 197.398 793.164 197.608 792.532 197.608ZM802.848 208.066V219.144H799.216V200.487H802.702V203.524H802.933C803.362 202.536 804.034 201.742 804.949 201.143C805.873 200.544 807.035 200.244 808.436 200.244C809.707 200.244 810.82 200.511 811.776 201.046C812.731 201.572 813.472 202.357 813.999 203.402C814.525 204.447 814.788 205.738 814.788 207.277V219.144H811.156V207.714C811.156 206.362 810.804 205.305 810.1 204.544C809.395 203.775 808.427 203.39 807.197 203.39C806.354 203.39 805.605 203.572 804.949 203.937C804.302 204.301 803.787 204.835 803.407 205.54C803.034 206.236 802.848 207.079 802.848 208.066ZM827.482 226.53C826 226.53 824.724 226.335 823.655 225.946C822.595 225.558 821.728 225.044 821.056 224.404C820.384 223.764 819.882 223.064 819.55 222.302L822.672 221.015C822.89 221.371 823.182 221.748 823.546 222.145C823.919 222.549 824.421 222.894 825.052 223.177C825.692 223.46 826.514 223.602 827.518 223.602C828.895 223.602 830.032 223.266 830.931 222.594C831.83 221.93 832.28 220.869 832.28 219.412V215.743H832.049C831.83 216.14 831.514 216.581 831.101 217.067C830.696 217.553 830.138 217.974 829.425 218.33C828.712 218.687 827.785 218.865 826.644 218.865C825.17 218.865 823.842 218.521 822.659 217.832C821.485 217.136 820.554 216.112 819.866 214.759C819.185 213.399 818.845 211.727 818.845 209.743C818.845 207.759 819.181 206.058 819.853 204.641C820.534 203.224 821.465 202.139 822.647 201.386C823.83 200.625 825.17 200.244 826.668 200.244C827.826 200.244 828.761 200.438 829.474 200.827C830.186 201.208 830.741 201.653 831.138 202.163C831.543 202.673 831.854 203.123 832.073 203.511H832.34V200.487H835.899V219.557C835.899 221.161 835.527 222.477 834.782 223.505C834.037 224.533 833.029 225.295 831.757 225.789C830.494 226.283 829.069 226.53 827.482 226.53ZM827.445 215.853C828.49 215.853 829.372 215.61 830.093 215.124C830.822 214.63 831.373 213.925 831.745 213.01C832.126 212.087 832.316 210.982 832.316 209.694C832.316 208.439 832.13 207.334 831.757 206.378C831.385 205.423 830.838 204.678 830.117 204.143C829.397 203.6 828.506 203.329 827.445 203.329C826.352 203.329 825.441 203.613 824.712 204.179C823.983 204.738 823.433 205.499 823.06 206.463C822.696 207.427 822.514 208.504 822.514 209.694C822.514 210.917 822.7 211.99 823.072 212.913C823.445 213.836 823.996 214.557 824.724 215.075C825.461 215.593 826.368 215.853 827.445 215.853Z" fill="white"/>
<rect x="200.871" y="67.6731" width="290.728" height="76.8463" rx="38.4231" fill="#09181B" stroke="#09181B" stroke-width="3.12339"/>
<path d="M241.914 92.8732H247.174V109.028C247.174 110.842 246.741 112.429 245.874 113.79C245.016 115.15 243.813 116.211 242.266 116.972C240.72 117.725 238.918 118.102 236.861 118.102C234.796 118.102 232.99 117.725 231.444 116.972C229.897 116.211 228.695 115.15 227.836 113.79C226.978 112.429 226.549 110.842 226.549 109.028V92.8732H231.808V108.579C231.808 109.526 232.015 110.369 232.428 111.105C232.849 111.842 233.44 112.421 234.201 112.842C234.962 113.264 235.849 113.474 236.861 113.474C237.882 113.474 238.768 113.264 239.521 112.842C240.283 112.421 240.87 111.842 241.283 111.105C241.704 110.369 241.914 109.526 241.914 108.579V92.8732ZM266.927 104.413L262.19 104.704C262.109 104.299 261.935 103.935 261.668 103.611C261.401 103.279 261.048 103.016 260.611 102.821C260.182 102.619 259.668 102.518 259.068 102.518C258.267 102.518 257.591 102.688 257.04 103.028C256.489 103.36 256.214 103.805 256.214 104.364C256.214 104.809 256.392 105.186 256.748 105.494C257.105 105.801 257.716 106.048 258.583 106.235L261.959 106.915C263.773 107.287 265.126 107.887 266.016 108.713C266.907 109.539 267.353 110.624 267.353 111.968C267.353 113.191 266.992 114.264 266.272 115.187C265.559 116.11 264.579 116.831 263.332 117.349C262.093 117.859 260.664 118.114 259.044 118.114C256.574 118.114 254.607 117.6 253.141 116.572C251.683 115.535 250.829 114.126 250.578 112.344L255.667 112.077C255.821 112.83 256.194 113.405 256.785 113.802C257.376 114.191 258.133 114.385 259.056 114.385C259.963 114.385 260.692 114.211 261.243 113.863C261.802 113.506 262.085 113.049 262.093 112.49C262.085 112.021 261.887 111.636 261.498 111.336C261.109 111.029 260.51 110.794 259.7 110.632L256.469 109.988C254.647 109.624 253.291 108.992 252.4 108.093C251.517 107.194 251.076 106.048 251.076 104.656C251.076 103.457 251.4 102.425 252.048 101.558C252.704 100.692 253.623 100.024 254.805 99.5539C255.995 99.0842 257.388 98.8494 258.983 98.8494C261.34 98.8494 263.194 99.3474 264.547 100.343C265.907 101.339 266.701 102.696 266.927 104.413ZM279.114 118.114C277.194 118.114 275.543 117.725 274.158 116.948C272.781 116.163 271.72 115.053 270.975 113.62C270.23 112.178 269.858 110.474 269.858 108.506C269.858 106.587 270.23 104.903 270.975 103.453C271.72 102.004 272.769 100.874 274.121 100.064C275.482 99.2543 277.077 98.8494 278.907 98.8494C280.138 98.8494 281.284 99.0478 282.345 99.4446C283.414 99.8333 284.345 100.42 285.138 101.206C285.94 101.991 286.564 102.979 287.009 104.17C287.454 105.352 287.677 106.737 287.677 108.324V109.745H271.923V106.538H282.806C282.806 105.793 282.644 105.133 282.32 104.558C281.996 103.983 281.547 103.534 280.972 103.21C280.405 102.878 279.745 102.712 278.992 102.712C278.207 102.712 277.51 102.894 276.903 103.259C276.304 103.615 275.834 104.097 275.494 104.704C275.154 105.303 274.98 105.971 274.972 106.708V109.757C274.972 110.68 275.142 111.478 275.482 112.15C275.83 112.822 276.32 113.34 276.952 113.705C277.583 114.069 278.332 114.251 279.199 114.251C279.774 114.251 280.3 114.171 280.778 114.009C281.256 113.847 281.664 113.604 282.005 113.28C282.345 112.956 282.604 112.559 282.782 112.089L287.568 112.405C287.325 113.555 286.827 114.559 286.074 115.418C285.329 116.268 284.365 116.932 283.183 117.41C282.009 117.879 280.652 118.114 279.114 118.114ZM291.054 117.75V99.0923H296.071V102.348H296.265C296.605 101.19 297.176 100.315 297.978 99.724C298.779 99.1247 299.702 98.8251 300.747 98.8251C301.006 98.8251 301.286 98.8413 301.585 98.8737C301.885 98.9061 302.148 98.9506 302.375 99.0073V103.599C302.132 103.526 301.796 103.461 301.367 103.404C300.937 103.348 300.545 103.319 300.188 103.319C299.427 103.319 298.747 103.485 298.148 103.817C297.556 104.141 297.087 104.595 296.739 105.178C296.398 105.761 296.228 106.433 296.228 107.194V117.75H291.054ZM313.064 117.75V92.8732H322.878C324.757 92.8732 326.36 93.2093 327.689 93.8814C329.025 94.5454 330.041 95.4888 330.737 96.7116C331.442 97.9263 331.794 99.3555 331.794 100.999C331.794 102.651 331.438 104.073 330.725 105.263C330.013 106.445 328.98 107.352 327.628 107.984C326.284 108.615 324.656 108.931 322.745 108.931H316.173V104.704H321.895C322.899 104.704 323.733 104.566 324.397 104.291C325.061 104.016 325.555 103.603 325.879 103.052C326.211 102.502 326.377 101.817 326.377 100.999C326.377 100.173 326.211 99.477 325.879 98.9101C325.555 98.3433 325.057 97.9141 324.385 97.6226C323.721 97.323 322.882 97.1732 321.87 97.1732H318.323V117.75H313.064ZM326.498 106.429L332.681 117.75H326.875L320.826 106.429H326.498ZM343.616 118.114C341.697 118.114 340.045 117.725 338.66 116.948C337.283 116.163 336.223 115.053 335.478 113.62C334.733 112.178 334.36 110.474 334.36 108.506C334.36 106.587 334.733 104.903 335.478 103.453C336.223 102.004 337.271 100.874 338.624 100.064C339.984 99.2543 341.579 98.8494 343.409 98.8494C344.64 98.8494 345.786 99.0478 346.847 99.4446C347.916 99.8333 348.847 100.42 349.641 101.206C350.442 101.991 351.066 102.979 351.511 104.17C351.957 105.352 352.179 106.737 352.179 108.324V109.745H336.425V106.538H347.309C347.309 105.793 347.147 105.133 346.823 104.558C346.499 103.983 346.049 103.534 345.474 103.21C344.908 102.878 344.248 102.712 343.494 102.712C342.709 102.712 342.013 102.894 341.405 103.259C340.806 103.615 340.336 104.097 339.996 104.704C339.656 105.303 339.482 105.971 339.474 106.708V109.757C339.474 110.68 339.644 111.478 339.984 112.15C340.332 112.822 340.822 113.34 341.454 113.705C342.085 114.069 342.835 114.251 343.701 114.251C344.276 114.251 344.802 114.171 345.28 114.009C345.758 113.847 346.167 113.604 346.507 113.28C346.847 112.956 347.106 112.559 347.284 112.089L352.07 112.405C351.827 113.555 351.329 114.559 350.576 115.418C349.831 116.268 348.867 116.932 347.685 117.41C346.511 117.879 345.155 118.114 343.616 118.114ZM371.08 104.413L366.343 104.704C366.262 104.299 366.087 103.935 365.82 103.611C365.553 103.279 365.201 103.016 364.763 102.821C364.334 102.619 363.82 102.518 363.221 102.518C362.419 102.518 361.743 102.688 361.192 103.028C360.642 103.36 360.366 103.805 360.366 104.364C360.366 104.809 360.544 105.186 360.901 105.494C361.257 105.801 361.868 106.048 362.735 106.235L366.112 106.915C367.926 107.287 369.278 107.887 370.169 108.713C371.06 109.539 371.505 110.624 371.505 111.968C371.505 113.191 371.145 114.264 370.424 115.187C369.711 116.11 368.731 116.831 367.484 117.349C366.245 117.859 364.816 118.114 363.197 118.114C360.727 118.114 358.759 117.6 357.293 116.572C355.836 115.535 354.981 114.126 354.73 112.344L359.82 112.077C359.974 112.83 360.346 113.405 360.937 113.802C361.528 114.191 362.286 114.385 363.209 114.385C364.116 114.385 364.844 114.211 365.395 113.863C365.954 113.506 366.237 113.049 366.245 112.49C366.237 112.021 366.039 111.636 365.65 111.336C365.261 111.029 364.662 110.794 363.852 110.632L360.621 109.988C358.799 109.624 357.443 108.992 356.552 108.093C355.67 107.194 355.228 106.048 355.228 104.656C355.228 103.457 355.552 102.425 356.2 101.558C356.856 100.692 357.775 100.024 358.957 99.5539C360.148 99.0842 361.541 98.8494 363.136 98.8494C365.492 98.8494 367.347 99.3474 368.699 100.343C370.059 101.339 370.853 102.696 371.08 104.413ZM383.266 118.114C381.347 118.114 379.695 117.725 378.31 116.948C376.933 116.163 375.873 115.053 375.128 113.62C374.383 112.178 374.01 110.474 374.01 108.506C374.01 106.587 374.383 104.903 375.128 103.453C375.873 102.004 376.921 100.874 378.274 100.064C379.634 99.2543 381.229 98.8494 383.059 98.8494C384.29 98.8494 385.436 99.0478 386.497 99.4446C387.566 99.8333 388.497 100.42 389.291 101.206C390.092 101.991 390.716 102.979 391.161 104.17C391.607 105.352 391.829 106.737 391.829 108.324V109.745L376.075 109.745V106.538L386.959 106.538C386.959 105.793 386.797 105.133 386.473 104.558C386.149 103.983 385.699 103.534 385.124 103.21C384.558 102.878 383.898 102.712 383.145 102.712C382.359 102.712 381.663 102.894 381.055 103.259C380.456 103.615 379.986 104.097 379.646 104.704C379.306 105.303 379.132 105.971 379.124 106.708V109.757C379.124 110.68 379.294 111.478 379.634 112.15C379.982 112.822 380.472 113.34 381.104 113.705C381.736 114.069 382.485 114.251 383.351 114.251C383.926 114.251 384.452 114.171 384.93 114.009C385.408 113.847 385.817 113.604 386.157 113.28C386.497 112.956 386.756 112.559 386.934 112.089L391.72 112.405C391.477 113.555 390.979 114.559 390.226 115.418C389.481 116.268 388.517 116.932 387.335 117.41C386.161 117.879 384.805 118.114 383.266 118.114ZM400.527 118.102C399.336 118.102 398.275 117.896 397.344 117.483C396.413 117.061 395.676 116.442 395.133 115.624C394.599 114.798 394.332 113.77 394.332 112.539C394.332 111.502 394.522 110.632 394.903 109.927C395.283 109.223 395.801 108.656 396.457 108.227C397.113 107.798 397.858 107.474 398.692 107.255C399.535 107.036 400.417 106.882 401.34 106.793C402.425 106.68 403.3 106.575 403.964 106.478C404.628 106.372 405.11 106.218 405.41 106.016C405.709 105.814 405.859 105.514 405.859 105.117V105.044C405.859 104.275 405.616 103.68 405.13 103.259C404.652 102.838 403.972 102.627 403.089 102.627C402.158 102.627 401.417 102.834 400.867 103.247C400.316 103.651 399.952 104.162 399.773 104.777L394.988 104.388C395.231 103.255 395.708 102.275 396.421 101.449C397.134 100.615 398.053 99.975 399.178 99.5296C400.312 99.0761 401.624 98.8494 403.114 98.8494C404.15 98.8494 405.142 98.9709 406.09 99.2138C407.045 99.4567 407.892 99.8333 408.628 100.343C409.373 100.854 409.96 101.51 410.39 102.311C410.819 103.105 411.033 104.056 411.033 105.166V117.75H406.126V115.162H405.98C405.681 115.746 405.28 116.26 404.778 116.705C404.276 117.142 403.673 117.487 402.968 117.738C402.264 117.981 401.45 118.102 400.527 118.102ZM402.008 114.531C402.77 114.531 403.442 114.381 404.025 114.081C404.608 113.774 405.065 113.361 405.397 112.842C405.729 112.324 405.895 111.737 405.895 111.081V109.101C405.733 109.207 405.511 109.304 405.227 109.393C404.952 109.474 404.64 109.551 404.292 109.624C403.944 109.688 403.596 109.749 403.247 109.806C402.899 109.854 402.583 109.899 402.3 109.939C401.693 110.028 401.162 110.17 400.709 110.365C400.255 110.559 399.903 110.822 399.652 111.154C399.401 111.478 399.275 111.883 399.275 112.369C399.275 113.073 399.53 113.612 400.041 113.984C400.559 114.349 401.215 114.531 402.008 114.531ZM415.048 117.75V99.0923H420.065V102.348H420.259C420.599 101.19 421.17 100.315 421.972 99.724C422.773 99.1247 423.696 98.8251 424.741 98.8251C425 98.8251 425.28 98.8413 425.579 98.8737C425.879 98.9061 426.142 98.9506 426.369 99.0073V103.599C426.126 103.526 425.79 103.461 425.361 103.404C424.931 103.348 424.539 103.319 424.182 103.319C423.421 103.319 422.741 103.485 422.142 103.817C421.551 104.141 421.081 104.595 420.733 105.178C420.393 105.761 420.222 106.433 420.222 107.194V117.75L415.048 117.75ZM436.605 118.114C434.694 118.114 433.05 117.709 431.674 116.899C430.305 116.082 429.253 114.948 428.516 113.498C427.787 112.049 427.422 110.381 427.422 108.494C427.422 106.583 427.791 104.907 428.528 103.465C429.273 102.016 430.33 100.886 431.698 100.076C433.067 99.2584 434.694 98.8494 436.581 98.8494C438.209 98.8494 439.634 99.145 440.857 99.7361C442.08 100.327 443.047 101.157 443.76 102.226C444.472 103.295 444.865 104.55 444.938 105.992H440.055C439.917 105.06 439.553 104.311 438.962 103.745C438.379 103.17 437.614 102.882 436.666 102.882C435.864 102.882 435.164 103.101 434.565 103.538C433.974 103.967 433.512 104.595 433.18 105.421C432.848 106.247 432.682 107.247 432.682 108.421C432.682 109.611 432.844 110.624 433.168 111.458C433.5 112.292 433.966 112.927 434.565 113.365C435.164 113.802 435.864 114.021 436.666 114.021C437.257 114.021 437.788 113.899 438.257 113.656C438.735 113.413 439.128 113.061 439.436 112.6C439.751 112.13 439.958 111.567 440.055 110.911H444.938C444.857 112.336 444.468 113.592 443.772 114.677C443.084 115.754 442.132 116.596 440.918 117.203C439.703 117.81 438.265 118.114 436.605 118.114ZM453.426 106.963V117.75H448.251V92.8732H453.28V102.384H453.499C453.92 101.283 454.6 100.42 455.539 99.7969C456.479 99.1652 457.657 98.8494 459.074 98.8494C460.37 98.8494 461.499 99.1328 462.463 99.6997C463.435 100.258 464.188 101.064 464.722 102.117C465.265 103.162 465.532 104.413 465.524 105.87V117.75H460.349V106.793C460.357 105.643 460.066 104.749 459.475 104.109C458.892 103.469 458.074 103.149 457.021 103.149C456.317 103.149 455.693 103.299 455.15 103.599C454.616 103.898 454.195 104.336 453.887 104.911C453.588 105.477 453.434 106.162 453.426 106.963Z" fill="white"/>
<path d="M125.17 209.455L128.686 220.506H128.82L132.343 209.455H135.752L130.738 224H126.775L121.754 209.455H125.17ZM137.446 224V213.091H140.472V224H137.446ZM138.966 211.685C138.516 211.685 138.13 211.536 137.808 211.237C137.491 210.934 137.333 210.572 137.333 210.151C137.333 209.734 137.491 209.376 137.808 209.078C138.13 208.775 138.516 208.624 138.966 208.624C139.416 208.624 139.799 208.775 140.117 209.078C140.439 209.376 140.6 209.734 140.6 210.151C140.6 210.572 140.439 210.934 140.117 211.237C139.799 211.536 139.416 211.685 138.966 211.685ZM151.972 216.202L149.202 216.372C149.155 216.135 149.053 215.922 148.897 215.733C148.741 215.539 148.535 215.385 148.279 215.271C148.028 215.153 147.727 215.094 147.377 215.094C146.908 215.094 146.513 215.193 146.191 215.392C145.869 215.586 145.708 215.847 145.708 216.173C145.708 216.434 145.812 216.654 146.02 216.834C146.229 217.014 146.586 217.158 147.093 217.267L149.067 217.665C150.128 217.883 150.919 218.233 151.439 218.716C151.96 219.199 152.221 219.833 152.221 220.619C152.221 221.334 152.01 221.962 151.589 222.501C151.172 223.041 150.599 223.463 149.87 223.766C149.145 224.064 148.31 224.213 147.363 224.213C145.919 224.213 144.768 223.912 143.911 223.311C143.059 222.705 142.559 221.881 142.412 220.839L145.388 220.683C145.478 221.124 145.696 221.46 146.042 221.692C146.387 221.919 146.83 222.033 147.37 222.033C147.9 222.033 148.326 221.931 148.648 221.727C148.975 221.519 149.141 221.251 149.145 220.925C149.141 220.65 149.025 220.425 148.797 220.25C148.57 220.07 148.22 219.933 147.746 219.838L145.857 219.462C144.792 219.249 143.999 218.879 143.478 218.354C142.962 217.828 142.704 217.158 142.704 216.344C142.704 215.643 142.893 215.039 143.272 214.533C143.655 214.026 144.193 213.635 144.884 213.361C145.58 213.086 146.394 212.949 147.327 212.949C148.705 212.949 149.789 213.24 150.58 213.822C151.375 214.405 151.84 215.198 151.972 216.202ZM161.122 219.355V213.091H164.147V224H161.242V222.018H161.129C160.882 222.658 160.473 223.171 159.9 223.56C159.332 223.948 158.638 224.142 157.819 224.142C157.09 224.142 156.448 223.976 155.894 223.645C155.34 223.313 154.907 222.842 154.595 222.232C154.287 221.621 154.131 220.889 154.126 220.037V213.091H157.151V219.497C157.156 220.141 157.329 220.65 157.67 221.024C158.011 221.398 158.468 221.585 159.041 221.585C159.405 221.585 159.746 221.502 160.063 221.337C160.381 221.166 160.636 220.915 160.83 220.584C161.029 220.252 161.126 219.843 161.122 219.355ZM169.678 224.206C168.982 224.206 168.362 224.085 167.817 223.844C167.273 223.598 166.842 223.235 166.525 222.757C166.212 222.274 166.056 221.673 166.056 220.953C166.056 220.347 166.167 219.838 166.39 219.426C166.612 219.014 166.915 218.683 167.299 218.432C167.682 218.181 168.118 217.991 168.606 217.864C169.098 217.736 169.614 217.646 170.154 217.594C170.788 217.527 171.3 217.466 171.688 217.409C172.076 217.348 172.358 217.258 172.533 217.139C172.708 217.021 172.796 216.846 172.796 216.614V216.571C172.796 216.121 172.654 215.773 172.37 215.527C172.09 215.281 171.693 215.158 171.177 215.158C170.632 215.158 170.199 215.278 169.877 215.52C169.555 215.757 169.342 216.055 169.238 216.415L166.439 216.188C166.581 215.525 166.861 214.952 167.277 214.469C167.694 213.981 168.232 213.607 168.89 213.347C169.553 213.081 170.32 212.949 171.191 212.949C171.797 212.949 172.377 213.02 172.931 213.162C173.49 213.304 173.984 213.524 174.415 213.822C174.851 214.121 175.194 214.504 175.445 214.973C175.696 215.437 175.822 215.993 175.822 216.642V224H172.952V222.487H172.867C172.692 222.828 172.457 223.129 172.164 223.389C171.87 223.645 171.518 223.846 171.106 223.993C170.694 224.135 170.218 224.206 169.678 224.206ZM170.545 222.118C170.99 222.118 171.383 222.03 171.723 221.855C172.064 221.675 172.332 221.434 172.526 221.131C172.72 220.828 172.817 220.484 172.817 220.101V218.943C172.723 219.005 172.592 219.062 172.427 219.114C172.266 219.161 172.083 219.206 171.88 219.249C171.676 219.286 171.473 219.322 171.269 219.355C171.065 219.384 170.881 219.41 170.715 219.433C170.36 219.485 170.05 219.568 169.785 219.682C169.519 219.795 169.313 219.949 169.167 220.143C169.02 220.333 168.947 220.57 168.947 220.854C168.947 221.266 169.096 221.58 169.394 221.798C169.697 222.011 170.081 222.118 170.545 222.118ZM181.194 209.455V224H178.169V209.455H181.194ZM138.361 248.213C137.358 248.213 136.491 248.033 135.762 247.673C135.033 247.313 134.472 246.826 134.079 246.21C133.691 245.59 133.496 244.899 133.496 244.136C133.496 243.568 133.61 243.064 133.837 242.624C134.065 242.183 134.382 241.778 134.789 241.409C135.196 241.035 135.67 240.663 136.209 240.294L139.029 238.44C139.394 238.208 139.661 237.964 139.832 237.709C140.002 237.448 140.087 237.167 140.087 236.864C140.087 236.575 139.971 236.307 139.739 236.061C139.507 235.815 139.178 235.694 138.752 235.699C138.468 235.699 138.222 235.763 138.013 235.891C137.805 236.014 137.642 236.177 137.523 236.381C137.41 236.58 137.353 236.802 137.353 237.048C137.353 237.351 137.438 237.659 137.609 237.972C137.779 238.284 138.006 238.616 138.29 238.966C138.575 239.312 138.885 239.686 139.221 240.088L146.117 248H142.964L137.211 241.594C136.832 241.163 136.453 240.713 136.075 240.244C135.7 239.771 135.388 239.269 135.137 238.739C134.886 238.204 134.761 237.624 134.761 236.999C134.761 236.293 134.924 235.659 135.251 235.095C135.582 234.532 136.046 234.087 136.643 233.76C137.239 233.429 137.935 233.263 138.731 233.263C139.507 233.263 140.177 233.421 140.741 233.739C141.309 234.051 141.745 234.468 142.048 234.989C142.355 235.505 142.509 236.073 142.509 236.693C142.509 237.38 142.339 238.002 141.998 238.561C141.662 239.115 141.188 239.612 140.577 240.053L137.609 242.19C137.206 242.484 136.908 242.785 136.714 243.092C136.524 243.395 136.43 243.687 136.43 243.966C136.43 244.312 136.515 244.622 136.685 244.896C136.856 245.171 137.097 245.389 137.41 245.55C137.722 245.706 138.089 245.784 138.511 245.784C139.022 245.784 139.526 245.668 140.023 245.436C140.525 245.199 140.98 244.866 141.387 244.435C141.799 243.999 142.128 243.483 142.374 242.886C142.62 242.29 142.744 241.629 142.744 240.905H145.251C145.251 241.795 145.154 242.598 144.959 243.312C144.765 244.023 144.495 244.643 144.15 245.173C143.804 245.699 143.409 246.13 142.964 246.466C142.822 246.556 142.684 246.641 142.552 246.722C142.419 246.802 142.282 246.887 142.14 246.977C141.6 247.413 140.996 247.728 140.329 247.922C139.666 248.116 139.01 248.213 138.361 248.213ZM161.048 233.455H164.123V242.901C164.123 243.961 163.87 244.889 163.363 245.685C162.861 246.48 162.158 247.1 161.254 247.545C160.35 247.986 159.296 248.206 158.093 248.206C156.886 248.206 155.83 247.986 154.926 247.545C154.021 247.1 153.318 246.48 152.816 245.685C152.314 244.889 152.064 243.961 152.064 242.901V233.455H155.139V242.638C155.139 243.192 155.26 243.684 155.501 244.115C155.747 244.546 156.093 244.884 156.538 245.131C156.983 245.377 157.501 245.5 158.093 245.5C158.69 245.5 159.208 245.377 159.649 245.131C160.094 244.884 160.437 244.546 160.679 244.115C160.925 243.684 161.048 243.192 161.048 242.638V233.455ZM169.729 233.455V248H166.653V233.455H169.729Z" fill="#09181B"/>
<circle cx="151.844" cy="229" r="47.9311" stroke="#09181B" stroke-width="2.13783"/>
<path d="M1265.52 143.454C1297.4 143.455 1323.24 169.259 1323.24 201.087C1323.24 232.916 1297.4 258.72 1265.52 258.72C1233.64 258.72 1207.8 232.916 1207.8 201.087C1207.8 169.259 1233.64 143.454 1265.52 143.454Z" stroke="#09181B" stroke-width="2.13783"/>
<path d="M1286.75 233.644L1278.66 225.555C1275.52 228.69 1272.1 231.042 1268.4 232.61C1264.7 234.115 1260.57 234.867 1255.99 234.867C1251.35 234.867 1247.24 234.052 1243.66 232.421C1240.09 230.791 1237.33 228.471 1235.39 225.461C1233.44 222.388 1232.47 218.845 1232.47 214.831C1232.47 210.316 1233.76 206.303 1236.33 202.791C1238.9 199.217 1242.72 196.395 1247.8 194.325C1245.99 192.131 1244.7 190.092 1243.95 188.211C1243.19 186.267 1242.82 184.135 1242.82 181.815C1242.82 178.93 1243.54 176.359 1244.98 174.101C1246.49 171.844 1248.62 170.057 1251.38 168.74C1254.14 167.423 1257.34 166.764 1260.97 166.764C1264.67 166.764 1267.81 167.486 1270.38 168.928C1273.01 170.308 1274.96 172.22 1276.21 174.666C1277.53 177.112 1278.06 179.839 1277.81 182.849H1267.09C1267.15 180.529 1266.59 178.742 1265.39 177.488C1264.2 176.171 1262.57 175.512 1260.5 175.512C1258.43 175.512 1256.74 176.14 1255.42 177.394C1254.17 178.585 1253.54 180.059 1253.54 181.815C1253.54 183.508 1254.01 185.201 1254.95 186.894C1255.96 188.525 1257.68 190.657 1260.13 193.291L1277.43 210.504L1284.11 199.499H1295.68L1287.22 213.985L1284.87 217.841L1300.76 233.644H1286.75ZM1255.99 225.743C1261.88 225.743 1267.09 223.329 1271.6 218.5L1254.29 201.098C1246.89 204.045 1243.19 208.498 1243.19 214.455C1243.19 217.653 1244.39 220.35 1246.77 222.545C1249.15 224.677 1252.22 225.743 1255.99 225.743Z" fill="#09181B"/>
</svg>
